<svg xmlns="http://www.w3.org/2000/svg" viewBox="0 0 22 22">
  <path fill="#1FB6FF" d="M16.8127957,19.0312007 C16.1449913,19.6993152 15.3123609,19.9997783 13.8835848,20 L6.89743478,20 C5.46862174,19.9997783 4.63610217,19.6993152 3.96826087,19.0312007 C3.30041957,18.3630862 3,17.5296246 3,16.0992282 L3,9.11898736 C3,7.68873888 3.30038261,6.85531424 3.96826087,6.18705188 C4.63613913,5.51878953 5.46921304,5.21828952 6.89891304,5.21828952 C6.89891304,5.21828952 12.200363,5.21710688 12.6086957,5.21710688 C13.0169061,5.21710688 13.3478261,5.54803404 13.3478261,5.95625339 C13.3478261,7.9973501 15.0024259,9.65198591 17.0434783,9.65198591 C17.4516887,9.65198591 17.7826087,9.98291307 17.7826087,10.3911324 C17.7826087,10.799363 17.7812783,16.0992652 17.7812783,16.0992652 C17.7811674,17.5296246 17.4807848,18.3628644 16.8127957,19.0312007 Z M17.0432196,8.91317202 C15.4104114,8.91302914 14.0868613,7.58925724 14.0869565,5.95641355 C14.0870518,4.32356986 15.4107563,2.99995238 17.0435645,3 C18.6763727,3.00004762 20,4.32374231 20,5.956586 C20,6.74076619 19.6884747,7.49282462 19.1339634,8.04729949 C18.579452,8.60177436 17.8273827,8.91324063 17.0432196,8.91317202 Z"/>
</svg>
