<svg xmlns="http://www.w3.org/2000/svg" viewBox="0 0 22 22">
  <path fill="#5856D6" d="M4.40832,19.60832 C3.0828366,19.60832 2.00832,18.5338034 2.00832,17.20832 L2.00832,2.40832 C2.00832,2.18736 2.36652,2.00832 2.80832,2.00832 C3.25012,2.00832 3.60832,2.18736 3.60832,2.40832 C3.60832,2.62928 3.96652,2.80832 4.40832,2.80832 C4.85012,2.80832 5.20832,2.6292 5.20832,2.40832 C5.20832,2.18744 5.56648,2.00832 6.00832,2.00832 C6.45016,2.00832 6.80832,2.18736 6.80832,2.40832 C6.80832,2.62928 7.16648,2.80832 7.60832,2.80832 C8.05016,2.80832 8.40832,2.6292 8.40832,2.40832 C8.40832,2.18744 8.76648,2.00832 9.20832,2.00832 C9.65016,2.00832 10.00832,2.18736 10.00832,2.40832 C10.00832,2.62928 10.36648,2.80832 10.80832,2.80832 C11.25016,2.80832 11.60832,2.6292 11.60832,2.40832 C11.60832,2.18744 11.96644,2.00832 12.40832,2.00832 C12.8502,2.00832 13.20832,2.18736 13.20832,2.40832 C13.20832,2.62928 13.56644,2.80832 14.00832,2.80832 C14.4502,2.80832 14.80832,2.6292 14.80832,2.40832 C14.80832,2.18744 15.16644,2.00832 15.60832,2.00832 C16.0502,2.00832 16.40832,2.18736 16.40832,2.40832 C16.40832,2.62928 16.76644,2.80832 17.20832,2.80832 C17.6502,2.80832 18.00832,2.6292 18.00832,2.40832 C18.00832,2.18744 18.36644,2.00832 18.80832,2.00832 C19.2502,2.00832 19.60832,2.18736 19.60832,2.40832 L19.60832,17.20832 C19.60832,18.5338034 18.5338034,19.60832 17.20832,19.60832 L4.40832,19.60832 Z M4.80832,10.80832 C4.5874061,10.80832 4.40832,10.9874061 4.40832,11.20832 L4.40832,16.00832 C4.40832,16.2292339 4.5874061,16.40832 4.80832,16.40832 L8.80832,16.40832 C9.0292339,16.40832 9.20832,16.2292339 9.20832,16.00832 L9.20832,11.20832 C9.20832,10.9874061 9.0292339,10.80832 8.80832,10.80832 L4.80832,10.80832 Z M15.60832,6.40832 C15.60832,6.1874061 15.4292339,6.00832 15.20832,6.00832 L6.40832,6.00832 C6.1874061,6.00832 6.00832,6.1874061 6.00832,6.40832 L6.00832,7.20832 C6.00832,7.4292339 6.1874061,7.60832 6.40832,7.60832 L15.20832,7.60832 C15.4292339,7.60832 15.60832,7.4292339 15.60832,7.20832 L15.60832,6.40832 Z M16.80832,10.80832 L11.20832,10.80832 C10.9874061,10.80832 10.80832,10.9874061 10.80832,11.20832 C10.80832,11.4292339 10.9874061,11.60832 11.20832,11.60832 L16.80832,11.60832 C17.0292339,11.60832 17.20832,11.4292339 17.20832,11.20832 C17.20832,10.9874061 17.0292339,10.80832 16.80832,10.80832 Z M16.80832,13.20832 L11.20832,13.20832 C10.9874061,13.20832 10.80832,13.3874061 10.80832,13.60832 C10.80832,13.8292339 10.9874061,14.00832 11.20832,14.00832 L16.80832,14.00832 C17.0292339,14.00832 17.20832,13.8292339 17.20832,13.60832 C17.20832,13.3874061 17.0292339,13.20832 16.80832,13.20832 Z M16.80832,15.60832 L11.20832,15.60832 C10.9874061,15.60832 10.80832,15.7874061 10.80832,16.00832 C10.80832,16.2292339 10.9874061,16.40832 11.20832,16.40832 L16.80832,16.40832 C17.0292339,16.40832 17.20832,16.2292339 17.20832,16.00832 C17.20832,15.7874061 17.0292339,15.60832 16.80832,15.60832 Z"/>
</svg>
