<svg xmlns="http://www.w3.org/2000/svg" width="22" height="22" viewBox="0 0 22 22">
  <path fill="#1FB6FF" d="M18.2,20 L6.39408,20 C5.75758333,19.9999916 5.1471574,19.7526417 4.69708,19.3123609 L3.46868,18.1106261 C3.16860581,17.8171016 3.00001636,17.4189858 3,17.0038609 L3,2.7826087 C3,2.35038585 3.3581722,2 3.8,2 L15.8,2 C16.2418278,2 16.6,2.35038585 16.6,2.7826087 L16.6,16.8695652 C16.6,17.3017881 16.2418278,17.6521739 15.8,17.6521739 L5.73284,17.6521739 C5.65194325,17.652175 5.57901365,17.6998501 5.54806124,17.7729664 C5.51710883,17.8460827 5.53422981,17.9302396 5.59144,17.9861913 L5.81568,18.2055565 C5.96571669,18.3523344 6.16921405,18.4347902 6.3814,18.4347826 L17.2,18.4347826 C17.3104569,18.4347826 17.4,18.3471861 17.4,18.2391304 L17.4,4.54347826 C17.4,4.43542255 17.4895431,4.34782609 17.6,4.34782609 L18.2,4.34782609 C18.6418278,4.34782609 19,4.69821193 19,5.13043478 L19,19.2173913 C19,19.6496142 18.6418278,20 18.2,20 Z"/>
</svg>
