<svg xmlns="http://www.w3.org/2000/svg" width="22" height="22" viewBox="0 0 22 22">
  <path fill="#009EEB" d="M11.0018,11.509434 C11.0018,8.10016604 15.3333333,9.31676226 15.3333333,6.75471698 C15.3333333,5.75456226 14.0491667,3.69811321 11.6662333,3.69811321 C9.45817975,3.70062108 7.66878677,5.52370023 7.66623333,7.77341509 C7.6252137,8.87504804 8.34605308,9.85580251 9.39513333,10.1257094 C9.55334239,10.1537035 9.66888943,10.2935403 9.669,10.4571472 L9.669,19.6603774 C9.669,19.8479458 9.51976158,20 9.33566667,20 L5.99626667,20 C5.63115642,20.0009171 5.33358818,19.7017667 5.3296,19.3297887 C5.32213333,16.8565887 8.33026667,15.1357547 8.33026667,13.2083283 L8.33026667,13.2071396 C8.33026667,11.2818868 6.32966667,10.203517 6.32966667,7.77338113 C6.32988766,6.33199828 6.89209695,4.94974314 7.89260928,3.93070989 C8.89312161,2.91167664 10.2499761,2.33934339 11.6646667,2.33962264 C14.3255121,2.26873801 16.55069,4.38468061 16.6646667,7.09416981 L16.6646667,7.09583396 C16.6646667,7.37751698 16.3313333,7.52127925 16.3313333,7.77507925 C16.3261057,7.83831155 16.3399693,7.90166143 16.3710667,7.95664151 L17.9210667,10.3634113 C18.0209083,10.526135 18.0261844,10.7312537 17.9348454,10.8990823 C17.8435064,11.0669109 17.6699499,11.1709944 17.4816,11.1708981 L17.1662667,11.1708981 C17.0742192,11.1708981 16.9996,11.2469252 16.9996,11.3407094 L16.9996,13.8794566 C16.9992258,14.063547 16.9265329,14.2398227 16.7977456,14.3689406 C16.6689583,14.4980585 16.4947971,14.5692706 16.3141333,14.566683 C15.8323145,14.5248061 15.3548688,14.4412175 14.8869667,14.3168226 L14.4918333,14.2363321 C14.1140783,14.1610887 13.7401825,14.3831292 13.6182667,14.7551057 L13.3623667,15.5358981 C13.290442,15.755204 13.3331621,15.9967355 13.4757,16.1766642 C14.1,16.9692415 15.0190333,18.2987623 14.9985333,19.3589283 C14.9781347,19.7187744 14.6858042,19.9999519 14.3320333,20 L11.3351333,20 C11.1510384,20 11.0018,19.8479458 11.0018,19.6603774 L11.0018,11.509434 Z"/>
</svg>
