<svg xmlns="http://www.w3.org/2000/svg" viewBox="0 0 22 22">
  <path fill="#59CB59" d="M17.6667935,2.79029215 C18.1271524,2.79029215 18.500347,3.14052163 18.500347,3.57255159 L18.500347,6.90704983 C18.5002358,7.02561754 18.4240789,7.13246405 18.3073475,7.17782384 C18.190616,7.22318363 18.0562659,7.19813651 17.9668728,7.11434858 L15.4103227,4.71429837 C15.2540666,4.5675984 15.1662918,4.36866402 15.1662999,4.16124094 L15.1662999,3.57255159 C15.1662999,3.14052163 15.5394945,2.79029215 15.9998533,2.79029215 L17.6667935,2.79029215 Z M17.6667935,20 L13.915803,20 C13.4554441,20 13.0822496,19.6497705 13.0822496,19.2177406 L13.0822496,14.5241839 C13.0822496,14.0921539 12.709055,13.7419244 12.2486961,13.7419244 L9.74803576,13.7419244 C9.2876769,13.7419244 8.91448231,14.0921539 8.91448231,14.5241839 L8.91448231,19.2177406 C8.91448231,19.6497705 8.54128772,20 8.08092886,20 L4.32993835,20 C3.86957949,20 3.4963849,19.6497705 3.4963849,19.2177406 L3.4963849,12.1722817 L1.83344577,12.1722817 C1.4962971,12.1721209 1.19242672,11.9814408 1.06345071,11.6891061 C0.934474697,11.3967715 1.00577529,11.0603132 1.24412348,10.8365346 L10.4107108,2.22913833 C10.5669658,2.08242736 10.7789388,2 10.9999705,2 C11.2210023,2 11.4329752,2.08242736 11.5892303,2.22913833 L20.7558176,10.8365346 C20.9941924,11.0602842 21.0655279,11.3967349 20.9365764,11.6890761 C20.8076249,11.9814172 20.503766,12.1721117 20.1666203,12.1722817 L18.500347,12.1722817 L18.500347,19.2177014 C18.500347,19.6497314 18.1271524,19.9999609 17.6667935,19.9999609 L17.6667935,20 Z"/>
</svg>
