<svg xmlns="http://www.w3.org/2000/svg" width="22" height="22" viewBox="0 0 22 22">
  <path fill="#5856D6" d="M18.1669388,17.6484923 L3.47306122,17.6484923 C2.66154078,17.6484923 2.00367347,17.0056191 2.00367347,16.2125949 L2.00367347,5.4433641 C2.00367347,4.65033985 2.66154078,4.00746667 3.47306122,4.00746667 L18.1669388,4.00746667 C18.9784592,4.00746667 19.6363265,4.65033985 19.6363265,5.4433641 L19.6363265,16.2125949 C19.6363265,17.0056191 18.9784592,17.6484923 18.1669388,17.6484923 Z M18.1649918,15.6702564 L18.1669388,5.80241026 C18.1669388,5.60415419 18.0024719,5.4434359 17.7995918,5.4434359 L3.84040816,5.4434359 C3.63752805,5.4434359 3.47306122,5.60415419 3.47306122,5.80241026 L3.47306122,15.6879179 C3.47308622,15.7598951 3.52081779,15.8235647 3.59103865,15.8452891 C3.66125951,15.8670136 3.73779083,15.8417876 3.7802,15.7829385 L5.40222041,13.5312359 C5.48826635,13.4119042 5.62833713,13.3409342 5.77772245,13.3409795 L6.27411837,13.3409795 L8.20327755,10.6598 C8.28926511,10.5403011 8.42939822,10.4691865 8.5788898,10.4691846 L9.11227755,10.4691846 C9.26170326,10.4691887 9.40178211,10.5402431 9.48777959,10.6596564 L13.4034408,16.0967897 C13.4557279,16.1693927 13.5408961,16.2125931 13.6317469,16.2125949 L13.8448082,16.2125949 C13.9494745,16.2125836 14.0454213,16.1556068 14.0936425,16.0648276 C14.1418637,15.9740485 14.1343307,15.864581 14.0741061,15.7809282 L13.1163592,14.4509282 C12.997568,14.285967 13.0018488,14.0648072 13.1269388,13.9043538 L13.9882204,12.7996462 C14.0750757,12.6882343 14.2101847,12.6228435 14.3535102,12.6228513 L15.1384204,12.6228513 C15.281733,12.6228547 15.416826,12.6882443 15.5036735,12.7996462 L17.8283551,15.7812154 C17.8770058,15.8439216 17.9612197,15.8692328 18.0375226,15.8440826 C18.1138255,15.8189324 18.1651465,15.7489474 18.1649918,15.6702564 Z M14.1261224,10.4690051 C13.1117219,10.4690051 12.2893878,9.66541365 12.2893878,8.67413333 C12.2893878,7.68285301 13.1117219,6.87926154 14.1261224,6.87926154 C15.140523,6.87926154 15.9628571,7.68285301 15.9628571,8.67413333 C15.9628571,9.66541365 15.140523,10.4690051 14.1261224,10.4690051 Z"/>
</svg>
