<svg xmlns="http://www.w3.org/2000/svg" width="22" height="22" viewBox="0 0 22 22">
  <path fill="#1FB6FF" d="M2,18 L2,3.6 C2,2.7163444 2.7163444,2 3.6,2 L18,2 C18.8836556,2 19.6,2.7163444 19.6,3.6 L19.6,18 C19.6,18.8836556 18.8836556,19.6 18,19.6 L3.6,19.6 C2.7163444,19.6 2,18.8836556 2,18 Z M5.2,4 C5.2,3.7790861 5.0209139,3.6 4.8,3.6 L3.6,3.6 C3.3790861,3.6 3.2,3.7790861 3.2,4 L3.2,4.8 C3.2,5.0209139 3.3790861,5.2 3.6,5.2 L4.8,5.2 C5.0209139,5.2 5.2,5.0209139 5.2,4.8 L5.2,4 Z M5.2,7.2 C5.2,6.9790861 5.0209139,6.8 4.8,6.8 L3.6,6.8 C3.3790861,6.8 3.2,6.9790861 3.2,7.2 L3.2,8 C3.2,8.2209139 3.3790861,8.4 3.6,8.4 L4.8,8.4 C5.0209139,8.4 5.2,8.2209139 5.2,8 L5.2,7.2 Z M5.2,10.4 C5.2,10.1790861 5.0209139,10 4.8,10 L3.6,10 C3.3790861,10 3.2,10.1790861 3.2,10.4 L3.2,11.2 C3.2,11.4209139 3.3790861,11.6 3.6,11.6 L4.8,11.6 C5.0209139,11.6 5.2,11.4209139 5.2,11.2 L5.2,10.4 Z M5.2,13.6 C5.2,13.3790861 5.0209139,13.2 4.8,13.2 L3.6,13.2 C3.3790861,13.2 3.2,13.3790861 3.2,13.6 L3.2,14.4 C3.2,14.6209139 3.3790861,14.8 3.6,14.8 L4.8,14.8 C5.0209139,14.8 5.2,14.6209139 5.2,14.4 L5.2,13.6 Z M16.4,17.6 C16.4,17.8209139 16.5790861,18 16.8,18 L18,18 C18.2209139,18 18.4,17.8209139 18.4,17.6 L18.4,16.8 C18.4,16.5790861 18.2209139,16.4 18,16.4 L16.8,16.4 C16.5790861,16.4 16.4,16.5790861 16.4,16.8 L16.4,17.6 Z M16.4,14.4 C16.4,14.6209139 16.5790861,14.8 16.8,14.8 L18,14.8 C18.2209139,14.8 18.4,14.6209139 18.4,14.4 L18.4,13.6 C18.4,13.3790861 18.2209139,13.2 18,13.2 L16.8,13.2 C16.5790861,13.2 16.4,13.3790861 16.4,13.6 L16.4,14.4 Z M16.4,11.2 C16.4,11.4209139 16.5790861,11.6 16.8,11.6 L18,11.6 C18.2209139,11.6 18.4,11.4209139 18.4,11.2 L18.4,10.4 C18.4,10.1790861 18.2209139,10 18,10 L16.8,10 C16.5790861,10 16.4,10.1790861 16.4,10.4 L16.4,11.2 Z M16.4,8 C16.4,8.2209139 16.5790861,8.4 16.8,8.4 L18,8.4 C18.2209139,8.4 18.4,8.2209139 18.4,8 L18.4,7.2 C18.4,6.9790861 18.2209139,6.8 18,6.8 L16.8,6.8 C16.5790861,6.8 16.4,6.9790861 16.4,7.2 L16.4,8 Z M16.4,4.8 C16.4,5.0209139 16.5790861,5.2 16.8,5.2 L18,5.2 C18.2209139,5.2 18.4,5.0209139 18.4,4.8 L18.4,4 C18.4,3.7790861 18.2209139,3.6 18,3.6 L16.8,3.6 C16.5790861,3.6 16.4,3.7790861 16.4,4 L16.4,4.8 Z M6.4,17.6 C6.4,17.8209139 6.5790861,18 6.8,18 L14.8,18 C15.0209139,18 15.2,17.8209139 15.2,17.6 L15.2,12 C15.2,11.7790861 15.0209139,11.6 14.8,11.6 L6.8,11.6 C6.5790861,11.6 6.4,11.7790861 6.4,12 L6.4,17.6 Z M6.4,9.6 C6.4,9.8209139 6.5790861,10 6.8,10 L14.8,10 C15.0209139,10 15.2,9.8209139 15.2,9.6 L15.2,4 C15.2,3.7790861 15.0209139,3.6 14.8,3.6 L6.8,3.6 C6.5790861,3.6 6.4,3.7790861 6.4,4 L6.4,9.6 Z M5.2,17.6 L5.2,16.8 C5.2,16.5790861 5.0209139,16.4 4.8,16.4 L3.6,16.4 C3.3790861,16.4 3.2,16.5790861 3.2,16.8 L3.2,17.6 C3.2,17.8209139 3.3790861,18 3.6,18 L4.8,18 C5.0209139,18 5.2,17.8209139 5.2,17.6 Z"/>
</svg>
