<svg xmlns="http://www.w3.org/2000/svg" width="22" height="22" viewBox="0 0 22 22">
  <path fill="#1FB6FF" d="M9.19862368,4.94747386 L16.9374553,3.02534001 C17.1929447,2.96193271 17.4635911,3.01899127 17.6711418,3.18001823 C17.8786925,3.34104518 18.0000036,3.58808441 18,3.84970887 L18,15.4278854 C18,16.7141795 16.8384158,17.6204244 15.2631579,17.6204244 C14.7236999,17.6312739 14.202463,17.4263964 13.8165018,17.0518017 C13.4305407,16.677207 13.2122049,16.1642918 13.2105263,15.6282422 C13.2105454,14.7204316 13.8324513,13.9291279 14.7189368,13.7089633 L16.1133921,13.3626298 C16.4179137,13.2869576 16.6315432,13.015128 16.6315789,12.7032707 L16.6315789,7.75318293 C16.6315604,7.64854203 16.5830252,7.54974285 16.5000045,7.48534707 C16.4169838,7.42095129 16.3087334,7.39813841 16.2065474,7.42350337 L10.1783105,8.92072443 C9.94975458,8.97742417 9.78941315,9.18144313 9.78947368,9.4154817 L9.78947368,17.8070163 C9.78947368,19.0933104 8.62785526,19.9995893 7.05263158,19.9995893 C6.51317683,20.010448 5.99193972,19.8055783 5.6059775,19.4309889 C5.22001529,19.0563995 5.00167839,18.5434877 5,18.0074411 C4.99998718,17.0996235 5.62188488,16.3082983 6.50837632,16.0881282 L7.90279737,15.7417607 C8.20734615,15.6661149 8.42100902,15.3942787 8.42105263,15.0824016 L8.42105263,5.93661453 C8.42109254,5.46870645 8.74168868,5.06087918 9.19862368,4.94747386 Z"/>
</svg>
