<svg viewBox="0 0 22 22" xmlns="http://www.w3.org/2000/svg">
      <g id="Icon/Open" fill-rule="nonzero" fill="#6D95A8">
          <path d="M18.259161,9.28931267 C18.0628584,9.28950929 17.8745183,9.21162512 17.735576,9.07279485 C17.5966337,8.93396458 17.5184715,8.74556125 17.5182851,8.54903398 L17.5182851,5.53282717 L11.3662761,11.6746469 C11.1796978,11.860254 10.9083852,11.9321098 10.6545393,11.863147 C10.4006933,11.7941841 10.2028792,11.5948796 10.1356115,11.3403096 C10.0683439,11.0857396 10.1418423,10.8145793 10.3284206,10.6289722 L16.4872389,4.48055775 L13.4408398,4.48055775 C13.0324624,4.48055775 12.7014071,4.14912369 12.7014071,3.74027906 C12.7014071,3.33143443 13.0324624,3.00000037 13.4408398,3.00000037 L18.259124,3.00000037 C18.4554203,2.99980375 18.6437548,3.07768284 18.782696,3.21650509 C18.9216372,3.35532735 18.9998038,3.54372117 19,3.74024201 L19,8.54903398 C18.9998136,8.74555482 18.9216564,8.93395254 18.7827221,9.07278174 C18.6437879,9.21161095 18.4554573,9.28949946 18.259161,9.28931267 Z M9.66666667,7.14820986 L5.22222222,7.14820986 C4.81323881,7.14869975 4.48184883,7.48009524 4.48148148,7.88896294 L4.48148148,16.7776297 C4.48180808,17.1865143 4.8132219,17.5179336 5.22222222,17.5183828 L14.1111111,17.5183828 C14.5200692,17.5178318 14.8514234,17.186472 14.8518519,16.7776297 L14.8518519,12.3344441 C14.8518519,11.9254602 15.1834928,11.5939132 15.5925926,11.5939132 C16.0016924,11.5939132 16.3333333,11.9254602 16.3333333,12.3344441 L16.3333333,16.7776297 C16.3321907,18.0042339 15.3380624,18.9984284 14.1111111,19 L5.22222222,19 C3.99527937,18.998408 3.00116305,18.0042255 3,16.7776297 L3,7.88896294 C3.00114276,6.66237073 3.9952829,5.66819746 5.22222222,5.66666667 L9.66666667,5.66666667 C10.0738551,5.66954466 10.402428,6.00035497 10.402428,6.40743826 C10.402428,6.81452156 10.0738551,7.14533187 9.66666667,7.14820986 Z" id="Shape"></path>
      </g>
</svg>
