<svg xmlns="http://www.w3.org/2000/svg" viewBox="0 0 22 22">
  <path fill="#6D95A8" d="M5.51677924,16.4631199 C7.93230591,15.7336714 8.51344683,15.0170479 8.5457438,13.0564395 C8.3073331,12.8836811 8.09119407,12.6865311 7.90152159,12.4688157 C7.38531068,11.8107594 7.06964459,11.0383886 6.98702694,10.2312329 C6.94987548,10.2400471 6.91166648,10.2445572 6.87329257,10.2446578 C6.42992477,10.2446578 6.09436341,9.2465224 6.09436341,8.54448637 C6.09436341,7.84245033 6.32207744,7.62907577 6.53940739,7.62907577 C6.59685753,7.62917245 6.65423089,7.6329315 6.71111276,7.64032575 C6.58128939,7.14375525 6.51147784,6.63558089 6.50294044,6.12499141 C6.50294044,4.32338266 7.02144978,3.07624776 8.60428715,2.85421072 C9.4803525,2.26171195 10.8050595,2 12.4969706,2 C13.5795321,2 12.677711,2.7220235 13.69482,2.93277306 C14.3244064,3.06319779 15.4968679,3.49838438 15.4968679,6.12499141 C15.4883058,6.63557253 15.4185363,7.14374034 15.2888182,7.64032575 C15.3456991,7.63292245 15.4030731,7.62916336 15.4605236,7.62907577 C15.6778127,7.62907577 15.9056902,7.84256283 15.9056902,8.54448637 C15.9056902,9.2464099 15.5700062,10.2446578 15.1266384,10.2446578 C15.0882648,10.2445525 15.0500565,10.2400425 15.012904,10.2312329 C14.9302588,11.0383889 14.6145799,11.8107565 14.0983685,12.4688157 C13.9087593,12.6865565 13.6926591,12.8837212 13.454269,13.056477 C13.4863206,15.0170479 14.0675024,15.7336714 16.4829882,16.4631199 C18.7427945,17.1456184 19.8088804,17.6222425 19.9969796,19.3772013 C20.0141753,19.5362177 19.9574008,19.6945052 19.8406338,19.8130936 C19.7238667,19.9316819 19.5579551,19.9995541 19.3837461,20 L2.61626665,20 C2.44204512,19.999589 2.27610999,19.9317272 2.15933462,19.8131303 C2.04255925,19.6945335 1.9857983,19.5362256 2.00303318,19.3772013 C2.19088703,17.6221675 3.25689123,17.1455434 5.51677924,16.4631199 Z"/>
</svg>
