<svg xmlns="http://www.w3.org/2000/svg" viewBox="0 0 22 22">
  <path fill="#FFA017" d="M18.4999976,19 L3.50000269,19 C2.67157585,19 2.0000032,18.3487778 2.0000032,17.5454545 L2.0000032,12.2863273 C1.99929526,12.0803588 2.1161198,11.8909022 2.30356764,11.7940311 C2.49101548,11.69716 2.71834117,11.7087633 2.8942654,11.8241818 C3.51435353,12.2358302 4.2485245,12.4556082 5.00000218,12.4545455 L9.50000066,12.4545455 L9.50000066,13.2124 C9.50000066,13.5262909 10.098913,13.9090909 11.0000001,13.9090909 C11.9010873,13.9090909 12.4999996,13.5262909 12.4999996,13.2124 L12.4999996,12.4545455 L16.9999981,12.4545455 C17.7514509,12.455598 18.4855949,12.2358203 19.1056599,11.8241818 C19.2815966,11.7087772 19.5089217,11.69718 19.696375,11.7940458 C19.8838284,11.8909116 20.0006713,12.0803565 19.9999971,12.2863273 L19.9999971,17.5454545 C19.9999971,18.3487778 19.3284245,19 18.4999976,19 Z M16.9999981,11.7272727 L12.4999996,11.7272727 L12.4999996,11 C12.4999996,10.7991692 12.3321065,10.6363636 12.1249998,10.6363636 L9.87500053,10.6363636 C9.66789382,10.6363636 9.50000066,10.7991692 9.50000066,11 L9.50000066,11.7272727 L5.00000218,11.7272727 C3.34314849,11.7272727 2.0000032,10.4248284 2.0000032,8.81818182 L2.0000032,7.36363636 C2.0000032,6.56031309 2.67157585,5.90909091 3.50000269,5.90909091 L6.87500155,5.90909091 L6.87500155,4.81818182 C6.87500155,3.81402773 7.71446736,3 8.75000091,3 L13.2499994,3 C14.2855329,3 15.1249988,3.81402773 15.1249988,4.81818182 L15.1249988,5.90909091 L18.4999976,5.90909091 C19.3284245,5.90909091 19.9999971,6.56031309 19.9999971,7.36363636 L19.9999971,8.81818182 C19.9999971,10.4248284 18.6568518,11.7272727 16.9999981,11.7272727 Z M13.6249993,4.81818182 C13.6249993,4.617351 13.4571061,4.45454545 13.2499994,4.45454545 L8.75000091,4.45454545 C8.5428942,4.45454545 8.37500104,4.617351 8.37500104,4.81818182 L8.37500104,5.90909091 L13.6249993,5.90909091 L13.6249993,4.81818182 Z"/>
</svg>
