<svg xmlns="http://www.w3.org/2000/svg" viewBox="0 0 22 22">
  <path fill="#1FB6FF" d="M11,17.6688175 C10.4748862,17.6617883 9.95154718,17.6062102 9.43666667,17.5027932 C9.19353118,17.4611966 8.94422815,17.525789 8.75186667,17.6802192 C7.76776155,18.4032506 6.61231535,18.8574263 5.39933333,18.9980124 C5.25860243,19.0127638 5.12209892,18.94451 5.04944842,18.8230647 C4.97679791,18.7016194 4.98120059,18.5490486 5.06073333,18.4319961 C5.52950972,17.8480735 5.86607962,17.1694095 6.04723333,16.4428044 C6.08381243,16.2444035 6.00628046,16.0422167 5.84643333,15.919161 C4.07728637,14.6046285 3.02424498,12.5385428 3,10.3344087 C3,6.28874888 6.58173333,3 11,3 C15.4182667,3 19,6.28874888 19,10.3344087 C19,14.3800686 15.4183667,17.6688175 11,17.6688175 Z"/>
</svg>
