<svg xmlns="http://www.w3.org/2000/svg" viewBox="0 0 22 22">
  <path fill="#9EA3A8" d="M18.5,19 L3.5,19 C2.67157288,19 2,18.3284271 2,17.5 L2,5.5 C2,4.67157288 2.67157288,4 3.5,4 L18.5,4 C19.3284271,4 20,4.67157288 20,5.5 L20,17.5 C20,18.3284271 19.3284271,19 18.5,19 Z M7.25,5.875 C7.25,5.66789322 7.08210678,5.5 6.875,5.5 L3.875,5.5 C3.66789322,5.5 3.5,5.66789322 3.5,5.875 L3.5,17.125 C3.5,17.3321068 3.66789322,17.5 3.875,17.5 L6.875,17.5 C7.08210678,17.5 7.25,17.3321068 7.25,17.125 L7.25,5.875 Z M16.09475,11.190475 L12.3545,8.569675 C12.2379976,8.48684916 12.0852168,8.47532549 11.9576087,8.53973901 C11.8300005,8.60415254 11.7485383,8.73391643 11.7459875,8.8768375 L11.7459875,14.1184375 C11.7485394,14.2613572 11.8300086,14.3911169 11.9576218,14.4555173 C12.085235,14.5199176 12.2380143,14.508372 12.3545,14.425525 L16.09475,11.8047625 C16.1956519,11.7350577 16.2558776,11.6202365 16.2558627,11.4975991 C16.2558477,11.3749616 16.1955939,11.2601551 16.094675,11.190475 L16.09475,11.190475 Z"/>
</svg>
