<svg xmlns="http://www.w3.org/2000/svg" viewBox="0 0 22 22">
  <path fill="#9EA3A8" d="M18.5,19 L3.5,19 C2.67157288,19 2,18.3284271 2,17.5 L2,5.5 C2,4.67157288 2.67157288,4 3.5,4 L18.5,4 C19.3284271,4 20,4.67157288 20,5.5 L20,17.5 C20,18.3284271 19.3284271,19 18.5,19 Z M10.25405,8.8815625 C10.2518548,8.73886765 10.1707365,8.60915046 10.0434012,8.54471165 C9.91606588,8.48027284 9.76350321,8.49173435 9.647225,8.574475 L5.9166125,11.1952375 C5.81596967,11.2651121 5.75594464,11.3798601 5.75594464,11.5023813 C5.75594464,11.6249024 5.81596967,11.7396504 5.9166125,11.809525 L9.647225,14.430325 C9.76351417,14.5130728 9.91609314,14.5245277 10.0434338,14.4600705 C10.1707744,14.3956132 10.2518822,14.2658708 10.25405,14.1231625 L10.25405,8.8815625 Z M18.5,5.875 C18.5,5.66789322 18.3321068,5.5 18.125,5.5 L15.125,5.5 C14.9178932,5.5 14.75,5.66789322 14.75,5.875 L14.75,17.125 C14.75,17.3321068 14.9178932,17.5 15.125,17.5 L18.125,17.5 C18.3321068,17.5 18.5,17.3321068 18.5,17.125 L18.5,5.875 Z"/>
</svg>
