<svg xmlns="http://www.w3.org/2000/svg" width="22" height="22" viewBox="0 0 22 22">
  <path fill="#6D95A8" d="M17.3618418,3.00000012 L12.4225862,3.00163643 C11.8434735,3.00182749 11.2881593,3.23190651 10.8788231,3.64125179 L3.32037767,11.19944 C2.89320744,11.6266195 2.89320744,12.3188643 3.32037767,12.7460438 L9.25376536,18.6797399 C9.45879087,18.8847894 9.73697205,19 10.0270479,19 C10.3171237,19 10.5953049,18.8847894 10.8003304,18.6797399 L18.3593217,11.1209335 C18.7683559,10.7119251 18.9981757,10.1573922 18.9982896,9.57916593 L18.9999999,4.63685547 C19.0001448,4.20267747 18.8275978,3.78624178 18.5203501,3.47923837 C18.2131023,3.17223497 17.7963461,2.99983607 17.3618418,3.00000012 Z M15.7157144,7.3780382 C15.2729793,7.37840595 14.8736342,7.11219203 14.7039517,6.7035708 C14.5342693,6.29494956 14.6276787,5.82442348 14.9406096,5.51146742 C15.2535404,5.19851136 15.7243422,5.10478081 16.1334115,5.27399598 C16.5424807,5.44321115 16.8092267,5.84203495 16.8092268,6.28443774 C16.8093427,6.57435955 16.6941937,6.85245236 16.4891125,7.05753646 C16.2840313,7.26262056 16.0058177,7.37789577 15.715678,7.37800183 L15.7157144,7.3780382 Z"/>
</svg>
