<svg xmlns="http://www.w3.org/2000/svg" width="22" height="22" viewBox="0 0 22 22">
  <path fill="#5856D6" d="M11.33,18.2725224 C10.7834524,18.2652179 10.2387516,18.2073797 9.70285714,18.0997469 C9.44975522,18.0564769 9.19024141,18.1236918 8.98996735,18.2843878 C7.96569111,19.036808 6.76308411,19.5094401 5.50059592,19.6557327 C5.35415691,19.6710114 5.212151,19.5999624 5.13657608,19.4736047 C5.06100116,19.3472471 5.06558029,19.1885251 5.14831429,19.0667347 C5.6363202,18.459118 5.98669152,17.7528594 6.17525306,16.9966898 C6.21331131,16.7902325 6.13261621,16.5798412 5.96625714,16.4517878 C4.12481537,15.083823 3.02872331,12.9336866 3.00346939,10.6398694 C3.00346939,6.42969796 6.73143061,3.00721633 11.33,3.00721633 C15.9285694,3.00721633 19.6565306,6.42966327 19.6565306,10.6398694 C19.6565306,14.8500755 15.9287082,18.2725224 11.33,18.2725224 Z M7.85856531,9.59905306 C7.4375944,9.59905306 7.058075,9.85263982 6.8969764,10.2415662 C6.73587781,10.6304926 6.82492564,11.0781663 7.12259702,11.3758377 C7.42026841,11.6735091 7.86794206,11.7625569 8.25686847,11.6014583 C8.64579488,11.4403597 8.89938163,11.0608403 8.89938163,10.6398694 C8.89936248,10.0650966 8.43344218,9.59914523 7.85866939,9.59908776 L7.85856531,9.59905306 Z M11.3279531,9.59905306 C10.7531261,9.59905306 10.2871367,10.0650424 10.2871367,10.6398694 C10.2871367,11.2146964 10.7531261,11.6806857 11.3279531,11.6806857 C11.90278,11.6806857 12.3687694,11.2146964 12.3687694,10.6398694 C12.3687502,10.065083 11.9028088,9.59912607 11.3280224,9.59908776 L11.3279531,9.59905306 Z M14.7973408,9.59905306 C14.2225138,9.59905306 13.7565245,10.0650424 13.7565245,10.6398694 C13.7565245,11.2146964 14.2225138,11.6806857 14.7973408,11.6806857 C15.3721678,11.6806857 15.8381571,11.2146964 15.8381571,10.6398694 C15.838138,10.065083 15.3721965,9.59912607 14.7974102,9.59908776 L14.7973408,9.59905306 Z"/>
</svg>
