<svg xmlns="http://www.w3.org/2000/svg" xmlns:xlink="http://www.w3.org/1999/xlink" width="674" height="400" version="1.1" viewBox="0 0 674 400"><title>mask-1</title><desc>Created with Sketch.</desc><g id="source-paths---vectors-to-modify" fill="none" fill-rule="evenodd" stroke="none" stroke-width="1"><g id="paths" fill="#000" transform="translate(-1158.000000, -3708.000000)"><path id="mask-1" d="M1831.66748,3754.69538 C1831.66748,3746.79771 1828.15979,3737.36372 1822.23635,3731.92615 C1816.09968,3726.29324 1808.04243,3722.11077 1799.46712,3722.49503 C1790.95478,3722.87642 1782.81238,3725.74011 1776.6986,3731.92615 C1765.33331,3743.42526 1756.42884,3757.19699 1748.59413,3771.2614 C1745.15585,3777.43456 1741.83206,3783.67284 1738.27642,3789.78018 C1734.98841,3795.43027 1731.56587,3800.95442 1728.61131,3806.7834 C1727.76551,3798.79986 1726.919,3790.81631 1726.0732,3782.83206 C1725.14297,3774.0571 1723.10075,3766.52222 1716.64208,3760.06283 C1711.0571,3754.47785 1701.89431,3750.27249 1693.87284,3750.6317 C1689.7054,3750.81846 1685.73116,3751.71292 1682.08036,3753.19485 C1681.69395,3749.08751 1681.2825,3744.98233 1680.8317,3740.88143 C1679.86569,3732.08859 1677.88286,3724.59449 1671.40057,3718.1122 C1665.81631,3712.52723 1656.65281,3708.32186 1648.63134,3708.68107 C1640.30361,3709.05388 1631.66676,3711.78948 1625.86283,3718.1122 C1620.08036,3724.41131 1616.42955,3732.15728 1616.43098,3740.88143 C1616.43528,3759.87821 1616.66998,3778.92723 1617.2639,3797.97767 C1615.19163,3788.86283 1612.5054,3779.94404 1608.30934,3771.35943 C1605.06068,3764.71614 1596.18197,3758.18233 1589.06497,3756.56086 C1581.86426,3754.92079 1574.93546,3755.29932 1568.09825,3758.18376 C1555.19592,3763.62919 1547.89073,3776.18304 1548.53331,3789.65853 C1545.37911,3783.05388 1542.17267,3776.47499 1538.89968,3769.9283 C1535.57517,3763.27857 1526.83742,3756.76623 1519.65531,3755.12973 C1512.4546,3753.48966 1505.5258,3753.86819 1498.68859,3756.75263 C1494.89467,3758.35406 1491.17946,3760.65388 1488.12615,3763.59843 C1486.09682,3757.90326 1484.02168,3752.22454 1481.87928,3746.57016 C1478.83242,3738.52866 1474.73868,3731.80737 1467.08072,3727.3258 C1460.17911,3723.28644 1450.00665,3721.57553 1442.26855,3724.08 C1434.4775,3726.60093 1426.9605,3731.42955 1423.0249,3738.87785 C1421.94297,3741.44172 1420.86104,3744.0063 1419.77911,3746.57016 C1419.03492,3749.33868 1418.65925,3752.10719 1418.63707,3754.87642 C1415.23814,3754.20522 1411.67964,3754.06927 1408.06748,3754.55513 C1403.61166,3755.15406 1399.19306,3756.81775 1395.22526,3759.28072 C1394.202,3757.79592 1393.02204,3756.39914 1391.64029,3755.13045 C1386.32079,3750.24816 1380.33868,3747.23993 1373.15084,3746.27392 C1358.22991,3744.26962 1341.10648,3753.59699 1337.82132,3769.33939 C1336.60415,3775.16551 1335.47857,3781.00952 1334.42884,3786.8664 C1334.07821,3786.44279 1333.72758,3786.02061 1333.37767,3785.60057 C1322.60129,3772.69252 1309.62597,3761.76301 1299.17875,3748.5766 C1297.0063,3746.8986 1294.83385,3745.21989 1292.6614,3743.54118 C1290.09753,3742.45925 1287.53367,3741.37732 1284.96909,3740.29538 C1277.95585,3738.36408 1270.62132,3739.12544 1264.00308,3741.91828 C1252.39234,3746.81846 1244.09753,3758.45138 1244.20916,3771.34583 C1244.28286,3779.85245 1244.35585,3788.35979 1244.43027,3796.86712 C1244.6063,3817.17338 1244.78161,3837.48107 1244.95764,3857.78805 C1245.10934,3875.28859 1245.26032,3892.78841 1245.41202,3910.28823 C1244.7444,3909.28286 1244.0825,3908.27535 1243.41059,3907.27213 C1235.09932,3894.84995 1226.70576,3882.48286 1218.32651,3870.10719 C1213.5902,3863.11256 1207.42061,3857.60487 1199.08286,3855.30862 C1191.37481,3853.18626 1181.11148,3854.1444 1174.26998,3858.55513 C1167.39556,3862.98733 1161.34261,3869.58841 1159.47213,3877.79878 C1157.62097,3885.92902 1157.87857,3895.46247 1162.71864,3902.61095 C1185.39628,3936.10504 1207.89145,3969.55549 1228.28859,4004.50075 C1235.85138,4017.45674 1243.32902,4030.46283 1250.82168,4043.45961 C1257.66533,4055.33367 1273.7834,4062.59521 1287.18519,4058.25818 C1295.37267,4055.60773 1302.39377,4050.08501 1306.60987,4042.87785 C1309.5122,4046.61166 1312.73796,4050.05853 1316.38089,4053.07678 C1320.64637,4056.61023 1324.51256,4059.36873 1328.77016,4061.6664 C1330.31077,4065.54834 1332.52758,4069.14118 1335.61739,4072.23027 C1346.37374,4082.98733 1362.52258,4084.14225 1375.56587,4077.25066 C1381.10862,4074.32258 1385.22311,4069.53259 1387.92508,4063.99771 C1388.3029,4067.84172 1388.65639,4071.68787 1388.95764,4075.53903 C1389.63242,4084.18519 1392.09324,4092.01345 1398.38805,4098.30826 C1403.97302,4103.89324 1413.13653,4108.09932 1421.158,4107.73939 C1438.77445,4106.95084 1453.1444,4093.59413 1453.35835,4075.53903 C1453.49789,4063.65996 1453.59091,4051.78161 1453.63886,4039.90469 C1454.12758,4041.5605 1454.6156,4043.21631 1455.10504,4044.87141 C1458.51971,4056.4478 1461.78411,4068.08143 1465.35478,4079.60987 C1465.40487,4079.77159 1465.45066,4079.93474 1465.4986,4080.09717 C1467.81846,4087.95692 1473.17875,4095.17553 1480.29646,4099.34082 C1487.19878,4103.38018 1497.37052,4105.09109 1505.10934,4102.58733 C1512.90039,4100.06569 1520.41739,4095.23707 1524.35227,4087.78948 C1525.43492,4085.2249 1526.51685,4082.66104 1527.5995,4080.09717 C1528.52973,4076.63456 1528.88608,4073.17123 1528.68787,4069.70862 C1531.54369,4072.68894 1534.89825,4074.8156 1538.76014,4076.07284 C1545.15871,4078.77195 1552.93188,4079.89395 1559.72687,4077.69574 C1565.0385,4075.97624 1569.82347,4073.18912 1573.93581,4069.41453 C1578.27785,4065.42884 1582.21775,4057.88751 1583.20165,4051.22562 C1586.21631,4058.77267 1589.2732,4066.30326 1592.38805,4073.81023 C1593.38483,4078.00057 1595.30612,4081.65066 1598.15191,4084.7605 C1600.4224,4088.26605 1603.4342,4091.03027 1607.18662,4093.05388 C1614.08894,4097.09252 1624.25996,4098.80415 1631.99878,4096.30039 C1649.0707,4090.77481 1658.68072,4074.25674 1654.48894,4056.68966 C1652.47964,4048.27034 1650.64136,4039.81667 1648.92758,4031.33796 C1649.67177,4031.28644 1650.42025,4031.21631 1651.1766,4031.1147 C1651.88286,4031.01953 1652.59127,4030.89932 1653.30039,4030.76336 C1655.12651,4036.20809 1657.0342,4041.62633 1659.03635,4047.01166 C1661.88716,4054.68107 1666.2571,4062.25245 1673.8342,4066.25531 C1680.33796,4069.69216 1687.04351,4071.06104 1694.36658,4070.07714 C1710.19843,4067.94905 1722.04744,4054.6088 1722.28716,4038.45138 L1722.51971,4022.73474 C1733.98733,4020.37195 1744.36014,4012.07499 1747.04279,4000.09145 C1751.66318,3979.44816 1754.38089,3958.51721 1757.15299,3937.57267 C1761.46569,3906.32329 1769.08787,3875.84243 1780.83385,3846.54225 C1786.01524,3835.20916 1792.61989,3824.75835 1798.64995,3813.84243 C1804.33224,3803.55835 1809.8571,3793.15549 1816.68072,3783.58197 C1818.45174,3781.47249 1820.29431,3779.42884 1822.23635,3777.46462 C1828.06247,3771.56909 1831.66748,3763.00165 1831.66748,3754.69538"/></g></g></svg>