<svg xmlns="http://www.w3.org/2000/svg" xmlns:xlink="http://www.w3.org/1999/xlink" width="1444" height="733" viewBox="0 0 1444 733">
  <defs>
    <path id="mask3-a" d="M1241.39689,491.875547 C1255.08058,500.075209 1265.39293,512.23135 1271.60678,525.562967 C1277.78757,538.894584 1279.86988,553.401678 1278.64694,568.166802 C1277.424,582.960596 1272.86277,597.983752 1262.58347,609.222449 C1252.27113,620.461146 1236.24071,627.886713 1219.51619,631.097769 C1202.82474,634.280155 1185.47222,633.2767 1168.68161,629.520912 C1151.89098,625.736452 1135.66226,619.199659 1124.32528,608.591706 C1112.98831,597.955082 1106.5431,583.275968 1105.221,568.539514 C1103.89891,553.831729 1107.73298,539.123945 1114.50872,525.276265 C1121.28446,511.428585 1131.00187,498.46968 1144.68556,490.270019 C1158.36926,482.070357 1176.01923,478.62994 1193.3387,479.031322 C1210.65815,479.432705 1227.71319,483.675885 1241.39689,491.875547 Z M1083.16331,109.850284 C1122.55236,119.437597 1170.75987,129.538516 1178.69647,153.249996 C1186.73105,176.875874 1154.59272,214.197914 1142.83479,250.835145 C1131.17484,287.472377 1135.22198,426.938568 1095.44099,442.175547 C1055.56202,457.412526 956.471634,444.978232 926.292953,426.060409 C896.114272,407.228188 882.39669,363.742875 847.808786,333.440118 C813.318864,303.137361 757.860638,286.102761 758.938449,264.531306 C759.918276,243.045453 817.434139,216.937146 838.304461,176.019864 C859.272765,135.102582 843.693511,79.3763255 861.624351,61.3145127 C879.653173,43.1670989 931.19209,62.7697299 972.246854,77.0650982 C1013.30162,91.3604666 1043.87223,100.348572 1083.16331,109.850284 Z M1078.9485,494.207178 C1088.51564,516.01871 1070.74047,553.842372 1074.58417,583.855607 C1078.42787,613.868843 1103.86604,636.192307 1108.98258,660.616324 C1114.08693,685.100668 1098.78828,711.735259 1073.82141,722.700922 C1048.86675,733.606257 1014.24386,728.842665 987.610943,719.83366 C961.034994,710.895617 942.392051,697.641199 921.312557,688.677412 C900.245261,679.653297 876.696649,674.788522 860.877252,662.03044 C845.139219,649.222665 837.073436,628.45062 840.855154,609.748995 C844.579907,590.976408 860.070797,574.323934 870.072419,548.492194 C880.074042,522.660453 884.517233,487.638812 904.540414,471.496588 C924.563595,455.354363 960.191164,457.9709 996.412895,462.23388 C1032.56546,466.486225 1069.45052,472.406282 1078.9485,494.207178 Z M1203.69232,100.556933 C1210.34459,82.8739841 1236.17844,78.0721606 1261.49925,74.6230361 C1286.86851,71.1652858 1311.82163,69.0429832 1325.84562,82.1361211 C1339.86961,95.2292583 1367.84123,158.045117 1370.45,173.27177 C1373.09867,188.440867 1381.47272,225.144712 1370.45,235.53324 C1359.37029,245.881462 1286.2775,276.315334 1267.66403,283.56508 C1249.01066,290.872384 1224.76122,294.736186 1207.28327,285.890748 C1189.79679,276.996377 1179.0818,255.392764 1182.65682,235.53324 C1186.24038,215.722649 1204.05696,197.61584 1206.74905,173.27177 C1209.44112,148.927702 1196.99161,118.248509 1203.69232,100.556933 Z M99.0759968,320.787619 C89.7027161,309.552948 70.209124,311.304833 51.4354881,313.915313 C32.6253992,316.529346 14.4623602,320.00908 8.03618644,332.115365 C1.6100121,344.22165 -1.49204297,394.445542 0.698536669,405.786055 C2.84573731,417.093647 6.65499441,444.84683 17.180125,450.024983 C27.7347823,455.163106 87.3487176,462.177419 102.397263,463.608097 C117.489188,465.071697 135.616882,462.97001 145.603811,453.191475 C155.583811,443.376465 157.423049,425.884607 149.644201,412.488315 C141.87228,399.128498 124.511804,389.824216 116.168627,373.065014 C107.825454,356.305812 108.485728,332.018738 99.0759968,320.787619 Z M786.318217,329.466805 C830.629932,346.929946 866.298128,383.383062 874.175766,423.55783 C882.053405,463.732599 862.031073,507.62902 843.10286,544.368416 C824.174645,581.20324 806.340547,610.881038 785.552335,646.570737 C764.654711,682.260436 740.912384,723.962037 703.274779,741.234325 C665.637173,758.506612 614.104289,751.54044 575.263156,730.737354 C536.531434,709.83884 510.382052,675.294265 480.184437,644.089635 C450.096236,612.980432 415.959803,585.306601 396.703354,548.37635 C377.446905,511.350673 372.961027,465.259431 392.545711,428.806315 C412.130395,392.448627 455.566818,365.91992 500.206769,348.552206 C544.846719,331.184491 590.580786,322.977769 639.816026,318.206418 C689.160677,313.339641 742.006501,311.908237 786.318217,329.466805 Z M690.125718,290.538805 C660.352078,293.30392 588.856001,308 569.469185,308 C550.082369,308 536.192762,288.535904 529.76168,269.893511 C523.330598,251.251118 524.628615,231.37617 535.897758,217.818066 C547.166901,204.259962 568.407171,197.018701 580.738328,181.0982 C593.069485,165.1777 596.550529,140.629314 611.536719,125.427804 C626.52291,110.277649 653.073247,104.525727 667.882435,116.234998 C682.632623,127.995626 685.641661,157.217449 699.034831,175.757129 C712.487002,194.245453 736.323305,202.154347 744.937415,215.507025 C753.610525,228.859703 747.061442,247.707522 735.497295,262.446825 C723.933148,277.186127 719.899358,287.773691 690.125718,290.538805 Z M1409.57942,578.378726 C1383.00388,582.088347 1353.62284,567.249864 1318.55991,578.378726 C1283.49699,589.507588 1293.40485,540.37796 1297.27805,521.35473 C1301.15124,502.3315 1320.97273,510.543569 1328.7898,500.47669 C1336.60686,490.409812 1340.55006,481.339375 1350.05022,471.727129 C1359.55039,462.147358 1409.59328,448.875225 1418.08359,460.598267 C1426.6113,472.288836 1436.15495,574.669105 1409.57942,578.378726 Z M719.784248,103.813871 C726.067812,95.8719303 735.383305,89.8866997 745.599589,86.2802146 C755.815873,82.692913 766.932948,81.4843568 778.247757,82.1941438 C789.584537,82.9039307 801.097081,85.5512443 809.709518,91.5172914 C818.321955,97.502522 824.012316,106.806486 826.473012,116.513303 C828.911738,126.200935 828.14277,136.272237 825.264634,146.01742 C822.364528,155.762603 817.355253,165.181668 809.226167,171.761585 C801.07511,178.341502 789.826212,182.082271 778.533374,182.849608 C767.262506,183.616946 755.991637,181.391667 745.379884,177.459064 C734.768131,173.526461 724.837464,167.886532 718.5539,159.944591 C712.270336,152.002651 709.633876,141.758698 709.941463,131.70658 C710.24905,121.654462 713.500684,111.755812 719.784248,103.813871 Z M1157.64982,309.230904 C1160.63185,305.141984 1165.05276,302.060479 1169.90117,300.203675 C1174.74957,298.356747 1180.02547,297.73452 1185.39521,298.099955 C1190.77538,298.46539 1196.23896,299.828363 1200.32622,302.899992 C1204.41348,305.981496 1207.11399,310.771656 1208.28178,315.769225 C1209.43914,320.756917 1209.0742,325.942142 1207.70831,330.959464 C1206.33199,335.976786 1203.9547,340.826205 1200.09683,344.213885 C1196.22853,347.601565 1190.89007,349.527506 1185.53076,349.922571 C1180.18187,350.317635 1174.83299,349.171948 1169.7969,347.147241 C1164.76082,345.122534 1160.04796,342.218808 1157.06593,338.129889 C1154.0839,334.040969 1152.83269,328.766855 1152.97867,323.591507 C1153.12464,318.416159 1154.66779,313.319824 1157.64982,309.230904 Z M1085.14002,458.93503 C1087.80255,455.317909 1091.74979,452.591962 1096.07873,450.949405 C1100.40766,449.315584 1105.11828,448.765153 1109.9127,449.088422 C1114.71642,449.411691 1119.59461,450.617398 1123.24395,453.334608 C1126.89329,456.060555 1129.30446,460.298004 1130.34713,464.71893 C1131.38048,469.131119 1131.05465,473.718048 1129.8351,478.156449 C1128.60624,482.594849 1126.48367,486.88472 1123.03914,489.881514 C1119.5853,492.878308 1114.81882,494.582024 1110.03372,494.931505 C1105.25793,495.280985 1100.48214,494.267492 1095.98563,492.476405 C1091.48913,490.685319 1087.28122,488.116638 1084.61869,484.499517 C1081.95616,480.882395 1080.83902,476.216833 1080.96935,471.63864 C1081.09968,467.060448 1082.4775,462.552152 1085.14002,458.93503 Z M1137.80494,463.319578 C1138.97645,461.746917 1140.71323,460.561723 1142.61797,459.847567 C1144.5227,459.13721 1146.59537,458.897892 1148.70491,459.038444 C1150.81855,459.178996 1152.96495,459.703217 1154.57066,460.884612 C1156.17637,462.069806 1157.23729,463.912175 1157.69606,465.834317 C1158.15074,467.75266 1158.00737,469.746978 1157.47077,471.676717 C1156.93007,473.606456 1155.99614,475.471617 1154.48055,476.774571 C1152.96086,478.077525 1150.86361,478.818271 1148.75816,478.970219 C1146.65681,479.122167 1144.55547,478.681518 1142.577,477.902785 C1140.59854,477.124052 1138.74706,476.007234 1137.57555,474.434573 C1136.40404,472.861911 1135.91249,470.833406 1135.96984,468.842887 C1136.02719,466.852369 1136.63342,464.89224 1137.80494,463.319578 Z M1115.38438,632.455663 C1116.28964,631.197534 1117.6317,630.249378 1119.10354,629.678054 C1120.57537,629.109768 1122.17699,628.918314 1123.80709,629.030755 C1125.44035,629.143197 1127.09894,629.562573 1128.33971,630.50769 C1129.58049,631.455845 1130.40029,632.92974 1130.75479,634.467454 C1131.10613,636.002128 1130.99535,637.597582 1130.5807,639.141373 C1130.16289,640.685165 1129.44122,642.177294 1128.27008,643.219657 C1127.09577,644.26202 1125.47517,644.854617 1123.84823,644.976176 C1122.22447,645.097734 1120.6007,644.745215 1119.07188,644.122228 C1117.54307,643.499241 1116.11238,642.605787 1115.20712,641.347658 C1114.30186,640.089529 1113.92204,638.466724 1113.96635,636.87431 C1114.01066,635.281895 1114.47912,633.713792 1115.38438,632.455663 Z M363.139159,578.775241 C365.21593,575.94445 368.294779,573.811101 371.671348,572.525621 C375.047916,571.246979 378.722204,570.816206 382.461844,571.0692 C386.208746,571.322193 390.013739,572.26579 392.860222,574.392302 C395.706706,576.525651 397.587418,579.841916 398.400699,583.301771 C399.206719,586.754789 398.952569,590.34456 398.00132,593.81809 C397.04281,597.291621 395.387203,600.648911 392.700471,602.994228 C390.006478,605.339545 386.288622,606.672889 382.556243,606.946395 C378.831125,607.219901 375.106008,606.426733 371.598733,605.025013 C368.091459,603.623293 364.809289,601.613021 362.732518,598.782231 C360.655747,595.95144 359.784375,592.30013 359.886035,588.717197 C359.987695,585.134264 361.062388,581.606032 363.139159,578.775241 Z M288.853669,671.121159 C285.658636,675.445979 280.921945,678.705263 275.727224,680.66919 C270.532503,682.622671 264.879754,683.280796 259.126461,682.894278 C253.361997,682.50776 247.508161,681.066154 243.128955,677.817317 C238.74975,674.558033 235.856346,669.491517 234.605145,664.205627 C233.365115,658.930184 233.756115,653.445812 235.219574,648.139029 C236.694205,642.832246 239.241293,637.703052 243.374727,634.119929 C247.519332,630.536806 253.239111,628.499753 258.981232,628.081896 C264.712182,627.66404 270.443132,628.875825 275.838939,631.017341 C281.234745,633.158858 286.284237,636.230106 289.47927,640.554926 C292.674302,644.879745 294.014875,650.458135 293.858475,655.93206 C293.702075,661.405986 292.048701,666.79634 288.853669,671.121159 Z M1309.26645,425.582099 C1325.52215,428.565243 1328.80137,427.497114 1333.66012,430.746707 C1339.62404,434.779237 1342.68476,440.702029 1343.75014,446.406308 C1344.70455,451.636938 1342.62829,457.65172 1340.49176,462.913419 C1337.68701,469.686841 1332.03474,475.150046 1325.02493,479.050676 C1319.40428,482.16941 1313.38031,483.169997 1306.74499,480.305017 C1301.50141,478.09072 1296.93559,475.397218 1293.01076,471.703826 C1289.03203,467.945696 1288.04103,467.980583 1282.86546,470.817105 C1279.3016,472.730625 1275.71744,474.755919 1271.88091,476.001573 C1269.02206,476.924056 1265.2971,477.554955 1262.55042,476.774275 C1254.6743,474.597122 1247.72257,470.943651 1243.63087,464.190887 C1242.81926,462.875637 1241.72106,461.692641 1240.97348,460.386242 C1239.57597,457.958808 1237.53371,457.275497 1234.42566,457.762513 C1229.36923,458.495814 1224.25889,459.164377 1219.16566,459.376993 C1208.10613,459.910701 1185.04256,457.762513 1160.85959,446.791891 C1136.67662,435.821268 1142.57285,393.874544 1153.19028,382.755417 C1163.80771,371.636291 1168.5006,367.016515 1195.65999,369.783103 C1222.81937,372.549691 1248.74712,399.434107 1266.79675,407.773452 C1284.84637,416.112797 1293.01076,422.598954 1309.26645,425.582099 Z M377.506123,147.789423 C410.966806,155.00498 450.327358,165.901943 474.685387,189.462945 C499.127701,213.097575 508.651775,249.396243 496.852037,279.142008 C485.0523,308.887772 451.844468,332.080633 422.766544,354.463585 C393.68862,376.846537 368.65632,398.493207 337.977003,408.948401 C307.297686,419.403595 270.971352,418.667315 234.05503,412.482551 C197.222993,406.22416 159.885253,394.517288 142.438499,370.956285 C125.076028,347.468912 127.688827,312.12741 128.447382,280.393685 C129.121652,248.659961 128.110246,220.534016 137.381468,193.954261 C146.736974,167.448134 166.459392,142.488198 193.43022,132.622028 C220.401049,122.755859 254.620287,127.983456 285.468171,132.401144 C316.40034,136.89246 344.045439,140.500238 377.506123,147.789423 Z M194.451211,598.559395 C172.769392,593.894453 147.264582,586.849439 131.481092,571.616976 C115.642987,556.336912 109.471588,532.869399 117.117569,513.638414 C124.763551,494.40743 146.281527,479.412974 165.12341,464.942135 C183.965293,450.471295 221.105511,433.793215 264.398301,433.793215 C307.691091,433.793215 329.968676,428.770515 341.273806,444.002979 C352.524321,459.18784 356.327561,492.312967 355.836034,512.82919 C355.399121,533.345414 356.054491,551.529166 350.046934,568.713288 C343.984763,585.849809 331.205051,601.986699 313.728522,608.365293 C296.251992,614.743887 274.078646,611.364184 254.089866,608.508097 C234.046472,605.604409 216.133029,603.271938 194.451211,598.559395 Z M1280.52933,300.459145 C1294.12832,297.4932 1305.36376,296.025208 1317.93512,294.197707 C1330.47223,292.400165 1344.37952,290.273074 1355.34092,294.287584 C1366.30233,298.302094 1374.31786,308.458206 1378.12009,319.243458 C1381.88808,330.058668 1381.47702,341.503019 1381.75106,354.415362 C1382.05935,367.327705 1383.12124,381.70804 1376.06483,391.264971 C1368.97417,400.851862 1353.79947,405.615348 1338.8303,408.161866 C1323.82688,410.678425 1309.06324,410.978015 1296.59464,406.723832 C1284.12604,402.46965 1273.95248,393.661694 1262.13472,384.554148 C1250.31695,375.446603 1236.82072,366.009507 1232.0251,353.906058 C1227.22949,341.802609 1231.10024,327.032806 1241.03401,317.415957 C1250.93353,307.829067 1266.93033,303.39513 1280.52933,300.459145 Z M168.308856,615.459145 C181.90785,618.39513 197.904652,622.829067 207.804172,632.415957 C217.737946,642.032806 221.608693,656.802609 216.813077,668.906058 C212.017462,681.009507 198.521231,690.446603 186.703465,699.554148 C174.885699,708.661694 164.712144,717.46965 152.243545,721.723832 C139.774945,725.978015 125.011302,725.678425 110.007877,723.161866 C95.0387065,720.615348 79.8640099,715.851862 72.7733506,706.264971 C65.7169454,696.70804 66.7788316,682.327705 67.0871212,669.415362 C67.3611563,656.503019 66.9501036,645.058668 70.718087,634.243458 C74.5203247,623.458206 82.5358528,613.302094 93.4972588,609.287584 C104.458665,605.273074 118.365949,607.400165 130.903057,609.197707 C143.47442,611.025208 154.709861,612.4932 168.308856,615.459145 Z M207.767082,780.333047 C197.031034,778.019093 184.40198,774.524549 176.586569,766.96878 C168.744116,759.389398 165.688263,747.748791 169.474275,738.209632 C173.260287,728.670473 183.915207,721.232762 193.245022,714.054782 C202.574837,706.8768 210.606591,699.934937 220.450222,696.582064 C230.293853,693.229192 241.949361,693.465309 253.79417,695.448699 C265.611937,697.4557 277.59196,701.209973 283.189849,708.765743 C288.760695,716.297901 287.922364,727.631555 287.678978,737.808232 C287.462634,747.984909 287.787149,757.004609 284.812426,765.528461 C281.810659,774.028702 275.482611,782.033095 266.828869,785.197074 C258.175127,788.361052 247.195693,786.684616 237.297976,785.267909 C227.373215,783.827591 218.50313,782.670613 207.767082,780.333047 Z M1142.24697,693.272241 C1136.25267,691.978417 1129.20145,690.024479 1124.83785,685.799748 C1120.45914,681.561814 1118.75296,675.053087 1120.86682,669.719364 C1122.98067,664.385641 1128.92967,660.226921 1134.13882,656.213426 C1139.34796,652.199931 1143.83236,648.318459 1149.32839,646.443735 C1154.82441,644.56901 1161.33207,644.701033 1167.94543,645.810025 C1174.54368,646.93222 1181.23252,649.031383 1184.35801,653.256114 C1187.4684,657.467643 1187.00033,663.80474 1186.86444,669.494925 C1186.74365,675.18511 1186.92484,680.228383 1185.26395,684.994408 C1183.58796,689.747231 1180.0548,694.222806 1175.22313,695.991912 C1170.39146,697.761018 1164.26128,696.823656 1158.73505,696.031519 C1153.19373,695.22618 1148.24126,694.579268 1142.24697,693.272241 Z M1282.53361,767.594406 C1260.89257,762.941617 1228.4953,758.048505 1212.74149,742.855721 C1196.93317,727.61546 1183.96739,656.333333 1250.04125,641.447761 C1282.7082,634.088328 1288.25731,605.933691 1308.09948,599.191893 C1327.94165,592.450095 1351.43608,592.92487 1375.3121,596.912976 C1399.1336,600.948559 1423.28217,608.497473 1434.56604,623.690257 C1445.7954,638.835563 1444.10554,661.624739 1443.61494,682.08752 C1443.17885,702.550301 1443.83298,720.686686 1437.83673,737.826046 C1431.78595,754.917927 1419.03028,771.012783 1401.58661,777.374761 C1384.14295,783.736739 1362.0113,780.36584 1342.06011,777.517193 C1322.05441,774.621069 1304.17466,772.294674 1282.53361,767.594406 Z M422.362396,63.0299337 C444.013427,59.8638593 461.901432,58.2968125 481.916365,56.3459992 C501.876761,54.4271664 524.01862,52.1565476 541.470333,56.4419409 C558.922045,60.7273341 571.68361,71.5687397 577.737173,83.0817365 C583.736199,94.6267139 583.081759,106.843283 583.518052,120.626899 C584.008882,134.410514 585.699516,149.761177 574.464977,159.962971 C563.1759,170.196747 552.983515,178 515.183691,178 C477.383868,178 457.025589,148.23836 414.377622,138.907829 C371.729654,129.577298 352.773693,133.00337 345.138569,120.083229 C337.503445,107.163088 343.666081,91.3966787 359.481696,81.1309232 C375.242773,70.8971482 400.711366,66.164027 422.362396,63.0299337 Z M317.987828,651.769273 C310.077575,663.680737 304.519019,676.15055 301.09837,689.364829 C298.532882,699.22901 299.922521,708.348724 305.908658,716.630913 C313.177539,726.588152 322.798116,734.311991 332.632484,741.942772 C338.297935,746.316513 345.03234,749.75967 351.766744,752.923653 C362.242483,757.855743 373.46649,760.647492 385.973241,757.948801 C389.286995,757.204335 392.707645,757.390451 396.021399,757.297393 C403.824757,757.204335 411.307428,755.157052 417.721146,751.341661 C427.341724,745.665105 435.893348,738.685732 441.665694,729.472959 C443.162229,727.146502 444.658763,724.913102 446.155297,722.586645 C446.796669,721.935236 447.331145,721.19077 447.972517,720.446304 C447.972517,720.446304 448.079413,720.446304 448.079413,720.446304 C448.079413,720.353245 448.186308,720.260187 448.186308,720.07407 C450.110423,717.747613 451.820748,715.328097 453.317282,712.815522 C464.006813,694.483036 459.303419,675.871375 455.562084,660.516754 C450.431109,648.512233 443.696705,641.253685 436.000243,634.553487 C427.555514,627.20188 415.903926,625.061539 404.786814,622.362849 C390.035262,618.826633 374.535443,619.384983 360.639054,623.200373 C355.72187,623.758723 351.018477,624.968481 346.421978,627.108822 C337.122087,631.575621 329.31873,637.438294 323.011907,644.882959 C322.47743,645.441309 322.049849,646.092717 321.515373,646.651067 C320.44642,648.419174 319.163676,650.094224 317.987828,651.769273"/>
  </defs>
  <g fill="none" fill-rule="evenodd" transform="translate(0 -54)">
    <use fill="#000" fill-rule="nonzero" xlink:href="#mask3-a"/>
  </g>
</svg>
