<svg xmlns="http://www.w3.org/2000/svg" xmlns:xlink="http://www.w3.org/1999/xlink" width="1151" height="826" viewBox="0 0 1151 826"><defs><path id="mask2-a" d="M1185.79544,440.945878 C1198.61263,449.782816 1208.27196,462.883731 1214.09233,477.25148 C1219.88173,491.619229 1221.83218,507.253812 1220.68668,523.16648 C1219.54118,539.110046 1215.26878,555.3008 1205.64041,567.412967 C1195.98108,579.525134 1180.96577,587.527816 1165.30031,590.988435 C1149.66582,594.418155 1133.41213,593.336712 1117.68476,589.289024 C1101.95738,585.210437 1086.75632,578.165605 1076.13724,566.733203 C1065.51817,555.269902 1059.48109,539.449929 1058.24271,523.568159 C1057.00434,507.717287 1060.59563,491.866416 1066.9423,476.942496 C1073.28898,462.018576 1082.39104,448.052506 1095.20823,439.215568 C1108.02543,430.37863 1124.55774,426.670824 1140.78047,427.103401 C1157.00319,427.535979 1172.97824,432.108939 1185.79544,440.945878 Z M1040.5,91.2326523 C1080.7,102.430551 1129.9,114.228338 1138,141.923142 C1146.2,169.517965 1113.4,213.109787 1101.4,255.901758 C1089.5,298.69373 1098.4,340.685852 1086,376.179193 C1073.7,411.572552 1040.1,440.36715 999.5,458.163811 C958.8,475.960472 911.2,482.659215 880.4,460.563361 C849.6,438.567488 835.6,387.777017 800.3,352.383657 C765.1,316.990297 708.5,297.09403 709.6,271.898757 C710.6,246.803465 769.3,216.309186 790.6,168.518153 C812,120.727119 796.1,55.6393301 814.4,34.543288 C832.8,13.3472646 885.4,36.2429691 927.3,52.9398365 C969.2,69.636704 1000.4,80.1347344 1040.5,91.2326523 Z M1026.22242,553.784106 C1036.82029,581.487446 1017.13009,629.528171 1021.38789,667.648688 C1025.6457,705.769206 1053.82448,734.122763 1059.49226,765.144282 C1065.14653,796.242425 1048.19966,830.071646 1020.54296,843.999393 C992.899766,857.850516 954.546736,851.800165 925.044487,840.357616 C895.605342,829.005197 874.953876,812.170448 851.603354,800.785331 C828.266345,789.32359 802.180691,783.144725 784.65697,766.940385 C767.223379,750.672928 758.288618,724.289864 762.477764,700.536489 C766.603808,676.692984 783.76363,655.542285 794.842791,622.732783 C805.921952,589.923281 810.843836,545.441469 833.024242,524.93885 C855.204647,504.43623 894.670601,507.759556 934.794729,513.174067 C974.842241,518.575071 1015.70116,526.094274 1026.22242,553.784106 Z M702.992656,332.649129 C744.530218,351.430498 777.965392,390.635324 785.349847,433.842737 C792.734303,477.05015 773.965478,524.26015 756.222273,563.772867 C738.479067,603.388215 721.76148,635.30628 702.274722,673.690063 C682.685403,712.073845 660.429474,756.923345 625.148187,775.499454 C589.866899,794.075562 541.560252,786.58354 505.150784,764.210106 C468.843878,741.734041 444.331588,704.581823 416.024508,671.021671 C387.819991,637.56415 355.820683,607.801324 337.769792,568.083345 C319.718901,528.262737 315.513863,478.692237 333.87244,439.487411 C352.231017,400.385215 392.948085,371.853955 434.793333,353.175216 C476.638581,334.496477 519.509448,325.670259 565.662295,320.538737 C611.917704,315.304585 661.455093,313.765129 702.992656,332.649129 Z M304.274705,116.494465 C335.674115,124.255952 372.609945,135.977383 395.46745,161.321016 C418.404047,186.743848 427.341411,225.788883 416.268571,257.78522 C405.195731,289.781557 374.033596,314.729196 346.746955,338.805647 C319.460314,362.882099 295.970075,386.166562 267.180692,397.412799 C238.391308,408.659036 204.30278,407.867048 169.660609,401.214344 C135.09753,394.482441 100.059901,381.889824 83.6879168,356.54619 C67.3950239,331.281756 69.846867,293.266306 70.5586925,259.1316 C71.1914262,224.996894 70.2423256,194.742932 78.9424141,166.152146 C87.7215942,137.640559 106.229055,110.792147 131.538403,100.179501 C156.847752,89.5668544 188.958987,95.189973 217.906554,99.9419042 C246.933213,104.773034 272.875295,108.653778 304.274705,116.494465 Z"/></defs><g fill="none" fill-rule="evenodd" transform="translate(-70 -26)"><use fill="#000" fill-rule="nonzero" xlink:href="#mask2-a"/></g></svg>