<svg xmlns="http://www.w3.org/2000/svg" viewBox="0 0 1000 237">
  <path fill="#FBC503BB" d="M193.70049,235.47088 C188.7324,235.13217 180.3619,234.63206 175.09938,234.35954 C156.36381,233.38932 144.77975,232.68269 143.21277,232.41446 C142.33834,232.26478 138.87318,231.95463 135.51242,231.72526 C132.15166,231.49589 128.5681,231.13229 127.54896,230.91728 C126.52982,230.70227 124.14195,230.41419 122.24258,230.2771 C115.97787,229.82495 110.22165,228.95334 105.66218,227.76648 C103.89503,227.30649 102.21065,227.06927 101.91914,227.23933 C101.62762,227.4094 101.55191,227.29953 101.75089,226.99518 C101.99579,226.6206 100.22675,226.37304 96.27538,226.22893 C93.06487,226.11185 90.08385,225.86965 89.65089,225.69073 C89.21793,225.51181 88.72854,224.52788 88.56337,223.50423 C88.22184,221.38762 87.66251,221.0618 82.58364,220.02092 C80.69066,219.63297 77.71748,218.81501 75.97657,218.20323 C74.23567,217.59145 72.18253,216.95368 71.41403,216.78595 C69.21985,216.30706 69.25872,215.13114 71.54264,212.89458 C73.94437,210.54268 75.83782,209.56328 79.69132,208.67958 C82.18992,208.10661 85.60899,205.73103 85.63915,204.54703 C85.64925,204.14932 83.35927,203.37644 80.09796,202.67686 C79.22449,202.4895 76.36079,202.14888 73.73418,201.91992 C71.10756,201.69097 67.61452,201.1186 65.97184,200.64799 C64.14619,200.12496 60.47536,199.7284 56.52879,199.62787 C49.519993,199.44933 46.522903,198.61866 46.080543,196.73204 C45.930693,196.09296 44.622593,195.08172 42.754753,194.16099 C41.061423,193.32628 39.803923,192.44763 39.960323,192.20842 C40.116713,191.9692 39.930223,191.87431 39.545983,191.99756 C37.820083,192.55106 35.250363,191.33044 34.340493,189.52496 C33.348823,187.55715 33.815843,185.74256 35.304203,185.78048 C35.732753,185.79138 36.089843,185.62085 36.097753,185.40149 C36.105753,185.18213 37.727703,184.97477 39.702313,184.94069 C41.676913,184.90669 43.378143,184.65054 43.482833,184.37165 C43.587523,184.09276 44.117833,183.87591 44.661303,183.88976 C45.204773,183.90356 45.803463,183.67933 45.991723,183.39138 C46.179993,183.10343 46.573383,182.87393 46.865943,182.88138 C47.158503,182.88838 47.276013,183.08132 47.127073,183.30913 C46.978123,183.53694 47.557833,183.73186 48.415293,183.7423 C49.336043,183.7535 49.981603,183.47574 49.992093,183.06382 C50.002093,182.68022 50.24545,182.5204 50.53341,182.70867 C50.82136,182.89693 51.06276,182.82308 51.06985,182.54456 C51.09075,181.72395 49.706143,181.38897 47.257483,181.62224 C45.997543,181.74225 43.896483,181.54084 42.588453,181.17419 C41.280423,180.80775 39.852943,180.42916 39.416273,180.33289 C38.979593,180.23659 38.204443,179.96718 37.693693,179.73415 C37.182943,179.50112 36.286973,179.42256 35.702663,179.55956 C34.343813,179.87818 33.898553,179.14254 34.949253,178.3148 C35.394073,177.96437 35.756363,177.88658 35.754343,178.14193 C35.752343,178.39728 35.932623,178.37133 36.155013,178.08423 C36.839013,177.20128 38.988313,176.23783 38.973463,176.82085 C38.965463,177.11589 39.213293,177.36374 39.523113,177.37163 C39.832933,177.37963 39.974333,177.19383 39.837323,176.95897 C39.483913,176.35316 43.754873,176.36642 44.824583,176.97447 C45.395933,177.29924 45.934603,177.26902 46.333623,176.88977 C47.050153,176.20884 49.194263,175.98311 48.769123,176.63337 C48.273703,177.39112 49.984583,177.13965 50.67134,176.35377 C51.16033,175.79421 51.66557,175.73876 52.63961,176.13777 C54.32327,176.82747 54.8954,176.82622 53.89447,176.13577 C53.3065,175.72975 53.57618,175.61653 54.97052,175.68398 C55.99387,175.73348 58.63331,175.54877 60.83594,175.27351 C63.03855,174.99824 65.48163,174.75719 66.26497,174.73783 C68.59409,174.68033 67.9698,172.8871 64.86182,170.70749 C63.08615,169.46222 62.24644,168.53536 62.44927,168.04455 C62.6474,167.56512 62.97487,167.47151 63.35095,167.78682 C63.67576,168.05913 64.42517,168.10117 65.01628,167.88022 C65.60741,167.65928 66.98359,167.48442 68.07446,167.49163 C69.6097,167.50183 70.27469,167.19153 71.01744,166.11858 C72.22394,164.37572 72.39786,163.38854 71.73178,162.06393 C71.44258,161.48883 71.42228,161.15972 71.68668,161.33257 C71.95106,161.50542 72.50648,160.77003 72.92096,159.69836 C73.33543,158.6267 73.94451,157.5808 74.27445,157.37412 C74.60439,157.16747 73.91707,156.96665 72.74707,156.92788 C71.17582,156.87588 70.83178,156.72793 71.43081,156.36208 C72.04586,155.98646 71.82242,155.85413 70.50606,155.8144 C69.55139,155.7858 68.36018,155.5348 67.85892,155.25706 C67.35765,154.97933 64.74862,153.8109 62.06106,152.66057 C56.67125,150.35362 53.53637,149.77925 42.077413,148.9992 C33.295973,148.40142 32.309463,148.26768 30.933213,147.48847 C29.532223,146.69525 22.290653,145.4119 17.691293,145.14174 C15.280463,145.00014 13.137203,144.51446 11.602213,143.76194 C10.299393,143.12323 8.042133,142.40898 6.586083,142.17471 C3.690493,141.70882 -0.016147,140.29018 5.30000001e-05,139.65404 C0.006053,139.4333 1.398143,138.83609 3.094413,138.32692 C5.701063,137.54448 7.908093,137.43923 17.349933,137.64716 C24.892133,137.81325 29.185223,137.68966 30.564923,137.26673 C32.557333,136.65599 34.465833,136.79703 39.330153,137.91449 C40.583993,138.20253 44.150163,138.54657 47.254953,138.67902 C50.35975,138.81147 53.35571,139.17885 53.91266,139.49542 C54.50815,139.83392 55.72809,139.92485 56.87427,139.7162 C57.94622,139.52106 59.03341,139.41772 59.29025,139.48654 C60.23912,139.74082 76.43593,139.98726 78.24057,139.77487 C81.29998,139.41482 85.13927,139.19468 90.42995,139.07594 C93.17378,139.01434 95.68449,138.71144 96.00931,138.40275 C96.58657,137.85418 95.61218,137.54989 93.86148,137.73204 C93.49457,137.77024 93.20139,137.52597 93.20997,137.18929 C93.21897,136.8526 92.88068,136.6995 92.45915,136.84906 C92.03762,136.99861 91.40623,136.75726 91.05605,136.3128 C90.54478,135.66381 90.32968,135.63835 89.96404,136.18355 C89.59293,136.7369 89.5105,136.73283 89.51842,136.16155 C89.52442,135.71851 89.15688,135.5681 88.51917,135.75276 C87.84732,135.9473 87.39812,135.72896 87.17469,135.0992 C86.99014,134.57905 87.09869,134.07425 87.41587,133.97742 C88.23603,133.72705 89.60722,132.35564 89.62211,131.77082 C89.64291,130.95522 87.56266,129.0323 87.00898,129.35529 C86.72606,129.52035 86.63944,129.30489 86.8165,128.87638 C87.06121,128.28421 86.8498,128.16505 85.93488,128.37956 C84.97907,128.60367 84.80431,128.48517 85.08585,127.80387 C85.61039,126.53456 84.49329,126.09417 83.58046,127.21042 C83.0802,127.82217 82.89689,127.88568 83.07939,127.38402 C83.40101,126.50001 80.94956,125.01188 80.04296,125.54077 C79.73059,125.723 79.66495,125.60057 79.89026,125.25595 C80.10761,124.92353 80.03195,124.64507 79.72213,124.63718 C79.4123,124.62918 79.14966,124.98188 79.13848,125.42072 C79.10978,126.54688 78.05726,126.3925 78.04063,125.25968 C78.02903,124.46849 77.95833,124.48677 77.57189,125.38081 C77.3216,125.95993 77.18665,126.56546 77.27201,126.72642 C77.35741,126.88738 76.96417,127.04212 76.39824,127.07028 C75.15382,127.13218 75.09181,126.71008 76.22956,125.9218 C76.89064,125.46378 76.42171,125.35585 74.07168,125.42519 C72.29801,125.47749 71.20048,125.31292 71.39,125.02308 C71.56805,124.75074 71.23393,124.64419 70.63914,124.78366 C70.016,124.92977 69.57414,124.77316 69.58339,124.40958 C69.59239,124.06563 69.31487,123.95017 68.96721,124.15298 C68.52312,124.41206 68.4641,124.22198 68.76878,123.514 C69.0073,122.95975 69.26547,122.18155 69.34248,121.78468 C69.58207,120.54988 70.94534,120.22245 72.59766,121.00286 C73.46546,121.41273 73.87578,121.7599 73.50947,121.77434 C72.20234,121.82594 72.84283,122.86514 74.20309,122.89979 C75.20375,122.92529 75.51193,122.7156 75.31006,122.14662 C75.1562,121.71296 75.27466,121.21561 75.57325,121.0414 C75.92013,120.83903 75.87458,120.41134 75.4471,119.85695 C74.8815,119.12344 74.90765,119.04149 75.61608,119.32712 C76.07703,119.51296 76.79761,119.43381 77.21738,119.15123 C77.82018,118.74543 77.78194,118.69588 77.03546,118.91552 C76.23869,119.14996 76.15176,118.96762 76.48167,117.75402 C76.69691,116.96224 77.06979,116.19111 77.31029,116.04039 C78.09307,115.54984 77.27169,113.44691 76.4159,113.75054 C75.86086,113.94746 75.68241,113.73214 75.82128,113.03322 C75.96645,112.30267 75.73328,112.05881 74.95288,112.12494 C74.36612,112.17464 74.19013,112.08984 74.5618,111.93645 C74.93347,111.78306 75.11753,111.45182 74.97084,111.20037 C74.82415,110.94892 75.19394,110.41839 75.79258,110.02142 C76.39122,109.62444 76.72699,109.13757 76.53874,108.93947 C76.35047,108.74137 76.65533,108.58731 77.21618,108.59711 C78.05327,108.61171 78.09778,108.52261 77.46469,108.09927 C76.95861,107.76089 76.55599,107.79389 76.29358,108.19527 C76.07364,108.53168 75.74547,108.65095 75.56431,108.46032 C75.23219,108.11083 76.27647,105.88132 76.99492,105.40604 C77.58218,105.01754 78.31626,102.59614 77.74591,102.92888 C77.47638,103.08611 76.98786,102.76024 76.6603,102.20473 C76.13029,101.3059 76.22356,101.20952 77.50753,101.32927 C78.41689,101.41407 78.90744,101.21675 78.8343,100.79554 C78.7705,100.42798 78.897,100.16017 79.11559,100.2004 C80.20838,100.40159 80.84794,100.1032 80.86627,99.38356 C80.87747,98.94473 81.14009,98.59213 81.44992,98.60003 C81.75974,98.60803 81.88351,98.392 81.72496,98.12022 C81.5664,97.84844 81.74046,97.5125 82.11176,97.37369 C82.51902,97.22144 82.41798,97.09525 81.85704,97.05561 C81.34565,97.01951 80.93192,96.80623 80.93764,96.58174 C80.94364,96.35725 80.11036,96.19162 79.08653,96.21366 C78.0627,96.23566 77.36319,96.0424 77.53208,95.78409 C77.70096,95.52578 77.33215,95.30152 76.7125,95.28573 C76.09286,95.26993 75.73991,95.02143 75.92816,94.73348 C76.11643,94.44553 75.99136,94.20282 75.65023,94.19414 C75.29371,94.18514 75.18192,93.81074 75.3873,93.31375 C75.68604,92.59083 75.60905,92.55594 74.9174,93.10082 C74.23888,93.63535 74.09388,93.60852 74.11062,92.9515 C74.12182,92.51096 74.61294,92.03752 75.20195,91.89942 C75.84658,91.74827 76.28429,91.20096 76.30152,90.52453 C76.32562,89.57813 76.09801,89.44375 74.85946,89.67316 C73.65262,89.8967 73.55524,89.84534 74.31666,89.38687 C75.17877,88.86776 75.16598,88.73306 74.13602,87.48572 C73.52635,86.74739 72.67176,86.13422 72.23691,86.12315 C70.63625,86.08235 72.0823,85.55897 74.2346,85.40008 C75.5306,85.30438 76.32257,85.43988 76.13599,85.72522 C75.96012,85.99422 76.05559,86.22042 76.34814,86.22787 C76.6407,86.23487 77.00735,86.04674 77.16291,85.8088 C77.31848,85.57087 78.23413,85.44098 79.19768,85.52017 C80.16124,85.59937 81.23305,85.45367 81.57948,85.19642 C81.96646,84.90904 82.33712,84.9477 82.5407,85.29668 C82.76504,85.68122 83.19669,85.70142 83.87721,85.35918 C84.43005,85.08118 85.43839,84.88822 86.11798,84.93038 C88.00614,85.04752 94.53859,84.63125 94.99554,84.36468 C95.3515,84.15702 101.17661,83.56497 102.95944,83.55525 C103.89318,83.55025 103.85526,81.0483 102.91024,80.30977 C102.48034,79.97379 102.0923,79.03389 102.04795,78.22109 C101.99785,77.30311 101.71722,76.83201 101.30713,76.97752 C100.92057,77.11466 100.76911,76.91612 100.9417,76.49849 C101.13427,76.03252 100.68604,75.64957 99.64884,75.39391 C97.90477,74.96402 96.68626,73.77152 97.19537,72.99283 C97.37881,72.71226 97.05326,72.60478 96.44907,72.74645 C95.68565,72.92545 95.38406,72.73605 95.40057,72.088 C95.41327,71.58765 94.94819,71.04089 94.36698,70.87297 C93.1868,70.53201 93.01288,69.87718 93.95633,69.32679 C94.34748,69.0986 94.42957,69.19315 94.17644,69.58031 C93.95443,69.91988 93.97097,70.16846 94.21324,70.13273 C95.35291,69.96452 95.97842,70.3003 95.95881,71.06979 C95.93091,72.16639 97.21885,71.77342 97.47605,70.60688 C97.58473,70.11395 97.47505,69.74019 97.23107,69.77629 C95.75796,69.99486 94.93278,69.55817 94.95786,68.57333 C94.97316,67.97095 95.22136,67.63213 95.50931,67.82039 C95.79727,68.00865 96.04541,67.66983 96.06076,67.06745 C96.07606,66.46506 96.4221,65.9807 96.82963,65.99108 C97.23718,66.00148 97.72263,65.64211 97.90842,65.19251 C98.09421,64.74292 98.02428,64.50455 97.75301,64.6628 C97.48174,64.82105 97.16405,64.6457 97.04702,64.27325 C96.92999,63.90076 96.88649,64.01648 96.95032,64.53041 C97.01422,65.04435 96.84948,65.45931 96.58431,65.45256 C96.31913,65.44556 96.10944,65.15516 96.11832,64.80669 C96.12732,64.45821 95.78402,64.6276 95.3557,65.1831 C94.78405,65.92447 94.73737,66.29797 95.18015,66.58747 C95.52641,66.81385 95.31509,66.93455 94.684,66.87081 C93.70801,66.77221 93.0552,65.36266 93.99664,65.38665 C94.20388,65.39165 94.53534,64.6818 94.73323,63.8086 C95.01902,62.54757 95.36934,62.22799 96.43615,62.25517 C97.17485,62.27397 97.78535,62.05002 97.7928,61.75746 C97.7998,61.4649 98.28508,61.23773 98.8702,61.25264 C99.99685,61.28134 100.28069,62.0637 99.35944,62.60113 C98.37593,63.17489 99.28214,63.79894 100.95432,63.69945 C103.13145,63.56993 103.66477,62.98535 101.71216,62.86878 C100.19122,62.77798 100.18726,62.76978 101.50151,62.43159 L102.84097,62.08695 L101.66072,61.40544 C100.30085,60.62021 100.12129,59.6877 101.3359,59.71863 C101.79201,59.73023 102.01115,59.97536 101.82288,60.26331 C101.63462,60.55127 101.73408,60.79332 102.0439,60.80121 C102.35372,60.80921 102.61941,60.33683 102.63432,59.75171 C102.65082,59.10725 103.01603,58.6969 103.56097,58.71078 C104.34357,58.73078 104.32879,58.63168 103.4473,57.94907 C102.63813,57.32245 102.37702,57.30112 102.15067,57.84314 C101.97853,58.25535 101.4797,58.37213 100.88027,58.14055 C99.95274,57.78223 99.94895,57.70638 100.81727,56.88117 C101.32548,56.39822 102.08323,56.01179 102.50117,56.02243 C103.18772,56.03993 103.51151,55.40208 103.36809,54.31464 C103.33899,54.09434 103.68844,53.9236 104.14454,53.93522 C104.60064,53.94682 104.84178,53.73001 104.6804,53.45338 C104.29846,52.79868 105.3239,52.20428 106.03417,52.66865 C106.40946,52.91401 106.38002,53.26001 105.94117,53.76224 C105.4796,54.29042 105.46697,54.50118 105.89617,54.51211 C106.51995,54.52801 106.70531,53.88847 106.56809,52.19378 C106.46084,50.86918 107.48283,50.31251 109.92595,50.36476 C111.10097,50.38986 111.87235,50.16517 111.80282,49.81799 C111.72732,49.44119 112.83624,49.25004 114.87686,49.28808 C116.63251,49.32078 118.37475,49.12022 118.74849,48.84231 C119.12223,48.56442 120.1211,48.49411 120.96819,48.68608 C122.06463,48.93457 122.7149,48.77858 123.22526,48.14451 C123.61956,47.65467 123.72469,47.42933 123.45889,47.64375 C123.1931,47.85818 122.32573,46.99776 121.53142,45.73171 C120.7371,44.46567 120.08067,43.6464 120.07266,43.91114 C120.06466,44.17587 119.59043,43.94694 119.0188,43.40259 C118.44718,42.85817 117.99343,42.1508 118.01049,41.83067 C118.02749,41.51054 118.27482,41.67373 118.55997,42.1933 C118.84512,42.71287 119.47347,43.14804 119.95628,43.16034 C120.60508,43.17684 120.68239,43.02303 120.25258,42.57075 C119.93273,42.23419 119.81425,41.61228 119.98927,41.18875 C120.2495,40.55902 120.38616,40.55007 120.73918,41.13965 C121.05694,41.67036 121.1757,41.57982 121.18918,40.79654 C121.21218,39.46598 120.00386,37.72217 119.41178,38.23126 C119.1689,38.44007 119.15251,38.31226 119.37538,37.94724 C119.59822,37.58221 119.99985,37.42693 120.26791,37.60219 C120.53596,37.77744 120.76138,37.68149 120.76883,37.3889 C120.77583,37.09634 120.55707,36.70967 120.28169,36.52964 C119.60897,36.08981 120.27669,34.55058 121.5016,33.71551 C122.04756,33.34345 122.34693,32.7865 122.16685,32.47782 C121.95373,32.11248 122.27702,32.06142 123.09315,32.33153 C124.11727,32.67047 124.22834,32.61551 123.69971,32.03141 C122.91335,31.16253 122.88944,29.55412 123.65941,29.31907 C124.18822,29.15765 124.33315,28.24131 124.16827,26.10195 C124.12537,25.54557 123.64888,25.15396 122.98837,25.13227 C122.3516,25.11127 122.12735,24.93589 122.46108,24.71965 C123.29904,24.17668 123.84062,22.5842 123.30617,22.23477 C123.05539,22.0708 122.73519,22.23459 122.59461,22.5988 C122.45404,22.96298 122.20281,23.13077 122.03633,22.97168 C121.86985,22.81258 121.95413,22.34522 122.22355,21.93307 C122.63681,21.30098 122.88106,21.34335 123.78452,22.20382 C124.83051,23.20003 124.85716,23.20021 124.92338,22.21182 C124.96098,21.65086 125.10324,21.49905 125.24254,21.87132 C125.38078,22.24077 125.73893,22.54929 126.0384,22.55693 C126.33788,22.56493 126.45531,22.21113 126.29935,21.77155 C126.14339,21.33197 126.18577,21.01244 126.39355,21.06151 C126.60133,21.11061 127.45679,20.88824 128.29459,20.56746 C129.13239,20.24669 130.03368,20.12534 130.29747,20.29781 C130.56127,20.4703 130.78391,20.34381 130.79224,20.0167 C130.80024,19.68961 131.02671,19.56538 131.29477,19.74063 C131.56282,19.91589 131.92889,19.83483 132.10824,19.56049 C132.2876,19.28617 132.84846,19.07429 133.35462,19.08965 C134.82364,19.13425 135.73939,18.86444 138.19183,17.66455 C139.45829,17.04493 140.82622,16.54641 141.23167,16.55673 C141.63711,16.56703 142.07345,16.28647 142.20128,15.93319 C142.44987,15.24629 147.41943,15.03746 147.40218,15.71465 C147.39718,15.93048 148.0551,15.94069 148.86534,15.73725 C150.46207,15.33646 153.84378,15.5058 156.29134,16.10909 C157.56111,16.42208 157.9523,16.26599 158.55483,15.20593 C158.95546,14.5011 159.14704,13.69089 158.98054,13.40549 C158.55127,12.66964 154.96213,12.07577 149.09945,11.77054 C146.32203,11.62594 143.52805,11.20617 142.89061,10.83772 C142.25317,10.46927 141.54161,10.19457 141.30936,10.22728 C141.0771,10.25998 140.01809,10.23628 138.95601,10.17448 C137.50244,10.09008 136.96284,9.79744 136.77383,8.99133 C136.56986,8.12141 136.78803,7.92397 137.93615,7.93947 C139.28621,7.95767 139.30472,7.92277 138.34899,7.16056 C137.45416,6.44693 137.86328,6.38882 142.21952,6.61075 C144.89864,6.74724 147.08799,7.00555 147.08476,7.18477 C147.08176,7.364 147.7391,7.45065 148.54603,7.37734 C152.1585,7.04915 157.6666,6.73485 159.70225,6.74077 C160.92564,6.74477 161.81452,6.55513 161.67755,6.32035 C161.54059,6.08557 161.86244,5.86906 162.39279,5.83923 C164.48983,5.72126 164.99339,5.63635 165.92179,5.24414 C166.45228,5.02003 167.36753,3.94992 167.9557,2.86613 C169.04133,0.86567 170.78118,-0.26883 171.11026,0.80916 C171.23609,1.22135 171.53188,1.20832 172.09355,0.76586 C172.60279,0.36468 173.02321,0.32808 173.24194,0.66586 C173.60603,1.22815 182.18857,1.45147 182.75478,0.91352 C182.93649,0.74083 183.36173,0.84122 183.69976,1.13662 C184.35209,1.70667 187.56426,1.6996 188.5476,1.12592 C188.86972,0.93801 189.95363,1.03342 190.95629,1.33794 C191.95896,1.64248 197.19364,2.12545 202.58893,2.41121 C207.98421,2.69698 215.50728,3.12854 219.30685,3.37023 C239.78519,4.67289 246.03916,4.96898 258.78024,5.23907 C268.78943,5.45124 272.74046,5.70426 272.72955,6.13237 C272.71855,6.56436 272.91117,6.57458 273.42565,6.16927 C274.14406,5.60331 277.35,5.53476 286.57478,5.88813 C289.35318,5.99456 291.86628,6.06773 292.15947,6.05072 C292.45264,6.03372 295.33137,5.85853 298.55661,5.66142 C301.78186,5.46432 304.8163,5.43696 305.2998,5.60062 C305.78331,5.7643 306.3097,5.69812 306.46956,5.45363 C306.62943,5.20912 308.75055,5.00705 311.18315,5.0046 C313.61576,5.0026 316.98103,4.79332 318.66154,4.54051 C320.34205,4.28772 324.7792,4.05181 328.52187,4.01626 C332.26456,3.98056 337.00462,3.90339 339.05536,3.8446 C341.10609,3.7858 343.22586,3.97996 343.76596,4.27604 C344.30605,4.57212 344.62068,4.59621 344.46511,4.32954 C344.3049,4.0549 346.41495,3.92139 349.33222,4.02158 C352.16469,4.11888 355.32692,3.93378 356.3594,3.61028 C357.77679,3.16619 358.32869,3.17526 358.61245,3.64738 C358.86946,4.07494 358.99554,4.08749 359.01132,3.68698 C359.02532,3.32652 360.51799,3.09328 362.89388,3.08016 C368.17283,3.05106 384.24061,3.40515 387.49753,3.62239 C388.95878,3.71989 392.31244,3.70549 394.95011,3.59059 C401.31359,3.3132 411.18911,3.40294 411.18052,3.73809 C411.16992,4.15191 413.72653,4.02841 417.99829,3.40876 C420.14123,3.09792 422.53816,3.03028 423.32481,3.25849 C425.1671,3.79291 428.73929,4.01629 428.74943,3.5977 C428.75343,3.42026 429.41548,3.29251 430.22,3.3138 C445.09948,3.70763 473.18496,3.4248 474.13315,2.87164 C474.36181,2.73826 474.54345,2.84114 474.53686,3.10032 C474.52986,3.35948 475.24267,3.48477 476.12006,3.37875 C476.99741,3.27272 478.13256,3.37375 478.64257,3.60363 C479.81645,4.1323 481.93974,4.34773 481.68578,3.9124 C481.58041,3.73175 485.61069,3.73893 490.64199,3.9284 C495.67328,4.11784 499.78871,4.31383 499.78744,4.36395 C499.78744,4.41405 501.28007,4.5405 503.10727,4.64492 C504.93437,4.74934 506.43315,4.68052 506.43784,4.49184 C506.44284,4.30323 507.28056,4.35952 508.30014,4.61693 C509.31982,4.87435 510.26225,4.91938 510.39457,4.71702 C510.52685,4.51464 512.80356,4.41793 515.4538,4.50211 C518.3268,4.59331 520.28119,4.44041 520.29413,4.12342 C520.30733,3.8099 520.47011,3.8333 520.69184,4.18042 C521.15795,4.91011 525.17753,4.97507 525.73002,4.26192 C525.9996,3.91393 526.13246,3.91732 526.1287,4.27212 C526.1287,4.56482 527.02143,4.79913 528.11952,4.79288 C529.21767,4.78688 530.66513,5.00318 531.33613,5.27409 C532.06572,5.56872 532.95449,5.5663 533.54755,5.26809 C534.50336,4.78748 536.73657,4.63966 548.22573,4.29652 C551.15536,4.20902 555.9516,3.98306 558.88388,3.79437 C561.81615,3.60568 568.40497,3.52708 573.52572,3.6197 C578.64648,3.7124 583.79819,3.6327 584.97402,3.44286 C586.14985,3.25296 592.61845,3.19345 599.34867,3.31062 C615.15517,3.58578 627.05053,3.45826 631.78866,2.96285 C633.86396,2.74587 638.32372,2.27926 641.69936,1.92594 C645.07489,1.57263 650.7162,1.08105 654.23549,0.83354 C657.75478,0.58602 661.7144,0.29109 663.03461,0.17812 C667.35985,-0.19197 671.76049,0.01937 675.31782,0.76803 C677.56104,1.24012 684.38247,1.64113 694.34414,1.88648 C702.8853,2.09687 710.03872,2.3728 710.24063,2.4997 C710.44253,2.62662 719.4603,3.11224 730.28008,3.57887 C741.09985,4.04551 751.8645,4.58873 754.20146,4.78604 C767.32266,5.89385 777.28413,6.34992 799.12578,6.84289 C802.1979,6.91219 805.54731,7.06546 806.5689,7.18341 C808.77842,7.43851 819.00605,8.16145 828.61836,8.74199 C849.39302,9.99667 857.14419,10.4008 871.14346,10.95918 C879.62451,11.29745 887.39805,11.72515 888.41797,11.90962 C889.43789,12.09409 892.18511,12.38147 894.5228,12.54824 C898.84907,12.85686 903.78833,13.56677 904.4251,13.97146 C904.61865,14.0945 906.40825,14.36157 908.40195,14.56494 C910.3957,14.76832 913.45732,15.19891 915.20556,15.52179 C916.95381,15.84469 919.09985,16.22551 919.97441,16.36807 C920.84902,16.51062 923.50659,17.18122 925.88012,17.85829 C928.25366,18.53535 930.69433,19.10203 931.30381,19.11756 C931.91338,19.13306 932.40693,19.34526 932.40068,19.58905 C932.39468,19.83285 932.68857,20.04264 933.05415,20.05526 C936.64604,20.17917 945.23008,21.21638 946.57651,21.68914 C947.5146,22.01853 948.76997,23.01146 949.36626,23.89565 C950.5437,25.64172 953.7312,27.43074 956.6709,27.99563 C960.349,28.70235 966.7159,29.45747 968.0505,29.34527 C968.8004,29.28227 969.4074,29.48884 969.3994,29.8044 C969.3894,30.11996 969.5506,30.22049 969.7534,30.02782 C969.9562,29.83513 970.6091,30.15896 971.2043,30.74741 C971.7996,31.33588 973.8824,32.70152 975.8328,33.78218 C978.6742,35.35652 980.128,35.80862 983.1479,36.05699 C987.1364,36.38505 987.8413,36.85889 987.3944,38.91145 C987.1097,40.21958 984.9657,41.243 982.6344,41.18361 C981.9639,41.16651 981.2612,41.38815 981.073,41.67611 C980.8848,41.96406 979.9188,42.17898 978.9266,42.1537 C976.1253,42.0823 971.7216,43.05407 971.7193,43.74408 C971.7193,44.87879 975.7383,46.36768 979.6981,46.69719 C981.8432,46.87569 986.826,47.24541 990.7711,47.5188 C998.7391,48.07097 999.5733,48.23699 999.9679,49.34897 C1000.5496,50.98846 993.1034,56.3245 987.0358,58.6163 C985.0781,59.35576 984.0844,60.11204 983.4011,61.38246 C982.2285,63.56272 982.7376,64.62689 985.894,66.59398 C987.1188,67.35723 988.1115,68.34776 988.1001,68.79517 C988.0891,69.24257 988.4293,69.97682 988.857,70.42683 C990.0697,71.70296 989.7388,72.98344 987.9371,73.98674 C987.0291,74.49238 985.235,75.84986 983.9502,77.00333 C981.9944,78.75922 981.1889,79.12161 979.0007,79.22986 C977.0754,79.32506 976.1452,79.66292 975.468,80.51281 C974.9624,81.14733 974.6591,81.85563 974.7939,82.08681 C974.9289,82.318 974.794,82.5009 974.4945,82.49327 C974.195,82.48527 973.656,83.01083 973.2967,83.66036 C972.9376,84.3099 972.8285,84.6778 973.0545,84.47794 C973.6169,83.98046 975.0469,85.56246 974.6221,86.21222 C974.4244,86.51466 974.6871,86.63118 975.2465,86.48957 C975.7774,86.35525 975.2465,86.69733 974.0571,87.24982 C972.8721,87.80227 971.1399,88.24114 970.208,88.22508 C969.276,88.20898 967.8936,88.41367 967.1359,88.67987 C966.1228,89.03581 965.7584,88.99131 965.7586,88.51173 C965.7587,88.15304 965.5097,88.26333 965.2049,88.75681 C964.1582,90.45181 965.1189,92.3357 967.751,93.75549 C969.1155,94.49118 970.5897,95.67077 971.0271,96.3768 C971.4644,97.08283 972.7575,97.96688 973.9006,98.34137 C978.1609,99.73695 978.7565,102.51102 975.0048,103.48431 C972.673,104.08924 971.5246,105.78069 972.1796,107.64525 C972.5205,108.61543 972.5018,109.05597 972.1196,109.04625 C971.137,109.02125 970.1642,110.32289 970.1873,111.632 C970.2103,112.92663 970.1683,112.94757 965.6608,113.86927 C964.9251,114.01972 963.5891,114.75167 962.6919,115.49581 C961.7946,116.23995 960.3936,117.17468 959.5784,117.573 C958.7631,117.97131 958.0874,118.64169 958.0767,119.06273 C958.0517,120.0505 956.1196,121.02434 953.8192,121.20888 C951.3041,121.41063 950.2652,122.03831 950.1235,123.44181 C950.0054,124.6117 952.0483,127.16439 953.1245,127.1918 C953.7822,127.2086 956.7248,130.34282 956.7079,131.0086 C956.6849,131.91884 954.7516,132.49498 951.0324,132.70018 C949.00431,132.81207 946.14156,133.12765 944.67086,133.40148 C942.23546,133.8549 933.54415,135.1074 931.5631,135.29043 C930.73453,135.36693 930.32462,137.2564 931.13209,137.27697 C931.37223,137.28297 931.31793,137.72925 931.01148,138.26846 C930.70499,138.80765 930.61705,139.42018 930.81612,139.62962 C931.48302,140.33142 931.06959,147.08328 930.31388,147.83204 C929.91935,148.22291 928.49376,148.58889 927.14586,148.64533 C924.97057,148.73643 923.5149,149.53526 923.99142,150.3764 C924.08362,150.5391 923.81729,150.97235 923.39952,151.3392 C922.98185,151.70603 922.64454,151.82917 922.65001,151.61285 C922.65501,151.39652 922.3713,151.4939 922.01847,151.82924 C921.55016,152.27426 921.19078,152.27636 920.6881,151.83724 C920.18512,151.39775 919.56393,151.40277 918.38619,151.85584 C915.6712,152.90026 916.51378,154.52387 920.16153,155.27683 C924.24146,156.119 925.14879,156.50193 924.50777,157.1111 C924.3338,157.27645 920.54713,157.39601 916.09288,157.37679 C906.62018,157.33589 905.52628,157.74236 904.65475,161.62661 C904.37286,162.88286 903.5525,164.79443 902.8315,165.87452 C901.64044,167.65892 900.69811,169.98771 900.61036,171.36333 C900.59176,171.65561 899.76964,171.95125 898.78355,172.02032 C897.55372,172.10652 896.89884,172.46399 896.69806,173.15881 C896.53712,173.71591 896.19664,174.03521 895.94142,173.86835 C895.68619,173.70149 895.47115,173.80835 895.46358,174.10586 C895.45658,174.40335 894.35104,175.25363 893.00812,175.99537 C889.19811,178.0997 888.63033,179.88082 891.4068,181.01819 C892.70548,181.55016 892.75821,181.95159 891.82262,184.18008 C891.13658,185.81402 892.86124,186.91449 898.56163,188.48011 C904.07989,189.99572 905.6169,190.99385 904.00055,192.01208 C902.99684,192.64441 895.78932,191.84002 884.45392,189.83065 C879.31856,188.92031 877.14903,189.28025 875.95675,191.24041 C874.76827,193.19422 873.54244,193.75013 870.00484,193.9396 C867.07301,194.09663 864.31368,195.47736 864.27989,196.80436 C864.25889,197.61822 866.60177,198.44635 869.31622,198.58473 C871.35709,198.68877 873.7525,200.15167 872.55787,200.56443 C872.18341,200.69381 871.51324,201.14541 871.06857,201.56797 C870.62394,201.99054 870.26373,202.19335 870.26817,202.01866 C870.28477,201.37527 867.00826,203.3106 866.34425,204.33654 C865.517,205.6147 862.71871,207.33413 861.61647,207.24154 C858.87667,207.01139 855.23067,207.27874 855.21964,207.71053 C855.19814,208.53532 857.94396,210.9677 858.51798,210.63285 C858.80694,210.46427 858.87613,210.58205 858.67189,210.89461 C858.46749,211.20715 858.54366,211.62193 858.84093,211.81634 C859.13824,212.01075 859.23146,212.39943 859.04791,212.68011 C858.86446,212.96078 859.00251,213.5567 859.35553,214.0044 C860.35816,215.27703 859.33693,215.75971 855.26832,215.93654 C853.2212,216.02554 850.46305,216.30741 849.13922,216.56297 C847.81529,216.81854 843.36788,217.45875 839.25602,217.98566 C835.14405,218.51255 830.4357,219.36624 828.79293,219.88274 C827.11388,220.41065 824.3631,220.78506 822.51026,220.73786 C820.69752,220.69166 817.46969,221.09617 815.33717,221.63671 C811.67609,222.56473 810.42242,222.57741 792.84977,221.86406 C782.61412,221.44856 772.20768,220.95134 769.72423,220.75915 C763.25221,220.25829 755.29733,219.47989 754.20538,219.24062 C753.69083,219.12787 747.46901,218.72441 740.37887,218.34403 C730.24108,217.80014 725.94972,217.7908 720.28575,218.30033 C716.32457,218.65667 709.04562,218.99067 704.11017,219.04257 C699.17482,219.09447 694.26144,219.22099 693.19152,219.32374 C689.49894,219.67836 676.83463,220.19865 669.40308,220.30104 C665.30313,220.35754 657.87368,220.52593 652.89322,220.67524 C647.9127,220.82455 637.84981,220.94076 630.5313,220.93348 C623.2128,220.92648 616.50484,220.98078 615.62466,221.05462 C614.74453,221.12852 608.73013,221.20779 602.25923,221.23074 C595.78838,221.25374 589.79815,221.33908 588.94766,221.42046 C587.31163,221.57701 583.2816,221.75102 569.01988,222.28094 C557.82583,222.69688 549.41968,223.25012 542.47886,224.0277 C539.46075,224.36582 536.07681,224.61917 534.95909,224.5907 C533.84141,224.5622 532.2272,224.74605 531.37203,224.9992 C530.51685,225.25234 528.30391,225.5455 526.4544,225.65068 C524.60484,225.75584 520.75977,226.25718 517.90972,226.76475 C515.05958,227.27233 511.28829,227.7787 509.52896,227.89004 C507.76963,228.00137 504.52901,228.27932 502.32764,228.50772 C500.12618,228.73611 496.88575,229.00661 495.12667,229.10885 C493.36758,229.2111 489.32339,229.59728 486.1396,229.96705 C482.95582,230.33682 478.39488,230.73154 476.00416,230.84421 C473.61344,230.95687 470.28092,231.19372 468.59859,231.37055 C466.91622,231.54737 462.60181,231.66528 459.01104,231.63257 C455.42026,231.59987 450.68153,231.74598 448.48054,231.95729 C444.13555,232.37443 434.88955,232.64075 427.70679,232.55567 C425.21918,232.52617 422.10158,232.67639 420.77878,232.88943 C419.45599,233.10245 410.35171,233.19974 400.54704,233.10561 C390.74238,233.01151 382.20363,233.02721 381.57205,233.14051 C380.94046,233.25383 375.78728,233.39033 370.12053,233.44384 C364.45378,233.49734 358.6186,233.58606 357.15346,233.64095 C355.68832,233.69585 350.29694,233.7803 345.17262,233.82862 C340.0483,233.87692 333.81708,234.02076 331.32547,234.14821 C328.83387,234.27567 326.55755,234.30982 326.26699,234.22411 C325.97642,234.13841 322.26129,234.23881 318.01113,234.44709 C313.76097,234.65544 307.88656,234.89671 304.95688,234.98325 C302.02719,235.06975 298.7899,235.21723 297.76289,235.31091 C296.73589,235.40461 292.66119,235.55269 288.70801,235.64002 C284.75483,235.72732 281.3979,235.8701 281.24816,235.95726 C281.09842,236.04446 277.9799,236.19399 274.31811,236.28963 C270.65632,236.38523 267.17913,236.54738 266.59103,236.64986 C265.51395,236.83756 227.81766,236.56796 211.51119,236.25592 C206.6832,236.16352 198.66822,235.81082 193.70013,235.47211 L193.70049,235.47088 Z M85.7499,166.87133 C86.01511,166.86053 85.8026,166.35199 85.27773,165.74143 C84.46074,164.79108 83.78852,164.6399 80.60723,164.69098 C78.56333,164.72378 76.80013,165.00417 76.68899,165.31402 C76.39798,166.12533 80.06387,167.12453 82.86975,166.99867 C84.18862,166.93947 85.48468,166.88221 85.7499,166.87133 Z M99.04074,138.13773 C99.04374,138.00871 98.80735,137.89706 98.51479,137.88961 C98.22223,137.88261 97.97641,138.12955 97.96851,138.43938 C97.96051,138.7492 98.1973,138.86085 98.49446,138.6875 C98.79163,138.51414 99.03745,138.26674 99.04074,138.13773 Z M72.31685,121.57727 C72.31985,121.46229 71.95433,121.2162 71.50473,121.03041 C71.03599,120.8367 70.8202,120.92043 70.99887,121.2267 C71.29838,121.7401 72.30588,122.00808 72.31685,121.57727 Z M78.6659,104.77363 C78.15385,104.23882 78.0912,104.29836 78.36055,105.06381 C78.54693,105.5935 78.83685,105.89629 79.00479,105.73669 C79.17274,105.57709 79.02019,105.14371 78.6659,104.77363 Z M83.0839,98.49894 C82.57184,97.96413 82.50918,98.02367 82.77854,98.78912 C82.96493,99.3188 83.25484,99.6216 83.42279,99.462 C83.59073,99.3024 83.43819,98.86902 83.0839,98.49894 Z M79.10614,95.34593 C78.93278,95.04878 78.68539,94.80295 78.55638,94.79966 C78.42736,94.79666 78.31571,95.03305 78.30826,95.32561 C78.30126,95.61817 78.5482,95.86399 78.85803,95.87189 C79.16785,95.87989 79.2795,95.6431 79.10614,95.34593 Z M100.86298,70.5199 C100.48291,70.35646 100.02364,70.36366 99.84239,70.5359 C99.66113,70.70816 99.9721,70.84188 100.53342,70.83306 C101.15373,70.82306 101.28299,70.7005 100.86298,70.51989 L100.86298,70.5199 Z M100.79868,69.12442 C100.00196,68.43192 98.74087,66.32679 98.75645,65.71532 C98.76145,65.52925 99.12219,65.68912 99.55867,66.07052 C100.59262,66.97406 101.22028,66.36852 100.36936,65.28839 C99.6213,64.33884 98.24137,65.04067 98.20704,66.38814 C98.19634,66.80842 98.00088,67.03023 97.77271,66.88105 C97.54453,66.73187 97.31125,67.07107 97.25431,67.63483 C97.18501,68.32153 97.49102,68.66852 98.18158,68.68611 C98.74852,68.70061 99.20628,68.95174 99.19882,69.2443 C99.19182,69.53686 99.72404,69.78233 100.38254,69.78979 C101.40989,69.80149 101.46894,69.70699 100.79868,69.12442 Z M97.63613,67.90523 C97.63913,67.77622 97.88524,67.52882 98.1824,67.35546 C98.47956,67.1821 98.71624,67.29376 98.70835,67.60358 C98.70035,67.9134 98.45463,68.1608 98.16207,68.15335 C97.86952,68.14635 97.63284,68.03424 97.63613,67.90523 Z M107.32531,57.07604 C107.37451,56.41861 107.29141,56.17847 107.14058,56.54238 C106.98977,56.9063 106.6536,57.06494 106.39354,56.89491 C106.13348,56.72488 106.05379,56.96091 106.21645,57.41935 C106.64721,58.63344 107.22206,58.45546 107.32531,57.07604 Z M104.60007,56.57201 C105.19617,55.66028 104.54917,55.44749 103.79719,56.30797 C103.36475,56.80282 103.31662,57.10699 103.66934,57.11598 C103.98045,57.12398 104.39928,56.87911 104.60007,56.57201 Z M122.33085,38.75274 C122.33385,38.63776 121.98064,38.39676 121.54609,38.21718 C121.11155,38.0376 120.7501,38.12248 120.74288,38.4059 C120.73588,38.68928 121.0888,38.93028 121.52764,38.94147 C121.96648,38.95267 122.32792,38.86767 122.33085,38.75274 Z M32.548773,178.28993 C32.555773,178.01464 32.804653,177.64756 33.101823,177.47421 C33.398983,177.30084 33.632613,177.53221 33.620993,177.98829 C33.609393,178.44439 33.360503,178.81146 33.067943,178.80401 C32.775383,178.79701 32.541763,178.56523 32.548773,178.28993 Z M55.34866,135.10356 C55.66563,134.80233 56.23629,134.66854 56.61678,134.80623 C57.01178,134.94917 56.76452,135.18414 56.04046,135.35392 C55.14979,135.56275 54.94388,135.48823 55.34866,135.10356 Z M62.91648,135.386 C62.37032,135.01299 62.33446,134.83251 62.79853,134.79234 C63.96825,134.69113 64.25317,134.61403 64.90535,134.22223 C65.25643,134.01131 65.70975,134.12343 65.91272,134.47134 C66.1432,134.86642 66.05482,134.95556 65.67732,134.70875 C65.31915,134.47459 65.06427,134.65145 65.05175,135.14284 C65.02795,136.07847 64.08724,136.18559 62.91648,135.386 Z M60.20806,134.11892 C60.62088,133.72659 61.0097,133.70725 61.34705,134.06222 C61.6844,134.4172 61.47044,134.62055 60.72026,134.65787 C59.86242,134.70057 59.73599,134.56747 60.20806,134.1189 L60.20806,134.11892 Z M73.79288,126.31693 C73.80448,125.86083 74.0496,125.64168 74.33756,125.82995 C74.62551,126.01821 74.85537,126.39749 74.84835,126.67278 C74.84135,126.94807 74.59624,127.16721 74.30369,127.15976 C74.01112,127.15276 73.78127,126.77303 73.79288,126.31693 Z M74.61102,117.44169 C75.52062,115.79663 75.61265,115.75047 75.48619,117.00272 C75.42459,117.6121 75.0571,118.22323 74.66942,118.36077 C74.1067,118.56042 74.09492,118.37507 74.61102,117.44169 Z M78.27476,98.00765 C77.82975,97.7167 78.08656,97.47276 79.06977,97.25245 C80.85196,96.85309 81.19278,97.1044 79.90155,97.86578 C79.36836,98.18018 78.6363,98.24403 78.27476,98.00765 Z M89.93903,62.29961 C90.12029,62.12735 90.57955,62.12015 90.95963,62.28361 C91.37963,62.46422 91.25038,62.58705 90.63007,62.59678 C90.06875,62.60578 89.75778,62.47188 89.93903,62.29963 L89.93903,62.29961 Z M91.58901,60.21255 C91.77026,60.0403 92.22953,60.0331 92.6096,60.19655 C93.0296,60.37716 92.90035,60.5 92.28004,60.50973 C91.71872,60.51873 91.40775,60.38482 91.58901,60.21256 L91.58901,60.21255 Z M101.23518,53.63858 C101.22618,53.07726 101.36009,52.76629 101.53234,52.94754 C101.70459,53.1288 101.7118,53.58807 101.54834,53.96814 C101.36773,54.38814 101.24489,54.25889 101.23516,53.63858 L101.23518,53.63858 Z M120.56367,24.54564 C120.09215,24.2236 120.03187,24.01286 120.41264,24.01767 C120.76118,24.02267 121.18821,24.2688 121.36156,24.56596 C121.75288,25.23675 121.56874,25.23207 120.56367,24.54566 L120.56367,24.54564 Z"/>
</svg>
