<svg xmlns="http://www.w3.org/2000/svg" width="596" height="500" viewBox="0 0 596 500">
  <path d="M260.491024,510.535433 C252.109628,508.192126 245.537851,503.993702 209.059727,477.338587 L175.153167,452.733866 L170.867226,456.737015 C161.819127,465.32914 149.723248,469.039376 137.817855,466.891345 C130.10316,465.524416 113.72134,457.322842 85.1483965,440.529143 L67.4331717,430.081901 L62.3852851,435.744892 C55.3372925,443.653552 46.8606527,447.754339 36.5743932,448.340166 C21.240247,449.316544 17.240035,446.973237 -32.4768861,408.503951 L-64.4785824,383.801592 L-68.9550102,388.878757 C-76.9554342,397.95907 -90.5752038,403.329148 -102.099624,401.864582 C-109.052374,400.985842 -119.148147,396.006315 -127.4343,389.366945 L-133.910834,384.192143 L-137.625317,389.562221 C-146.863902,402.743322 -165.055342,408.894502 -180.008516,403.622062 C-184.3897,402.157495 -188.675642,401.571668 -195.818878,401.571668 C-205.152706,401.571668 -206.009894,401.766944 -211.819726,404.988991 C-220.105879,409.675604 -229.344464,411.335446 -237.154402,409.773242 C-250.202713,407.137022 -260.393729,399.033086 -265.917832,387.121276 C-268.870369,380.774821 -278.000378,357.732304 -254.869627,333.908685 C-249.667602,328.550836 -245.535799,323.754356 -245.535799,323.266167 C-245.535799,322.777978 -249.155038,317.603176 -253.536223,311.940184 C-258.012651,306.179555 -263.060537,298.46617 -264.774914,294.853572 C-267.727451,288.702392 -271,285.274081 -271,269.023651 C-271,252.77322 -254.869627,240.957516 -235.725755,239.590587 C-229.915923,238.61421 -220.105879,239.395312 -217.534314,240.957516 C-216.962856,241.348068 -216.48664,240.274052 -216.48664,238.61421 C-216.581883,233.732321 -213.15313,223.773267 -209.724377,218.598464 C-205.819408,212.935473 -199.53336,207.467757 -193.533042,204.733899 C-191.056721,203.562246 -187.056508,200.73075 -184.67543,198.485081 L-180.389488,194.384294 L-183.913485,189.892956 C-185.913591,187.452012 -188.770885,182.765398 -190.294775,179.445714 C-192.675854,174.075636 -193.056827,172.025242 -193.15207,163.042566 L-193.247313,152.790599 L-198.390443,144.589025 C-220.486852,109.341786 -210.676808,72.2394287 -177.72268,65.9906106 C-167.150691,63.9402172 -155.340542,67.3575396 -146.768659,74.8756488 L-142.86369,78.390609 L-140.577854,72.7276176 C-137.339587,64.6236817 -129.053434,55.9339191 -121.338739,52.2236833 C-115.719394,49.5874632 -114.005017,49.2945499 -104.956919,49.2945499 C-95.337361,49.2945499 -94.5754158,49.3921876 -87.4321801,53.1024234 C-83.0509954,55.3480924 -73.1457085,62.5732883 -63.0499352,70.8724997 C-40.5725533,89.3260406 -24.1907326,102.11659 -22.8573286,102.11659 C-22.2858697,102.11659 -20.7619794,100.944937 -19.5238185,99.4803699 C-15.9998222,95.6724964 -9.42804529,92.0598985 -2.85626837,90.3024184 C13.0493366,86.006356 22.3831647,89.8142295 70.6714386,119.789029 L101.339731,138.828396 L101.62546,131.993751 L102.006433,125.159107 L95.3394129,118.519737 C87.1485025,110.122888 82.9578042,102.702417 81.3386707,93.622103 C78.3861333,76.5354911 86.9580162,59.3512414 102.196919,51.6378566 C107.625778,48.9039987 110.1021,48.318172 117.340579,47.9276209 C129.341215,47.3417942 133.7224,49.2945499 166.581284,69.5055708 C192.773149,85.7134426 216.774421,99.9685589 252.204871,120.374855 C261.157726,125.549658 268.681935,129.748082 268.967664,129.748082 C269.253393,129.748082 269.539123,127.990602 269.539123,125.744933 C269.539123,119.789029 273.063119,109.341786 276.968088,103.87407 C284.682783,93.2315519 297.731093,86.9827338 310.303188,87.9591116 C315.827291,88.3496628 327.542197,91.7669851 335.637865,95.2819453 C337.066512,95.9654098 337.352241,94.7937564 337.637971,85.9087182 C338.018943,77.5118689 338.495159,74.8756488 340.876238,69.9937597 C349.352877,52.1260455 369.639667,43.5339207 388.497809,49.7827388 C397.069692,52.6142345 414.689674,61.3039971 439.833864,75.2661999 C450.120124,81.0268291 458.977736,85.7134426 459.358708,85.7134426 C459.739681,85.7134426 460.882599,84.0536003 461.930273,82.0032069 C466.311458,73.8016332 477.359663,66.1858862 488.026895,64.2331305 C500.027531,61.9874616 510.885249,65.8929728 530.791066,79.3669868 L541.553542,86.6898205 L546.315699,84.2488759 C556.697201,78.8787979 570.412214,76.9260422 579.650799,79.5622624 C582.984309,80.4410024 583.841497,80.2457268 588.032196,77.6095067 C590.603761,75.8520266 594.889702,73.9969088 597.651753,73.2158065 C600.318561,72.532342 602.318667,71.4583264 602.128181,70.8724997 C601.842452,70.286673 600.604291,66.5764373 599.461373,62.7685638 C594.223,45.8772275 601.461479,26.7402222 616.700382,17.6599084 C627.081885,11.4110903 645.082839,10.1417992 658.035906,14.8284127 C661.274173,16.0000661 680.227559,25.2756554 700.038133,35.332347 C719.848707,45.4866764 745.469112,58.179588 756.993533,63.6473039 C778.137511,73.6063576 809.091532,89.7165917 821.854114,97.234701 C830.616483,102.409503 836.045342,108.170133 839.664582,115.981155 C843.950523,125.256744 844.521982,137.852018 841.093229,147.225245 C840.712256,148.299261 843.379064,150.447292 850.808029,154.840992 C871.475792,167.240991 878.904757,178.176422 879,195.848861 C879,204.050435 878.619027,205.807915 875.952219,211.76382 C872.428223,219.281929 866.808878,225.628385 860.332344,229.533896 C854.332026,233.146494 844.141009,235.685076 838.426421,235.001612 L833.759507,234.415785 L834.330966,243.984288 C834.711938,251.404759 834.426209,254.822082 832.997562,259.411057 C830.330754,268.10082 823.282761,276.985858 814.996607,282.063023 C813.472717,282.941763 815.187094,284.894518 827.568702,296.025226 C844.236253,310.963806 862.713422,330.003174 867.380336,337.130732 C871.475792,343.281912 875.380761,351.874037 877.095137,358.708682 C882.428753,379.114978 871.190062,400.204739 851.665218,406.551195 C843.664794,409.187415 836.426315,409.187415 828.330648,406.551195 C819.949251,403.914975 813.186988,398.447259 806.710454,389.074032 C798.71003,377.552774 790.328633,368.277185 778.137511,357.732304 C772.137193,352.459864 766.89882,348.163801 766.61309,348.163801 C766.232118,348.163801 765.851145,350.116557 765.660659,352.459864 C764.708227,372.182696 749.278838,387.707103 729.468264,388.878757 C716.705683,389.659859 698.418999,383.215765 677.84648,370.815767 L672.798594,367.691358 L672.322378,376.283483 C671.941405,383.215765 671.274703,386.047261 668.703139,391.417339 C664.893413,399.423637 657.654934,406.648833 649.749753,410.456706 C644.701866,412.897651 642.797003,413.190564 634.034634,413.190564 C622.510214,413.190564 621.557782,412.800013 586.984521,396.396866 L568.031136,387.41419 L566.888218,393.272457 C564.697625,404.207888 557.744876,414.26458 548.601534,419.634658 C546.029969,421.099225 543.839377,422.368516 543.744134,422.466154 C543.553648,422.661429 544.791808,424.907098 546.410942,427.640956 C551.268342,435.451979 552.792233,441.310246 552.316017,451.464575 C552.030287,459.080322 551.554072,461.423629 548.79202,467.184258 C541.363055,482.51339 524.885991,491.203152 508.408928,488.469294 C501.075205,487.297641 494.884401,484.173232 486.407761,477.533863 C482.883765,474.800005 477.073933,470.503943 473.549937,468.062998 C469.930697,465.622053 465.073297,462.009455 462.692218,460.0567 C459.930167,457.811031 456.596657,456.151189 453.64412,455.663 C446.405641,454.296071 431.83344,446.289773 419.928047,437.014183 C413.927729,432.32757 408.49887,428.226783 407.927411,427.836232 C407.355952,427.445681 403.927199,430.081901 400.403202,433.596861 C393.164724,440.822057 386.40246,444.141741 376.592416,445.118119 C368.401506,445.996859 360.686811,443.653552 343.447802,434.768514 L328.494629,427.152767 L326.39928,431.253554 C323.351499,437.502372 316.208263,444.239379 308.969784,447.754339 L302.493251,450.781111 L304.398114,454.588984 C315.351075,476.948036 303.064709,504.188977 279.063437,510.535433 C271.824958,512.488189 267.729503,512.488189 260.491024,510.535433 Z" transform="matrix(1 0 0 -1 0 524)"/>
</svg>
