<svg xmlns="http://www.w3.org/2000/svg" width="1192" height="500" viewBox="0 0 1192 500"><g fill="none" fill-rule="evenodd"><path fill="#000" fill-rule="nonzero" d="M552.46232,492.282221 C544.081376,489.996509 537.509954,485.901275 501.0338,459.901301 L467.129072,435.901325 L462.843362,439.806083 C453.795752,448.187027 441.700526,451.806071 429.795776,449.710835 C422.081498,448.377503 405.700562,440.377511 377.129162,423.996575 L359.414894,413.806109 L354.36728,419.329913 C347.319668,427.044191 338.843486,431.044187 328.557782,431.615615 C313.224464,432.567995 309.224468,430.282283 259.510232,392.758511 L227.510264,368.663297 L223.034078,373.615673 C215.034086,382.472807 201.415052,387.710897 189.891254,386.282327 C182.93888,385.425185 172.843652,380.568047 164.557946,374.091863 L158.081762,369.044249 L154.36748,374.282339 C145.129394,387.139469 126.938936,393.139463 111.98657,387.996611 C107.605622,386.568041 103.319912,385.996613 96.177062,385.996613 C86.843738,385.996613 85.986596,386.187089 80.177078,389.329943 C71.891372,393.901367 62.653286,395.520413 54.84377,393.996605 C41.796164,391.425179 31.605698,383.520425 26.081894,371.901389 C23.129516,365.710919 14,343.234751 37.129502,319.996679 C42.3312464,314.770517 46.462826,310.091927 46.462826,309.615737 C46.462826,309.139547 42.843782,304.091933 38.462834,298.568129 C33.986648,292.949087 28.939034,285.425285 27.22475,281.901479 C24.272372,275.901485 21,272.557436 21,256.706416 C21,240.855395 37.129502,229.330103 56.27234,227.996771 C62.081858,227.044391 71.891372,227.806295 74.462798,229.330103 C75.034226,229.711055 75.510416,228.663437 75.510416,227.044391 C75.415178,222.282491 78.843746,212.568215 82.272314,207.520601 C86.177072,201.996797 92.46278,196.663469 98.462774,193.996805 C100.938962,192.853949 104.938958,190.092047 107.319908,187.901573 L111.605618,183.901577 L108.081812,179.520629 C106.081814,177.139679 103.224674,172.568255 101.700866,169.330163 C99.319916,164.092073 98.938964,162.092075 98.843726,153.330179 L98.748488,143.330189 L93.605636,135.330197 C71.51042,100.949279 81.319934,64.7588388 114.272282,58.6636068 C124.8437,56.6636088 136.653212,59.9969388 145.224632,67.3302648 L149.12939,70.7588328 L151.415102,65.2350288 C154.653194,57.3302748 162.9389,48.8540928 170.653178,45.2350488 C176.27222,42.6636228 177.986504,42.3779088 187.034114,42.3779088 C196.653152,42.3779088 197.415056,42.4731468 204.557906,46.0921908 C208.938854,48.2826648 218.843606,55.3302768 228.938834,63.4255068 C251.415002,81.4254888 267.795938,93.9016668 269.12927,93.9016668 C269.700698,93.9016668 271.224506,92.7588108 272.4626,91.3302408 C275.986406,87.6159588 282.557828,84.0921528 289.12925,82.3778688 C305.033996,78.1873968 314.36732,81.9016788 362.652986,111.139745 L393.319622,129.711155 L393.605336,123.044495 L393.986288,116.377835 L387.319628,109.901651 C379.12916,101.711183 374.938688,94.4730948 373.319642,85.6159608 C370.367264,68.9493108 378.938684,52.1874228 394.176764,44.6636208 C399.60533,41.9969568 402.081518,41.4255288 409.319606,41.0445768 C421.319594,40.4731488 425.700542,42.3779088 458.557652,62.0921748 C484.748102,77.9016828 508.748078,91.8064308 544.176614,111.711173 C553.128986,116.758787 560.652788,120.854021 560.938502,120.854021 C561.224216,120.854021 561.50993,119.139737 561.50993,116.949263 C561.50993,111.139745 565.033736,100.949279 568.938494,95.6159508 C576.652772,85.2350088 589.700378,79.1397768 602.271794,80.0921568 C607.795598,80.4731088 619.509872,83.8064388 627.605102,87.2350068 C629.033672,87.9016728 629.319386,86.7588168 629.6051,78.0921588 C629.986052,69.9016908 630.462242,67.3302648 632.843192,62.5683648 C641.319374,45.1398108 661.605068,36.7588668 680.462192,42.8540988 C689.033612,45.6160008 706.652642,54.0921828 731.795474,67.7112168 C742.081178,73.3302588 750.938312,77.9016828 751.319264,77.9016828 C751.700216,77.9016828 752.843072,76.2826368 753.89069,74.2826388 C758.271638,66.2826468 769.319246,58.8540828 779.985902,56.9493228 C791.98589,54.7588488 802.843022,58.5683688 822.747764,71.7112128 L833.509658,78.8540628 L838.271558,76.4731128 C848.6525,71.2350228 862.366772,69.3302628 871.604858,71.9016888 C874.938188,72.7588308 875.79533,72.5683548 879.985802,69.9969288 C882.557228,68.2826448 886.842938,66.4731228 889.60484,65.7112188 C892.271504,65.0445528 894.271502,63.9969348 894.081026,63.4255068 C893.795312,62.8540788 892.557218,59.2350348 891.414362,55.5207528 C886.176272,39.0445788 893.41436,20.3779308 908.65244,11.5207968 C919.033382,5.42556481 937.033364,4.18747081 949.985732,8.75889481 C953.223824,9.90175081 972.176186,18.9493608 991.98569,28.7588748 C1011.79519,38.6636268 1037.41422,51.0445668 1048.93801,56.3778948 C1070.08085,66.0921708 1101.0332,81.8064408 1113.79509,89.1397668 C1122.55699,94.1873808 1127.98555,99.8064228 1131.6046,107.425463 C1135.89031,116.473073 1136.46174,128.758775 1133.03317,137.901623 C1132.65222,138.949241 1135.31888,141.044477 1142.74744,145.330187 C1163.41409,157.425413 1170.84265,168.092069 1170.93789,185.330147 C1170.93789,193.330139 1170.55694,195.044423 1167.89028,200.853941 C1164.36647,208.187267 1158.74743,214.377737 1152.27124,218.187257 C1146.27125,221.711063 1136.08078,224.187251 1130.3665,223.520585 L1125.69984,222.949157 L1126.27127,232.282481 C1126.65222,239.520569 1126.36651,242.853899 1124.93794,247.330085 C1122.27127,255.806267 1115.22366,264.472925 1106.93796,269.425301 C1105.41415,270.282443 1107.12843,272.187203 1119.50937,283.044335 C1136.17602,297.615749 1154.65219,316.187159 1159.31886,323.139533 C1163.41409,329.139527 1167.31885,337.520471 1169.03313,344.187131 C1174.36646,364.091873 1163.12838,384.663281 1143.60459,390.853751 C1135.60459,393.425177 1128.36651,393.425177 1120.27128,390.853751 C1111.89033,388.282325 1105.12843,382.948997 1098.65225,373.806149 C1090.65226,362.568065 1082.27131,353.520455 1070.08085,343.234751 C1064.08086,338.091899 1058.84277,333.901427 1058.55705,333.901427 C1058.1761,333.901427 1057.79515,335.806187 1057.60467,338.091899 C1056.65229,357.329975 1041.22374,372.472817 1021.41423,373.615673 C1008.65234,374.377577 990.366644,368.091869 969.795236,355.996643 L964.747622,352.949027 L964.271432,361.329971 C963.89048,368.091869 963.223814,370.853771 960.652388,376.091861 C956.842868,383.901377 949.60478,390.948989 941.700026,394.663271 C936.652412,397.044221 934.747652,397.329935 925.985756,397.329935 C914.461958,397.329935 913.509578,396.948983 878.938184,380.948999 L859.985822,372.187103 L858.842966,377.901383 C856.652492,388.568039 849.700118,398.377553 840.55727,403.615643 C837.985844,405.044213 835.79537,406.282307 835.700132,406.377545 C835.509656,406.568021 836.74775,408.758495 838.366796,411.425159 C843.223934,419.044199 844.747742,424.758479 844.271552,434.663231 C843.985838,442.091795 843.509648,444.377507 840.747746,449.996549 C833.319182,464.948915 816.843008,473.425097 800.366834,470.758433 C793.033508,469.615577 786.843038,466.567961 778.366856,460.091777 C774.84305,457.425113 769.033532,453.234641 765.509726,450.853691 C761.890682,448.472741 757.033544,444.948935 754.652594,443.044175 C751.890692,440.853701 748.557362,439.234655 745.604984,438.758465 C738.366896,437.425133 723.795482,429.615617 711.890732,420.568007 C705.890738,415.996583 700.462172,411.996587 699.890744,411.615635 C699.319316,411.234683 695.890748,413.806109 692.366942,417.234677 C685.128854,424.282289 678.366956,427.520381 668.557442,428.472761 C660.366974,429.329903 652.652696,427.044191 635.414618,418.377533 L620.462252,410.948969 L618.367016,414.948965 C615.3194,421.044197 608.17655,427.615619 600.938462,431.044187 L594.462278,433.996565 L596.367038,437.710847 C607.319408,459.520349 595.033706,486.091751 571.03373,492.282221 C563.795642,494.186981 559.700408,494.186981 552.46232,492.282221 Z" transform="matrix(1 0 0 -1 0 499.71)"/><path fill="#000" fill-rule="nonzero" d="M1137.71534 458.689283C1136.29657 460.254311 1135.42955 461.115077 1134.56252 462.054094 1134.72016 462.601853 1134.72016 463.149613 1135.03545 463.384368 1136.61186 464.63639 1138.34591 465.888413 1140.00114 467.062184 1140.78934 467.609944 1141.89283 467.844698 1142.36576 468.548961 1142.83868 469.331475 1143.23278 470.818252 1142.83868 471.444264 1142.44458 472.070275 1140.78934 472.539784 1140.00114 472.226778 1137.95181 471.366012 1136.13893 470.035738 1134.24724 468.940218 1132.74965 468.079453 1131.25206 467.218687 1129.83329 466.357922 1127.46867 467.766447 1128.02042 469.644481 1128.41452 471.522515 1128.88744 474.02656 1129.36037 476.452354 1129.67565 478.9564 1129.99093 481.225691 1129.43919 483.103725 1126.91693 483.807988 1124.15821 484.590502 1123.21236 482.868971 1122.50298 480.677931 1122.34534 480.208422 1122.03006 479.895417 1121.71477 479.347657 1118.16785 478.565143 1113.7539 481.303942 1111.15282 477.234869 1112.25631 474.809075 1113.28098 472.618035 1114.22682 470.505247 1112.01985 468.705464 1110.20698 467.218687 1108 465.418905 1111.38928 463.306116 1114.30564 461.506334 1117.14318 459.784802 1114.38446 454.385455 1115.96087 449.14261 1115.64559 444.056267 1121.39949 443.66501 1123.21236 445.230039 1124.47349 451.411901 1127.78396 450.316381 1128.57216 446.873319 1130.93678 444.838782 1134.56252 444.369273 1138.18827 443.978016 1141.41991 447.577581 1140.47406 449.14261 1139.60704 451.098895 1138.26709 452.429169 1136.37539 454.541957 1135.19309 456.34174 1137.71534 458.689283zM1057.43611 47.8480406C1062.50837 49.7264387 1066.91236 51.3255418 1071.27803 52.7274979 1077.8457 54.9290055 1082.26562 60.8215307 1081.60208 66.8837953 1080.8563 73.5758344 1076.10654 77.5680354 1068.18555 77.8801441 1062.86657 77.8910695 1057.74479 77.8636618 1052.4258 77.8745872 1052.2286 77.9129203 1051.91083 78.3838808 1051.07808 79.3641349 1053.0876 86.5435791 1060.11512 91.1108522 1063.23124 97.6660034 1066.54456 104.182822 1067.44748 111.986559 1069.29811 119.401483 1066.37273 121.197696 1064.35674 122.407949 1061.43136 124.204161 1055.87859 109.325016 1042.16283 102.988863 1032.68745 92.1457333 1025.64786 96.9922259 1022.75433 107.375283 1011.31161 103.257044 1013.59672 96.0611926 1016.04072 88.6298613 1018.60528 80.7659025 1007.51305 77.3979191 1003.05219 93.4051315 991.779554 87.003275 993.620733 81.7350804 995.620797 76.2314056 998.141437 69.1943685 987.750196 67.3268958 978.027218 65.7387181 968.501447 64.1122072 965.583412 50.1530946 971.943549 47.0754446 993.351247 44.5509781 994.16807 39.277302 991.429572 35.7176907 988.061132 32.0759316 981.871952 25.5043358 984.464509 12.5200334 992.484542 8.5059439 996.790369 6.4413995 1000.48218 8.58812936 1003.52165 14.7489864 1007.49764 22.5691681 1011.70915 30.5481639 1016.07955 38.2916795 1017.01606 39.9510042 1018.70308 41.2598494 1020.07233 43.039655 1024.02766 40.2248553 1019.46566 31.4956041 1027.33713 33.0344857 1031.58784 33.8450003 1035.51518 36.1505442 1041.05849 38.3465703 1043.79226 35.564622 1047.59431 31.9612338 1051.23747 28.5933257 1053.81236 26.0468578 1056.27228 22.9089484 1059.27431 21.5070301 1061.72303 20.4172582 1065.69989 20.8718117 1068.17573 22.0273244 1069.31505 22.6242474 1069.60483 27.2736305 1068.56928 29.3162864 1065.6215 35.208774 1061.76993 40.6631526 1057.43611 47.8480406zM157.835518 75.0499138C158.0442 83.2160911 156.928416 84.9810349 150.195704 86.9911549 148.197932 85.1502567 146.265765 83.3848295 143.733281 81.0812406 142.150873 87.4918557 137.665525 89.8008935 133.009506 92.5232967 131.192754 87.0800061 134.51051 82.2084053 133.605825 76.8997759 128.283881 79.0085465 123.103014 81.1271821 116.688466 83.6557337 118.658094 76.7760122 124.872374 75.0840566 127.37968 70.651967 123.046241 66.7338928 118.452378 70.594776 113.816571 69.9870755 115.480865 64.4327865 120.10384 63.1966228 123.979005 60.4905002 122.821278 57.7868602 121.729158 55.1586912 120.627172 52.6715991 126.346684 46.9046952 131.359845 47.1843662 139.587212 54.2100643 141.746758 49.6827736 143.896439 45.2965598 146.04612 40.9103459 151.561432 40.0909972 153.614945 42.1484432 152.2624 47.2992317 151.38586 50.711222 150.227167 54.1034823 149.20955 57.5056075 149.547445 57.7418855 149.809868 58.0437693 150.147763 58.2800472 153.369835 56.8041561 156.657512 55.403736 159.889449 53.786768 161.359408 53.0389574 162.70802 51.999128 164.112373 51.1758464 166.025293 50.1754772 168.180906 49.7591456 169.529034 51.7672663 171.01824 53.7852521 169.292273 55.153111 167.86819 56.2585463 165.54832 58.0101755 163.097239 59.6108629 160.646158 61.2115502 158.86445 62.3628613 156.885924 63.2877595 154.454573 64.6062932 159.053885 67.7632423 163.325651 67.4948865 167.617147 66.944377 169.687424 66.7347281 172.063035 65.1996467 173.266637 68.2609113 174.050459 70.2295718 172.1701 72.7916515 168.856277 73.5522932 165.401377 74.3030699 161.769389 74.54528 157.835518 75.0499138z"/></g></svg>