<svg xmlns="http://www.w3.org/2000/svg" fill="none" viewBox="0 0 112 13"><path fill="#000" d="M8.36149 9.52243C8.25007 11.2987 7.36363 12.1883 5.70218 12.1912L3.03031 12.196C2.29593 12.1973 1.66786 11.938 1.1461 11.4181C0.624343 10.8982 0.362809 10.2711 0.361501 9.53668L0.349614 2.86482C0.348306 2.13045 0.607604 1.50238 1.12751 0.980618C1.64741 0.458857 2.27455 0.197323 3.00893 0.196014L5.6808 0.191254C7.35788 0.188266 8.24748 1.0747 8.3496 2.85057L7.01367 2.85295C6.90792 1.96772 6.46443 1.5258 5.68318 1.52719L4.34724 1.52957C3.97745 1.53023 3.66258 1.661 3.40263 1.92188C3.14267 2.18276 3.01302 2.49549 3.01367 2.86007L3.02556 9.53194C3.02621 9.89652 3.15697 10.2088 3.41785 10.4687C3.67873 10.7287 3.99407 10.8583 4.36386 10.8577L5.6998 10.8553C6.48625 10.8539 6.92817 10.4104 7.02555 9.52481L8.36149 9.52243Z"/><path fill="#000" d="M11.0381 12.1817L11.0167 0.181748L13.6808 0.177002L13.6903 5.51293L16.3622 5.50817L16.3527 0.172242L19.0167 0.167495L19.0381 12.1675L16.374 12.1722L16.3645 6.83629L13.6927 6.84105L13.7022 12.177L11.0381 12.1817Z"/><path fill="#000" d="M21.71 12.1627L21.6933 2.82679C21.692 2.09242 21.9513 1.46435 22.4712 0.942592C22.9911 0.420832 23.6183 0.159297 24.3526 0.157989L27.0245 0.153229C27.7537 0.15193 28.3791 0.413837 28.9009 0.93895C29.4279 1.45884 29.692 2.08338 29.6933 2.81254L29.7099 12.1485L27.0459 12.1532L27.0364 6.81728L24.3645 6.82204L24.374 12.158L21.71 12.1627ZM24.3621 5.49392L27.034 5.48916L27.0293 2.81729C27.0286 2.4527 26.8978 2.14044 26.637 1.88048C26.3761 1.62053 26.0607 1.49089 25.691 1.49154C25.3212 1.4922 25.0063 1.62297 24.7463 1.88385C24.4864 2.14473 24.3567 2.45746 24.3574 2.82205L24.3621 5.49392Z"/><path fill="#000" d="M39.0292 2.79591L37.7011 2.79827C37.5849 1.90785 37.1649 1.46329 36.4409 1.46458C35.4982 1.46626 35.0277 1.91501 35.0293 2.81085C35.0299 3.14418 35.1606 3.45645 35.4216 3.74765L38.2553 6.91448C38.7772 7.49689 39.0387 8.12402 39.0399 8.7959L39.0411 9.46777C39.0424 10.2021 38.7831 10.8302 38.2632 11.352C37.7433 11.8737 37.1162 12.1353 36.3818 12.1366L35.0459 12.139C33.2698 12.1421 32.3802 11.2557 32.3771 9.47964L33.713 9.47726C33.708 9.57102 33.7055 9.64395 33.7056 9.69603C33.7062 10.045 33.8447 10.3208 34.1211 10.5234C34.3767 10.7105 34.6841 10.8037 35.0435 10.803C35.9341 10.8014 36.3786 10.3527 36.377 9.45689C36.3764 9.12356 36.2457 8.81129 35.9847 8.52009L33.151 5.36107C32.6291 4.77867 32.3676 4.15153 32.3664 3.47965L32.3652 2.80778C32.3639 2.07341 32.6232 1.44534 33.1431 0.923579C33.663 0.401819 34.2901 0.140285 35.0245 0.138976L36.3604 0.136596C38.0271 0.133627 38.9167 1.02006 39.0292 2.79591Z"/><path fill="#000" d="M41.7256 12.1271L41.7042 0.127076L48.3682 0.115203L48.3706 1.45114L44.3706 1.45826L44.3777 5.45826L47.0496 5.4535L47.052 6.78162L44.3801 6.78638L44.3872 10.7864L48.3872 10.7792L48.3896 12.1152L41.7256 12.1271Z"/><path fill="#000" d="M56.413 12.1009L56.3917 0.100909L57.001 0.0998233L62.7065 5.77717L68.3916 0.07953L69.7276 0.07715L69.7489 12.0771L67.0771 12.0819L67.064 4.74597L62.3927 9.43398L57.7359 4.76258L57.749 12.0985L56.413 12.1009Z"/><path fill="#000" d="M79.0652 5.39646L77.7371 5.39883C77.6313 4.50839 77.1852 4.06387 76.3988 4.06527C76.0342 4.06592 75.7193 4.19929 75.4541 4.46539C75.1942 4.72627 75.0645 5.039 75.0652 5.40359L75.0723 9.40358C75.073 9.76816 75.2037 10.0804 75.4646 10.3404C75.7255 10.6003 76.0408 10.73 76.4106 10.7293C77.1971 10.7279 77.6416 10.2844 77.7442 9.39882L79.0723 9.39645C78.9661 11.1727 78.0797 12.0623 76.413 12.0653L75.0771 12.0676C74.3427 12.0689 73.7146 11.8096 73.1929 11.2897C72.6711 10.7698 72.4096 10.1427 72.4083 9.40833L72.4011 5.40833C72.3998 4.67396 72.6591 4.04589 73.179 3.52413C73.6989 2.99716 74.3261 2.73302 75.0604 2.73172L76.3964 2.72934C78.0735 2.72635 78.9631 3.61539 79.0652 5.39646Z"/><path fill="#000" d="M89.752 9.37743C89.6406 11.1537 88.7541 12.0433 87.0927 12.0462L84.4208 12.051C83.6864 12.0523 83.0584 11.793 82.5366 11.2731C82.0148 10.7532 81.7533 10.1261 81.752 9.39168L81.7401 2.71982C81.7388 1.98544 81.9981 1.35737 82.518 0.835614C83.0379 0.313854 83.665 0.0523192 84.3994 0.0510109L87.0713 0.0462507C88.7484 0.0432629 89.638 0.9297 89.7401 2.70556L88.4042 2.70794C88.2984 1.82271 87.8549 1.38079 87.0737 1.38219L85.7377 1.38457C85.3679 1.38522 85.0531 1.51599 84.7931 1.77687C84.5332 2.03775 84.4035 2.35049 84.4042 2.71507L84.4161 9.38693C84.4167 9.75152 84.5475 10.0638 84.8083 10.3237C85.0692 10.5837 85.3846 10.7133 85.7544 10.7127L87.0903 10.7103C87.8767 10.7089 88.3187 10.2654 88.416 9.37981L89.752 9.37743Z"/><path fill="#000" d="M95.0713 0.0319981L97.7431 0.027238C98.4723 0.0259389 99.0978 0.287846 99.6196 0.812959C100.147 1.33285 100.411 1.95738 100.412 2.68655L100.424 9.35841C100.425 10.0876 100.163 10.7157 99.6381 11.2426C99.1182 11.7644 98.4937 12.0259 97.7645 12.0272L95.0927 12.032C94.3583 12.0333 93.7302 11.774 93.2085 11.2541C92.6867 10.7342 92.4252 10.107 92.4239 9.37267L92.412 2.7008C92.4107 1.96643 92.67 1.33836 93.1899 0.816601C93.7098 0.294841 94.3369 0.0333065 95.0713 0.0319981ZM95.076 2.69606L95.0879 9.36792C95.0886 9.7325 95.2193 10.0448 95.4802 10.3047C95.7411 10.5647 96.0564 10.6943 96.4262 10.6937C96.796 10.693 97.1109 10.5622 97.3708 10.3014C97.6308 10.0405 97.7604 9.72774 97.7598 9.36316L97.7479 2.6913C97.7472 2.32671 97.6165 2.01445 97.3556 1.75449C97.0947 1.49454 96.7794 1.36489 96.4096 1.36555C96.0398 1.36621 95.7249 1.49698 95.465 1.75786C95.205 2.01874 95.0754 2.33147 95.076 2.69606Z"/><path fill="#000" d="M105.765 12.013L105.755 6.67704C103.979 6.47708 103.089 5.59064 103.086 4.01772L103.079 0.0177316L105.743 0.0129854L105.75 4.01298C105.751 4.37756 105.882 4.69243 106.143 4.95759C106.409 5.21754 106.724 5.34718 107.089 5.34653C107.453 5.34588 107.765 5.21512 108.025 4.95424C108.291 4.68814 108.423 4.3728 108.422 4.00822L108.415 0.00822523L111.079 0.003479L111.086 4.00347C111.089 5.57639 110.203 6.46599 108.427 6.67228L108.436 12.0082L105.765 12.013Z"/></svg>