<svg fill="none" viewBox="0 0 238 105" xmlns="http://www.w3.org/2000/svg"><g fill="#000"><path d="m128.114.371657c-.709.438763-.844 1.755053-.135 1.755053.236 0 .608-.16876.844-.37126.271-.27001.439-.27001.608-.03375.135.23625.541.27 1.081.0675.473-.20251 1.182-.27001 1.587-.20251.372.0675.811-.03375.946-.2025.101-.20251.405-.10126.676.27.472.60752.506.60752.506.03376.034-.67502.743-.911281.743-.23626 0 .2025.169.30376.439.23626.237-.10126.777-.03376 1.216.135.608.20251.811.16875.811-.23626 0-.30376.168-.54001.371-.54001.169 0 .338.2025.338.43876 0 .20251.304.03375.709-.43876.455-.52186.683-.783428.629-.868467-.053-.0854552-.391.007353-1.068.193431-1.351.33751-4.492.270021-5.134-.134991-.405-.23625722-.574-.067502-.506.506265.034.438762-1.216.168755-1.655-.371261-.439-.506265-.473-.506265-.304.067502.135.33751 0 .708771-.236.843771-.237.13501-.304.13501-.135-.03375.337-.405009-.406-1.24878423-1.115-1.24878423-.338 0-.878.16875523-1.216.37126123z"/><path d="m123.791.641666c-.101.101254-1.081.236259-2.161.270011-1.182.033751-2.128.236263-2.297.506273-.135.27001-.608.37126-1.013.27001-.405-.10126-.743-.06751-.743.10125 0 .20251-.405.33751-.946.33751-.709 0-.844.10126-.506.47252.202.27001.27.57378.135.70878-.102.13501.135.23626.54.23626s.912-.27001 1.115-.60752c.303-.50627.405-.54002.675-.13501.236.37127.574.40502 1.52.10126.641-.20251 2.094-.47252 3.242-.60753 1.418-.135 1.959-.33751 1.79-.64127-.135-.27001-.068-.27001.27.03375.709.67502 1.756.54002 1.756-.23626 0-.472521-.337-.742531-.979-.877537-1.148-.202508-2.162-.168756-2.398.067503z"/><g clip-rule="evenodd" fill-rule="evenodd"><path d="m141.016 1.41798c-.203 0-.372-.13501-.372-.33751 0-.202511.642-.236262 1.486-.135009.844.101259 1.756.202509 2.06.202509.27-.03375.743.03375 1.047.135.439.16876.439.20251 0 .50627-.371.27001-.135.30376.777.13501 1.216-.20251 3.479.40501 3.479.91128 0 .10126.405.16876.945.16876.574-.03375 1.385.37126 2.196 1.14754.709.64128 1.587 1.2488 1.925 1.35005.337.13501.608.37127.608.54002 0 .20251.405.23626.945.10126.642-.13501.845-.10126.676.16875-.439.70878.675.47252 1.317-.30376.709-.81003 1.249-.84378 2.195-.135.946.70877 1.858.64127 2.06-.20251.135-.50627.406-.64127 1.014-.50627 1.587.37126 2.262.37126 2.972 0 .371-.20251 1.891-.40502 3.377-.43877.943-.04384 2.043-.08768 2.911-.12227l.003-.00013c.467-.01862.867-.03455 1.139-.04635.945-.03375 1.384.0675 1.351.33751-.169.74253.878.43877 1.08-.30376.102-.37127.372-.70878.608-.70878.237 0 .338.27001.203.54002-.237.60753.338.74253.675.16876.169-.23626.507-.20251 1.081.16875.54.37127.912.40502 1.047.16876.169-.23626.405-.23626.743.0675.27.23626.507.27001.507.06751 0-.50627 1.655-.77628 2.094-.33752.236.23626.506.20251.81-.0675.372-.27001.676-.27001 1.25.13501.608.43876.743.43876.912 0 .169-.37127.439-.43877 1.351-.16876.709.20251 1.283.20251 1.553-.03375.237-.16876.507-.23626.642-.10126.135.13501.236.06751.236-.135 0-.50627 1.284-.16876 1.79.47252.27.30376 1.081.47252 2.06.47252.912 0 2.162.16875 2.804.33751.608.20251 1.215.20251 1.317.03375.304-.47252 1.925-.13501 2.668.54002.608.54002.709.57377.709.0675 0-.43876.338-.54002 1.554-.50627.878.03375 1.486.20251 1.384.37127-.101.16875.169.2025.575.0675.472-.13501 1.013-.0675 1.317.20251s.878.47251 1.283.50627c.439.03375.811.23625.912.43876.068.23626.338.30376.574.20251.27-.10125.608 0 .743.23626.169.27001.372.20251.709-.23626.439-.60752.575-.60752 2.432.40501 1.756.94504 2.06 1.01254 2.736.60753.506-.30376.675-.33752.506-.0675-.202.30376.102.37126 1.013.23625.71-.0675 1.183 0 1.081.16876-.101.16876-.405.20251-.608.0675-.236-.135-.135.10126.237.54002.371.40502 1.047.74252 1.486.74252s.912.1688 1.047.3713c.101.2025.371.27.54.1687.338-.2025 1.723.5401 3.006 1.6201.371.3375 1.25.8775 1.891 1.2488 2.364 1.3163 7.126 5.8727 8.072 7.6953.338.6075.811 1.3163 1.081 1.5863s.405.6413.27.81c-.101.2025.034.3375.338.3375.743 0 1.722 2.1939 1.587 3.4764-.068.5738.101 1.2826.338 1.5863.506.6075.27 2.0251-.338 2.0251-.27 0-.236.1688.034.5063.473.5737.439 4.3876-.068 6.0414-.169.6076-.405 1.5189-.506 2.0926-.102.5738-.574 1.8901-1.047 2.9364s-.777 2.0926-.642 2.2951c.169.2362.101.3037-.101.1687-.203-.1012-.574.0338-.811.3038-.236.3038-.54.4725-.709.3713-.135-.1013-.169.2025-.101.6412.101.5738-.068.9113-.676 1.1813-.473.2025-1.047.9788-1.317 1.7213-.27.7426-.844 1.7214-1.317 2.1939s-.845 1.0125-.845 1.215-.304.3038-.709.2025c-.506-.135-.709 0-.709.405 0 .3375-.304.8438-.709 1.1138-.406.27-.71.7088-.71.9451 0 .27-.405.5737-.878.675-.506.135-.81.3713-.709.54.135.1688-.169.4725-.608.6413-.439.1687-1.216.7425-1.688 1.2488-.473.5063-1.115.9113-1.453.9113-.337 0-.709.2362-.81.54-.135.27-.439.5063-.71.5063-.303 0-.607.27-.743.5737-.168.5063-.303.5063-.81.1013-.338-.27-.473-.3038-.372-.1013.338.5738-.709 1.9239-1.519 1.9239-.372 0-.811.3037-1.014.6412-.405.7426-4.323 3.2401-5.099 3.2401-.304 0-.608.2701-.743.5401-.135.3375-.676.54-1.453.54-.844 0-1.249.1687-1.249.5063 0 .4725-1.824 1.62-2.601 1.62-.202 0-.878.405-1.52.8775-.641.5063-1.384.8776-1.688.8776-.507 0-4.323 1.9576-4.999 2.5313-.169.1688-.743.3038-1.249.3038-.507 0-1.25.3037-1.621.6413-.372.3712-1.486 1.0125-2.466 1.485-.979.4388-2.026.945-2.364 1.1138-.371.1688-.878.3038-1.182.3038-.27 0-.507.1687-.507.3375 0 .1687-.439.405-.979.4725-.54.1013-2.195.675-3.681 1.2488s-3.107 1.0125-3.614.945c-.608-.0675-.878.0338-.743.3375.169.4726-3.175 1.6876-3.918 1.4176-.27-.1013-1.047.2363-1.79.7088-.743.5062-1.486.81-1.688.7088-.203-.1351-.439-.0676-.575.135-.135.2025-1.249.675-2.533 1.08-3.208 1.0125-4.694 1.5188-5.37 1.8563-.303.1688-1.182.405-1.958.54-.743.135-1.52.3713-1.723.5063-.642.4725-3.343.7425-3.343.3038 0-.2025-.304-.0338-.642.3712-.405.5063-1.148.8101-2.162.9113-.878.0675-1.654.27-1.79.4725-.168.3038-3.613 1.4851-4.12 1.4176-.101 0-.642.1687-1.148.3375-1.858.675-6.282 1.8563-7.7 2.0251-.811.0675-2.162.405-3.04.7088-.878.3037-2.128.675-2.803.7762-.709.1013-1.486.3038-1.79.4726-.304.1687-1.115.3712-1.824.4725-.709.135-1.689.3712-2.229.5737-.675.2701-1.182.2701-1.689-.0337-.405-.2025-.641-.2363-.506-.0338.304.5063-.507.7426-1.959.6413-.642-.0337-1.284.0675-1.385.2363-.135.1687-1.249.54-2.499.81-.937.2278-1.95.4556-2.584.598-.211.0474-.38.0855-.489.1108-.575.135-.777.0337-.777-.3713 0-.3037-.169-.4725-.372-.3375-.202.1013-.27.3713-.169.54.203.3375-.236.4726-3.681 1.0466-1.249.236-2.33.303-2.432.202-.135-.101-.439 0-.709.203-.27.236-1.418.472-2.499.573-2.905.203-3.4449.271-3.8839.541-.7768.506-5.3024.708-5.5726.27-.2027-.304-.4053-.237-.7093.202-.3377.439-1.0469.608-2.5667.675-1.1821.034-2.2966.169-2.533.304-.2365.135-1.6549.236-3.1747.202-1.5198 0-3.1747.068-3.6813.203-.6079.169-1.0808.067-1.4185-.27-.4053-.473-.5066-.473-.8443 0-.2364.304-.8444.506-1.351.472-1.2158-.101-1.6548-.101-9.3889.068-3.5462.101-6.552 0-6.6534-.169-.1013-.169-.439-.169-.743 0-.6417.371-3.5462-.101-4.2554-.675-.3715-.304-.4728-.27-.4728.169 0 .54-.3378.574-2.7357.439-1.925-.135-2.7356-.338-2.668-.608.1013-.337-.0338-.304-.4391.034-.4728.371-.6417.337-1.0807-.203-.269-.34-.3952-.5-.424-.484-.0255.014.0249.166.12.451.2026.573.1351.641-.6079.405-.4728-.135-.9794-.439-1.1145-.675-.1689-.27-.4391-.27-.8781-.034-.8106.472-2.6681.27-2.3642-.236.1689-.237.0676-.304-.2026-.135-.2364.168-.6079 0-.9119-.372-.304-.405-.5066-.472-.5066-.236 0 .27-.4728.439-1.047.439-.5741 0-1.1145-.169-1.2158-.439-.1351-.338-.2702-.338-.4728 0-.2027.27-.7093.304-1.5536.101-.6755-.135-1.0807-.304-.8781-.337.2026-.034.0338-.203-.3377-.338-.4053-.169-.9119-.169-1.1146.034-.2701.202-.5066.169-.6754-.101-.2027-.304-.1351-.338.2364-.135.3715.202.4053.168.0675-.169-.2364-.236-1.182-.473-2.1277-.473-.9456-.033-1.8237-.202-1.9588-.371-.1013-.2023-.6755-.3711-1.2159-.4048-1.6886-.135-1.925-.1688-1.8237-.4388.1351-.4388-.2027-.5063-.9457-.2362-.439.1687-.743.1012-.8443-.1688-.0676-.2363-.2702-.3038-.4391-.2025-.2026.1012-.7092-.2025-1.2158-.675-.6079-.6076-1.1821-.8438-1.8575-.7763-.5404.0675-1.0808 0-1.1483-.135-.4728-.6075-2.1953-1.4513-2.9721-1.4513-.4728 0-.9794-.27-1.0807-.5738-.1351-.3375-.3377-.5063-.4391-.3713-.1351.1013-.439-.0337-.743-.3037-.6079-.6413-1.3171-.675-.9456-.0675.1351.2362-.2027 0-.743-.5738-.5742-.54-1.2496-.8775-1.5198-.7763-.304.1013-.5742-.1012-.6755-.5062-.1013-.4051-.304-.7426-.4391-.7426-.135 0-.8105-.4725-1.4522-1.0463-.6417-.5737-1.24961-.9788-1.35093-.9112-.06755.1012-.47283-.2026-.91188-.6751-.40528-.4387-1.38471-1.1475-2.16149-1.5525-.74301-.405-1.41848-.9788-1.45225-1.2826-.10132-.7088-2.60055-3.7126-3.10714-3.7464-.30396-.0337-.30396-.0675 0-.2025.50659-.2025.16886-1.5525-.37151-1.5525-.30396 0-.30396-.0675 0-.27.5066-.3376 0-1.8564-.60792-1.8564-.303959 0-.270186-.135.033774-.54.405279-.4725.270186-.675-.40528-.5738-.1350927 0-.1688659-.2362-.1350927-.5737.0675466-.3375.1688667-.6076.1688667-.6076.033773 0 .10132-1.1475.168866-2.565.033773-1.4176.168866-2.6664.270186-2.7677.135093-.135.067547-.7087-.10132-1.3162-.168866-.5738-.202639-.9788-.101319-.8776.135093.135.709239-1.1475 1.283389-2.8013.57414-1.6538 1.41847-3.5777 1.85753-4.2527.47282-.675.77678-1.4513.67546-1.7213s0-.5738.23641-.7425c.30396-.1688.37151-.1013.16887.2025-.20264.3375-.16887.3712.20264.135.27019-.1688.64169-.3038.81056-.3038.20264 0 .47282-.4725.60792-1.0125.16886-.5738.5066-1.2826.81056-1.6201.27018-.3038.57414-.7088.64169-.9113.06754-.2025.30396-.3375.54037-.3037.27019.0337.47283-.2025.47283-.4726 0-.3037-.20264-.405-.47283-.2362-.30396.1687-.27019.0675.06755-.3375.23641-.3375.60792-.5063.77678-.405.16887.1012.33774-.0338.33774-.3376 0-.3037.16886-.6412.40527-.7762.2364-.1688.304-.1013.1351.135-.1351.2362-.1351.405 0 .405.3377 0 1.9251-1.8563 1.9251-2.2276 0-.4388.9456-1.3163 1.4522-1.3163.2364 0 .3378-.0675.2027-.2025-.1014-.135.439-.675 1.2158-1.2488s1.6887-1.2825 2.0264-1.5526c1.6549-1.485 2.8707-2.295 3.4111-2.295.304 0 .5741-.2363.5741-.5063 0-.3375.3715-.4725 1.2159-.4388.8443 0 1.2496.2025 1.2496.54 0 .3038-.1013.4051-.2364.3038-.1351-.135-.4053.1013-.6417.54-.2027.4388-.743.8438-1.1821.9113-.4053.0675-.7768.27-.7768.4388 0 .2025-.2364.3375-.5066.3375-.2701 0-.6079.3038-.743.7088-.1013.405-.3715.7087-.5741.7087-.2027 0-.6079.2363-.9119.5401-.304.3037-.7768.4725-1.047.3712-.2702-.1012-.4052-.0337-.3039.1688.1351.1687.0337.3375-.1689.3375s-.304.1688-.1689.3375c.1014.2025-.0337.3713-.3715.3713-.3377 0-.4728.1687-.3039.405.1688.3037.0675.3375-.3715.2025-.304-.135-.5066-.1013-.4053.0675.2364.405-2.9721 3.6114-3.3773 3.3751-.1689-.1012-.2365.0338-.1351.3038.1351.3375-.1014.6075-.608.7088-.439.135-.70919.3037-.5741.4387.304.3038-1.8913 2.6326-2.46544 2.6326-.40528 0-.43906.135-.10132.54.33773.4051.23641.6076-.5066 1.1138-.5066.3038-.87811.7763-.77679.9788.06755.2025-.16887.6413-.47282.9113-.97943.8775-3.10715 6.379-3.30979 8.6403-.13509 1.1476-.30396 2.1601-.3715 2.2951-.06755.135 0 .5738.13509.9451.13509.405.10132 1.08-.13509 1.5525-.23641.5738-.23641.8775 0 1.0463.54037.3375 1.28338 2.8014 1.0132 3.2401-.10132.2025-.03378.3713.16886.3713s.47283.4388.57415.9788c.33773 1.3838 1.28338 2.9026 1.82376 2.9026.23641 0 .47282.135.47282.27 0 .1687.57415.9113 1.24961 1.6538 1.18207 1.3163 1.41848 2.0926.40528 1.4176-.23641-.1688-.13509-.0338.23641.3375.40528.3712.77679.5062.84434.3037.10132-.3375 3.74883 1.6876 4.35673 2.3964.4391.5062 2.094 1.1475 2.4317.9113.2364-.135.3715-.0675.304.1687-.1351.5063 2.3303 1.9238 5.7076 3.2401 2.8708 1.1138 4.1204 1.6201 5.0998 2.1264.3377.1687.6755.135.8106-.0675.1013-.1688.3715-.3375.5741-.3375s.2364.1687.1351.3375c-.1351.2362.2364.3712.8443.3712s1.1145.1688 1.1145.3375c0 .2025.2365.2701.5404.135.304-.1012.8444.1013 1.2496.4388.6755.6075.7093.6075.4729-.0337-.1689-.6076-.1351-.6413.2701-.1688.2365.3038.7093.54 1.0132.5063.2702 0 .8106.2362 1.1821.54.4053.3038.5742.3375.4391.1012-.1689-.27-.0676-.4387.2701-.4387.304 0 .7093.27.8782.6413.2364.4387.7092.6075 1.6211.54.7092-.0338 1.2834.1012 1.2834.3033 0 .203.3715.27.8105.169.4728-.135.9457-.101 1.1145.034.304.337 1.0132.371 1.2496.034.1014-.135 1.0808.067 2.2291.405 1.1145.337 2.1277.506 2.229.303.3377-.54 1.2159-.337 1.2159.27 0 .439.1013.473.4728.169.2702-.202.5741-.27.7092-.135s1.8913.27 3.8839.338l.7632.026.0015.001c3.0191.105 3.6661.128 4.3077.079.1747-.013.3489-.031.5706-.055h.0012l.1648-.018c.6417-.067 1.047 0 .9457.169s.7768.203 1.9588.068c1.2159-.135 2.1953-.102 2.1953.067 0 .372 2.3979.338 3.276-.033.3377-.136.8781-.136 1.2159 0 1.182.472 2.6005.573 2.6005.202 0-.405 3.6137-.304 4.6945.135.3715.169.8781.068 1.2496-.236.6417-.54 2.4654-.608 3.2422-.101.3378.168.4053.135.2364-.136-.1688-.236-.0337-.405.304-.405s.4728.169.3715.338c-.1351.236.2026.203.7768-.034.5404-.236 1.9588-.439 3.1071-.472 1.1821-.034 2.7357-.203 3.4787-.338 1.1483-.236 1.3171-.202 1.3171.405 0 .371.2027.709.4729.709.3039 0 .439-.27.3377-.675-.1689-.506.0338-.641 1.0132-.709 1.9926-.101 2.229-.135 2.6005-.337.2027-.135.6755-.169 1.047-.102.4053.068.9119-.067 1.1821-.2696.3039-.27.439-.27.439 0 0 .3036.2364.3036.8781 0 .7768-.3375 1.0132-.3037 1.79.4386.4729.439.8779.641.8779.405 0-.202-.27-.54-.6077-.7423-.5066-.3038-.5404-.3713-.1013-.405.304-.0338.811-.0338 1.182 0 .338.0337.878-.135 1.148-.3713.304-.2363.608-.3375.743-.2025.102.1013.608.0337 1.081-.1688.507-.1687 1.824-.405 2.905-.5062 1.08-.1013 2.397-.3713 2.938-.5738.54-.2025 1.587-.3713 2.398-.405.777-.0338 1.418-.2025 1.418-.3713 0-.1687.406-.2025.878-.0675.473.1013.912.0675.98-.1012.067-.1688 1.452-.5738 3.141-.8776 1.655-.3375 3.309-.675 3.715-.7762.484-.1075 1.529-.329 2.731-.5839l.003-.0005c1.062-.2253 2.248-.4766 3.277-.6982.98-.2025 2.263-.5738 2.871-.8438s1.621-.54 2.263-.6075c.608-.0338 1.216-.2025 1.317-.3375.068-.1688.608-.3038 1.148-.3038.575 0 1.655-.2025 2.466-.5062.81-.27 1.486-.4051 1.486-.27 0 .135.169.0337.371-.1688.237-.2363.608-.3375.845-.2363.27.1013.574.0338.675-.1687.135-.1688.541-.27.946-.1688.371.135.709.0338.709-.2025 0-.2025.304-.405.709-.405.372 0 .71.1688.71.3713s.27.1687.709-.0675c.371-.27.709-.6413.709-.8776 0-.2025.405-.4725.946-.5737 1.823-.3713 4.188-.9788 4.897-1.2826.371-.1687 1.722-.5738 3.006-.9113 1.283-.3375 2.6-.7425 2.938-.945.371-.1688 1.351-.4725 2.229-.6413 1.317-.2362 1.587-.2025 1.587.3038 0 .4725.068.4725.372-.0675.54-.9113 4.255-2.4976 4.694-2.0251.541.54.946.4388.709-.1688-.202-.54 1.047-1.215 2.533-1.3838.406-.0675 1.081-.3037 1.52-.54.439-.2362 1.149-.3375 1.554-.2025s.675.1013.54-.0675c-.101-.1687.237-.5063.709-.7425.811-.3713.879-.3375.71.27-.102.405-.034.7088.135.7088.202 0 .338-.3038.338-.6413 0-.8775 1.519-1.5863 2.127-1.0126.338.3038.406.3038.203 0-.304-.5737.642-1.0462 2.6-1.3163.845-.1012 1.723-.4725 1.959-.7762.203-.3038 1.115-.7088 1.959-.9113.844-.1688 1.756-.6075 2.027-.9451.236-.3375.439-.4725.472-.3037 0 .1687.237.135.541-.135.439-.3713.641-.3375 1.08.2362.507.6413.541.6413.44-.0337-.068-.5063.135-.7425.675-.8438.439-.0337.811-.3037.811-.5738 0-.405 1.283-.9787 2.296-1.0462.203 0 .439-.1351.54-.2363.473-.5738 5.843-3.1726 6.553-3.1726.439 0 1.249-.3713 1.823-.8776 1.621-1.4175 1.858-1.5863 2.263-1.5863.203 0 1.013-.4725 1.824-1.08.81-.5738 1.689-1.0463 1.925-1.0463s.507-.135.574-.27c.135-.3375 1.993-1.4513 3.209-1.9238.54-.2025.979-.5063.979-.6751 0-.1687.203-.3375.473-.3375s.777-.3037 1.114-.7087c.439-.4388.912-.6413 1.351-.4726.439.135.608.0675.473-.1687-.304-.4725 2.195-2.9026 2.972-2.9026.203 0 .473-.2025.574-.4725.102-.3038.473-.4051.878-.3038.406.1012.676.0337.642-.135-.135-.8438.068-1.2488.574-1.0463.304.1013.473.0675.372-.1013-.169-.27 2.87-3.3413 3.445-3.4426.084-.0211.234-.0422.385-.0632.09-.0127.18-.0254.256-.038.203-.0338.27-.2025.169-.3713-.135-.2025.101-.4388.507-.5738.709-.2025.844-.54.743-1.6875-.068-.4051.169-.6076.641-.6076.439 0 .743-.2362.743-.54 0-.27.237-.54.507-.54.608 0 1.283-1.08 1.621-2.6326.135-.6075.405-1.0463.608-1.0125.676.1687 1.486-1.1476 2.364-3.7802.811-2.4976.878-3.7801.169-3.3414-.507.3376-.338-.5737.236-1.1475.608-.6075.71-2.1263.169-2.2951-.439-.1687-.743-1.5863-.472-2.2951.168-.4387.27-.4725.506-.0675.203.3038.304.1013.304-.675 0-.6075-.135-1.215-.338-1.3501-.202-.1012-.337-.5062-.337-.9112 0-.3713-.237-.6751-.541-.6751-.27 0-.608-.2025-.743-.405-.169-.27-.067-.3375.304-.2025.405.135.507.0675.372-.3037-.102-.2701-.338-.4051-.507-.3038-.169.1012-.304-.0338-.304-.3375 0-.3038-.27-.675-.608-.8776-.371-.2025-.506-.5737-.371-1.08.202-.7425-.811-1.6876-1.284-1.215-.135.135-.236-.1013-.236-.5401 0-.405-.304-.945-.709-1.1813-.406-.27-.71-.6075-.71-.7762 0-.4388-1.925-2.1264-3.917-3.4089-1.351-.8775-1.892-1.0463-2.196-.7425-.506.4725-.979.5062-.979.0337 0-.2025.135-.3037.27-.27.135.0675.27-.0675.304-.27 0-.2025-.979-.7763-2.229-1.3163-1.249-.54-2.195-.81-2.06-.6075.101.1687-.034.2362-.372.1012-.303-.1012-.472-.3037-.371-.405.405-.405-1.317-1.1813-2.837-1.2825-.878-.0675-1.891-.3713-2.263-.7088-.506-.4725-.709-.5063-.844-.135-.135.3375-.203.3037-.203-.1013-.034-.5737-.945-.675-1.79-.1687-.337.2025-.405.1687-.236-.1013.135-.2362.101-.405-.101-.405-.203 0-.372.2363-.372.5063 0 .3375-.236.4387-.574.3375-.304-.135-.473-.4388-.372-.7088.135-.33751-.067-.40501-.844-.27001-.675.13501-1.047.06751-1.047-.16875s-.27-.40502-.54-.40502c-.304 0-.541.16876-.541.40502 0 .47256-1.823.0675-2.195-.47252-.27-.43877-2.06-.74253-2.06-.33751 0 .40501-2.499.135-3.04-.33752-.27-.23626-.506-.30376-.506-.16875 0 .135-.304.0675-.642-.13501-.473-.23626-.811-.20251-1.081.10126-.304.27001-.506.30376-.675.03375-.405-.60753-1.452-.87754-1.723-.43877-.169.27001-.067.30376.271.10125.371-.2025.405-.16875.033.20251-.337.37127-.54.37127-1.047-.10125-.439-.40502-.81-.47252-1.148-.27001-.27.16875-.642.23626-.811.135-.168-.10125-.54 0-.81.20251-.27.23626-.676.30376-.946.13501-.27-.13501-.743-.23626-1.08-.16876-.338.03375-.608-.0675-.608-.27001s-.169-.40502-.372-.40502-.338.23626-.338.54002c0 .43877-.878.50627-5.234.50627-3.074-.03375-5.438-.2025-5.708-.40501-.304-.27001-.608-.20251-1.081.20251-.338.33751-.743.50627-.878.37126-.101-.135-1.351-.27001-2.736-.33751-1.384-.03375-2.6-.16876-2.735-.30376-.102-.10126-.372.03375-.574.33751-.237.27001-1.115.57377-1.993.60752-.878.0675-1.756.20251-1.959.33751-.54.33752-3.006.27001-3.006-.10125 0-.50627-.979-.37126-1.317.13501-.135.27001-1.081.64127-2.06.81002-1.047.2025-1.722.5063-1.689.7763.068.2362-.304.675-.777.9788-.472.3375-.776.7763-.675 1.0463.169.4387 0 .4725-1.25.2025-.067 0 .304-.5738.811-1.2488l.946-1.2151-.811-.54c-.608-.43876-.844-.47251-.946-.135-.236.7763-.844.9788-2.026.7763-.608-.1013-1.216-.0338-1.351.1687s-.473.27-.743.1688c-.304-.1013-.777 0-1.047.2363-.439.3375-.743.3375-1.587 0-1.284-.5063-2.398-.3038-3.58.7087-.507.4388-1.216.7088-1.79.6413-.507-.0337-1.182.1013-1.486.3713-.338.27-1.013.405-1.554.3712-.574-.0675-1.182 0-1.384.1013-.203.135-.608.1012-.879-.0675-.337-.2025-.709-.135-1.114.2362-.338.3038-1.115.6076-1.689.6076-.608.0337-1.148.2362-1.216.4387-.101.2025-1.182.5063-2.398.6751-1.249.1687-2.364.3037-2.499.3037-.135.0338-.337.1688-.506.3038-.541.54-1.419.2362-2.027-.7088l-.641-.9788.202.9113c.304 1.4176-.202 1.7551-2.735 1.8563-1.318.0675-2.567.3038-2.804.54-.236.2363-.641.4051-.911.4051-.271 0-.406.1687-.304.3037.101.1688-.203.5063-.71.7088-1.182.54-1.553.54-1.553-.1013 0-.27-.169-.6075-.372-.7425-.236-.135-.337.0338-.27.4388.169 1.0463-.371 1.5188-1.689 1.5188-.709 0-1.688.3375-2.296.7763-.98.7425-1.081.7425-1.723.1687-.608-.54-.709-.54-1.215-.0675-.304.3038-.777.54-1.047.54-.304 0-.608.3375-.71.7426-.135.4725-.439.7087-.844.6412-.372-.0337-1.216.27-1.891.6751-.676.4387-1.453.7762-1.689.7762s-1.4185.5063-2.6343 1.0801c-1.1821.5738-2.7018 1.0463-3.3098 1.0463-.6417 0-1.3509.27-1.5873.5737-.2702.2701-.5404.4388-.6417.3376-.1013-.1013-.6417.1012-1.2158.4387-.8444.4725-1.1146.5063-1.2497.1688-.1013-.3038-.6079-.0338-1.5535.7763-1.6211 1.485-1.8576 1.5188-2.3642.4725-.1762-.3684-.2689-.562-.3248-.5519-.0619.0112-.0787.2721-.1142.8219-.0338.5738-.0676 1.1475-.0338 1.2825.0338.3375-2.0939 1.0463-2.4654.8101-.1689-.1013-.304-.0338-.304.1687s-.6079.5063-1.3509.7088-1.5198.675-1.7562 1.08c-.2702.4051-.7093.6413-1.1483.5401-.4728-.0675-.9457.2025-1.4523.9112-.4052.5738-.9456 1.0463-1.1483 1.0463-.2364 0-1.2158.4051-2.1615.8776-.9456.4725-1.8575.81-2.0264.675-.1688-.1013-.3039.1688-.3039.5738 0 .6075-.1689.675-1.1145.54-.8444-.1688-1.047-.1013-.9457.405.0338.3038-.1351.6413-.4053.7425-.3039.1013-.4052.0338-.2364-.2362.1351-.2025.0676-.405-.1351-.405-.2026 0-.3715.5062-.3715 1.08s-.1351 1.0463-.3039 1.0463c-.1689 0-.743.5063-1.3172 1.08-.5741.5738-1.3171 1.0463-1.6211 1.0463-.9457.0338-1.7224.405-1.5198.7425.1013.1688-.1689.6751-.6079 1.0801-.4053.4388-.8106 1.1813-.8781 1.6538-.0338.4725-.3378 1.1475-.6417 1.4851-.304.3375-.5404.8437-.5404 1.1812 0 .3038-.4053.8776-.8781 1.2488-.5066.3713-.7768.8101-.6417.9451.1351.1687-.1013.1687-.5066.0337-.7092-.2025-.743-.135-.6079.8438.1013.5738-.0675 1.5188-.3715 2.0926-.6079 1.1475-1.3509 1.8226-1.1821 1.0463.0676-.3038-.2026-.4388-.7092-.3375-1.047.135-1.047-.9451-.0338-3.0376.4053-.8438.6417-1.6539.5404-1.7551-.1351-.135.1689-.5738.6417-1.0125.4728-.4388 1.1145-1.4176 1.4185-2.1601.3039-.7426.743-1.4851.9794-1.6201.3377-.2025.3377-.3713.0338-.675-.2365-.2363-.3378-.6413-.2027-.9113.1351-.405.2364-.4388.4391-.1013.3715.5738 1.0807.1013 1.0807-.7087 0-.3713.2364-.7426.5066-.8438.304-.135.5404-.4388.5404-.7425 0-.2701.3377-.5738.7768-.6076.4053-.0675.9118-.4387 1.1483-.8437.2026-.3713.8443-1.1476 1.3847-1.6876.9794-1.0125 1.0132-1.0125 1.7224-.3713.3507.3027.5359.4625.5733.4333.0418-.0327-.1013-.3018-.4044-.872-.5404-1.0801-.5066-1.1138.439-1.6539.7093-.4387 1.0808-.4725 1.351-.2362.2701.27.6079.1687 1.1145-.3375.439-.4388.7768-.8776.7768-1.0463 0-.405 1.6548-1.8563 2.1277-1.8563.1688 0 .3377-.135.3377-.3038s.3715-.2025.8443-.135c.6417.135.9119-.0338 1.0808-.54.3039-.9451 2.2966-1.8901 3.0733-1.4513.8782.4725 1.047.405 1.047-.3713 0-.3713.1013-.7763.2702-.8438.4391-.27 1.2496.3375 1.0132.7426-.1351.2025 0 .4725.304.5737.3715.135.5403-.0675.5403-.81 0-.81.1689-1.08.9457-1.2488.5404-.135 1.3171-.5738 1.7562-.9788.5404-.5063 1.0132-.6413 1.5536-.4725.6754.2363.7768.1688.6079-.4725-.1351-.5063-.0338-.7763.3039-.7763.2702 0 .5066-.1013.5066-.27 0-.1688.5404-.3038 1.2497-.3038.7092-.0337 1.5535-.3037 1.925-.6412.4053-.3713.9457-.5063 1.351-.3713.5403.1687.743 0 .9118-.7088.2027-.7088.4391-.9113 1.047-.81.4728.0675 1.1145-.1688 1.4523-.5063.6417-.675 2.3303-.8438 2.3303-.27 0 .2025.2364.3375.5404.3375.2702 0 .4728-.1687.439-.4388-.0675-.2362.1689-.405.4729-.3375.3039.0338.7768-.3037 1.0132-.81.5066-.9113.5745-.945 2.3305-1.0463.574-.0337 1.486-.3375 1.992-.675 1.554-1.0125 3.141-1.3501 3.749-.7425.642.6412 1.149.405.946-.4388-.169-.7088 1.52-1.7213 1.722-1.08.102.3375 1.588-.2701 2.061-.8438.439-.54 1.688-.6413 2.093-.135.575.675 1.453.7087 1.453.0337 0-.6413 1.216-.945 1.756-.4387.304.3037.338.27.203-.1351-.372-.9112 4.39-3.0038 4.93-2.1263.338.54.912.4725.912-.1012 0-.27.372-.6413.845-.8776.709-.3037.979-.3037 1.418.135.439.4388.642.4051 1.554-.3712 1.182-.9788 4.053-1.5526 7.565-1.4513 1.587.0675 2.094-.0675 2.094-.4388 0-.33751.27-.43877.844-.33751.507.10125.946.03375.98-.10126.067-.16875.337-.33751.641-.40501s.642-.23626.743-.40502c.338-.43876 1.486-.54002 2.229-.135.507.23626.743.20251 1.014-.23626.371-.70878 1.654-.74253 1.925-.03375.304.77628.945.64127.709-.20251-.135-.50627 0-.70878.54-.70878.473 0 .642.20251.541.50627-.135.33752.101.57378.675.67503.811.135.844.10125.304-.43877-.743-.84378-.067-1.3838 1.891-1.5188.811-.03376 1.486-.20251 1.486-.37127 0-.135.338-.27001.743-.27001.333 0 .517 0 .539-.06052.029-.0747-.189-.24158-.674-.61442-.709-.57377-2.262-1.38389-3.073-1.58639-1.148-.30376-1.756-.67503-1.587-.94504.101-.16876-.406-.30376-1.149-.33751-2.161 0-2.6-.0675-2.364-.47252.169-.20251 0-.23626-.439-.0675-.371.16875-.878.27001-1.114.23626-1.284-.10126-1.486-.16876-1.318-.43877.102-.16876.034-.30376-.168-.30376zm88.655 16.90972c-.439-.5738-.744-.7766-.744-.4729 0 .0675.271.3376.608.6076.287.2194.431.3291.448.3122s-.093-.1599-.311-.4458zm-155.7967 16.0315c-.1688.5738-.1351.7088.1351.4388.2027-.2025.304-.5738.2364-.81-.1013-.2701-.2702-.1351-.3715.3712zm88.9927 51.4032c.236 0 .507-.1688.642-.3713.27-.4387.135-.4387-.541 0-.304.2363-.371.3713-.101.3713z"/><path d="m113.693 2.56555c-2.567.43876-5.269 1.38378-5.471 1.89004-.304.74252 1.249.97878 3.005.47251 1.689-.50626 1.993-.57376 2.837-.64126.879-.0675 1.689-.87752 1.453-1.45128-.203-.47251-.541-.50626-1.824-.27001zm-.912.97877c.135.20251 0 .27001-.338.13501-.608-.23626-.709-.50626-.202-.50626.169 0 .439.16875.54.37125zm-3.175 1.04628c.102.2025.034.37125-.169.37125-.202 0-.371-.16875-.371-.37125 0-.16876.067-.33751.169-.33751.067 0 .236.16875.371.33751z"/><path d="m106.128 4.8606c.473 0 .912-.135 1.013-.30376.27-.43876.338-.37126.405.37127.034.50627-.135.60752-.641.47251-.473-.10125-.676 0-.676.40502 0 .30376-.135.57377-.27.60752-.068 0-.22.01688-.41.03797-.19.0211-.418.04641-.637.06328-.439.06751-.811-.03375-.811-.2025 0-.16876-.169-.30376-.371-.30376-.203 0-.27.16875-.169.37126.236.37126-1.351 1.28255-2.702 1.55256-.439.10125-2.0939.57377-3.6474 1.08004-1.5536.50627-3.276.87753-3.8164.77628-.7093-.10126-.9119-.03376-.743.33751.2364.675-.0676.6413-1.2159-.1013-.743-.47247-.8781-.50622-.743-.10121.1013.30381.4053.50631.6755.43881s.2026.135-.2027.4387c-.3715.3038-.8443.54-1.0469.5063-.2027 0-.1689-.1013.0675-.2025.6079-.2363.5404-.8438-.1013-.8438-.4728 0-.6417.3713-.4391.9788.0676.135-.4728.3713-1.1483.5063-1.3171.27-2.0264-.2363-1.3847-1.0126.3715-.405 4.1204-1.68754 4.6608-1.58629.1351.03375.2702-.10125.2702-.30376 0-.16876.2364-.33751.5403-.33751.304 0 .4728.16875.3378.33751-.1014.20251-.1351.37126-.0338.37126s.439.10126.743.23626c.4053.13501.5741.03375.5404-.27001-.1689-1.01253.0337-1.3838.6754-1.3838.3715 0 1.351-.23626 2.1953-.54002.8781-.30376 1.9926-.57377 2.533-.60752.5063 0 .8783-.13501.8103-.27001-.202-.30376 4.492-1.51881 5.742-1.51881zm-9.1528 3.27387c.2026 0 .4052-.135.4052-.33751s-.1013-.37126-.1688-.37126c-.1014 0-.2702.16875-.3715.37126-.1351.20251-.0676.33751.1351.33751z"/></g><path d="m84.3778 11.4084c-1.1483.3712-1.79 1.5188-1.1483 1.9238.2026.135.7092.0675 1.1483-.135.4053-.2025 1.0469-.4726 1.3847-.5738.6754-.2363.8443-1.6538.1688-1.5863-.2364 0-.9456.1687-1.5535.3713z"/><path d="m81.0004 14.5135c-.7768 0-.6417-.9788.2364-1.6201.5404-.405.7092-.3713 1.0807.135.4053.5063.3715.675-.1013 1.0463-.3377.27-.8781.4388-1.2158.4388z"/><path d="m79.3455 13.4334c-.3715.2025-.3715.3713-.1013.54.2364.1351.304.4051.2026.5738-.135.2025-.0337.3375.1689.3375s.3715-.135.4053-.27c0-.135.0675-.54.1351-.8775.1351-.675-.1014-.7763-.8106-.3038z"/><path d="m146.993 18.9011c.304.0675 2.229-2.1601 3.58-4.1177.878-1.3163 1.25-1.485 2.229-1.1138.439.1688.439.3038-.135.8776-.371.3712-.878.675-1.114.675-.203 0-.304.135-.169.2363.135.135-.101.54-.507.8775-.405.3375-.675.675-.608.7763.135.2025-2.465 3.0714-2.803 3.0714-.101 0-.506.27-.878.6075-.608.54-.642.54-.642 0 0-.3375.203-.54.439-.5063.271.0675.44-.2362.406-.675s.067-.7763.202-.7088z"/><path d="m219.167 14.176c.101.135.506.3712.945.4725.575.135.642.1012.372-.2025-.473-.4725-1.587-.7088-1.317-.27z"/><path d="m60.8378 21.7362c0-.5062 4.7958-2.8351 11.1789-5.4677 4.2217-1.7213 5.0323-1.9575 5.4713-1.5525.3715.3712.4053.6075.0675 1.0125-.439.5063-1.2496.5738-1.6886.1013-.4391-.4388-.9119-.2363-.7093.27.2365.6075-2.7356 2.1601-3.3773 1.755-.2702-.135-.3039-.1012-.1688.1688.1688.2363 0 .5063-.3716.6075-.3715.135-1.182.4725-1.8575.81-.8105.4051-1.2496.4388-1.3509.2026-.0676-.2363-.5066-.3376-.9794-.2363-.5066.1013-.7768.3375-.6755.6413.2026.4387-2.4655 1.9238-3.4449 1.9238-.2364 0-.6417.27-.9119.6075-.4052.54-.5066.5738-.8105.1013-.2027-.3038-.3715-.7088-.3715-.9451z"/><path d="m58.1022 22.58c-1.6211.8101-1.79 1.0126-1.4185 1.4851.1824.2484.2752.375.2586.3915-.0172.0172-.1523-.084-.4274-.2903-.4729-.3712-.8106-.3712-1.8913.1013-1.0808.4388-1.2497.6413-1.0808 1.3163s.1351.7425-.2026.27c-.3715-.5063-.5742-.5063-2.2291.3038-1.5873.7762-1.7224.9112-1.0807 1.1813.5404.2362.5066.27-.2702.135-.9794-.2025-3.1409.7087-6.0117 2.5313-.743.4725-1.3509.7425-1.3509.6413 0-.135-.4053.1012-.9119.5062-1.1145.8776-1.1483 1.2151-.0675 1.4851 1.047.27 9.3214-3.8476 10.2333-5.0964.1351-.1688.3377-.27.4728-.2363.4391.1013 2.3304-.81 2.3304-1.1475 0-.1688.1351-.2363.3377-.135.1689.135.5404 0 .8106-.2363.2364-.2363.7092-.5063.9794-.5738.304-.0675.7768-.3375 1.0808-.6075.3039-.27.8105-.5063 1.1145-.5063.3039 0 .7092-.3712.9119-.81.2364-.4725.4052-.5738.4052-.27.0338.4725.1014.4725.3715.0338.304-.5063.1351-1.4513-.2701-1.4176-.1351 0-1.0808.4388-2.094.945z"/><path clip-rule="evenodd" d="m38.8514 32.9417c.4052 0 .6417-.135.5403-.3375-.3039-.5063.6417-.4388 1.1483.0675.3378.3037.1013.675-.9119 1.5863-.7092.6412-1.5197 1.215-1.7562 1.215-.1013.0145-.2212.0289-.3412.0434-.1599.0193-.3198.0386-.4355.0579-.1689.0337-.8782.54-1.5536 1.1138-2.0602 1.8563-5.2349 2.7-4.2892 1.1812.1688-.27.1013-.3037-.1689-.135-.2364.135-.3715.5738-.3039.9788.0337.405-.2027.8776-.608 1.1138-.9118.54-1.2158.7425-2.5667 1.8226-.743.6075-1.3847.8438-1.8238.7087-.3715-.1012-.8443.0338-1.1145.3376-.2364.3037-.6079.54-.8443.54-.2027 0-.1689-.1688.1351-.3713.3715-.2025.3715-.3375.1013-.3375s-.4391-.135-.4391-.3038c0-.3712 2.4992-2.1263 4.5932-3.2738.8781-.4725 1.79-1.0463 2.0602-1.2826.439-.405.9456-.5737 1.5535-.5062.1351.0337.6079-.3713 1.047-.8438.4728-.4725 1.0132-.8775 1.2158-.8775.2027 0 .6755-.27 1.0808-.6076 1.0807-.9787 2.8369-1.89 3.6813-1.89zm-9.6254 6.7502c.1689 0 .3039-.2362.3039-.54 0-.27-.135-.54-.3039-.54s-.304.27-.304.54c0 .3038.1351.54.304.54z" fill-rule="evenodd"/></g></svg>