<svg xmlns="http://www.w3.org/2000/svg" viewBox="0 0 1160.79 396.24">
    <path d="M741.67 33.12l3-1.48v-2.89c3-2 6.41-1.72 9.54-1.66l2.01-2.09c2.77 1.76 5.92.83 9.06 1.1.2-.6.4-1.18.62-1.8.93-.15 1.35.9 2.45.84 4-.21 8-.06 12-.1.78 0 1.6.27 2.31-.45a3.41 3.41 0 013.73-.43c3.83 1.71 7.78.44 11.81 1a3.37 3.37 0 011.62 3.32c1.06-1.31 1-2.78 2.14-3.19a19.57 19.57 0 0110.38-1.06c1.13.88 1.8 1.94 1.18 3.37 1.64.92 3.18 0 4 .37l2-1.22c.25-1.35-.43-1.67-.84-2.15.22-.19.44-.53.66-.54 2.66 0 5.34-.15 8 0a6.88 6.88 0 004.14-1c2-.21 3 1 4.25 1.64a2.69 2.69 0 002.32.24c2.43-1.84 5-.52 7.35-1 .94 3-2.43 2.33-2.61 3-.24 1.63.12 1.88.75 2 1.37.1 1.5-1.59 2.77-1.85l1.55 1.62c1.57-1.45 1.57-1.45 1.4-3.65-1-.49-1.5.21-2.06.81-.73-.37-.63-1-.32-1.94 5.34 0 10.81.26 16.25-.07s10.63 2 15.91.94c1.55 1.82 4.06 1.46 5.16 3.23 4.39-1.65 8.56-4.12 13-2.94 3.76 1 7.39.51 10.77.87.87-.48.6-1 .7-1.52 2.55-1.74 5.26-.28 7.23.68 3 1.45 5.26.73 7.57-.63 1.1-.65 2.52-.49 3.07-1.88L939 27.28l2-2a4.56 4.56 0 003.28.76l2.44 3c6.23.29 11.84-1.79 17.58-.93 1.2.18 1.49-1.35 2.59-1 1.36 0 .21 2.12 1.59 2 1.63-.16.83 1.53 1.62 1.95 1.17.19 2.29.26 3.06-.91a2.57 2.57 0 002.58 1c.82-.07 1.68-.16 2.23.88 2.43-1.22 4.51-2.42 7.7-1.12 2.72 1.11 6.24.23 9.19.23 3.21 2.16 6.11 4 10.18 2.29 1.85-.77 4.2-.3 6.31-.48a13.67 13.67 0 015.33 1.19c2.34-1.79 5-.66 7.45-1 .58.57 1.05 1.05 1.52 1.52.4 1-.51 1.42-1.26 2.53 2.83-.58 5.12 2.7 7.72.08 2 1.24 3.85 3.11 6.38.86 1.27.61 2.63 1.63 4 1a12 12 0 019.71 0 5.78 5.78 0 002 0l1.8 1.8c.6.19.69-.46 1.09-.65 3.41 2.06 7 3.6 11 2.73l2 2h3.51c4.45 2.59 10 2.94 12.26 7.9 1.84.66 3.69-.42 5.33 1 1 .92 2.37-.28 3.45-.87 3 1.4 6.62 1.7 8.23 5 5.15 0 8.58 3.24 12.6 5.23 4.35 2.15 6 6.64 9.47 9.56a13.79 13.79 0 016.87 3.89c1.9 1.75 3.46 3.85 5.93 5 1.68.78 1.79 3 3.21 4.13 4.87 3.71 7.58 9.06 10.73 14.06a48 48 0 014 6.86 61.06 61.06 0 014.26 15.29c.63 4.57.59 9.06.85 14l-2.48 1.78c2 2 .92 4.74 2.55 6.49-.75 1.39-2 .46-2.77 1a2.52 2.52 0 00-.34.85v8c0 4-1 7.56-3.91 10.37-1.23 1.18-1.23 2.86-2.75 4.33-2.45.72-3.2 3.21-3.45 6-5.36 4.5-9.17 10.37-14.1 15.25-1.66 1.65-2.9 3.49-5.41 4.16-.77.9-.64 2.85-2.57 2.87-2.32 0-3.67 1.63-5.3 2.94-3.81 3-7.43 6.35-12.08 8.22a17.35 17.35 0 00-5.5 3.54 17.2 17.2 0 01-6 3.76c-3.48 1.33-5.85 3.91-8.32 6.42a13.85 13.85 0 00-6.92 2.75 21.13 21.13 0 01-7.05 3.43c-3.27 1-6.54 2.25-9 4.81a5.76 5.76 0 01-3.63 2c-3 0-5.41 1.61-8.14 2.25s-5 3-7.71 4.26c-9 4.4-17.83 9.24-26.89 13.56-6.24 3-12.73 5.48-19.19 8a11.73 11.73 0 00-3 1.34 22.41 22.41 0 01-5.83 2.8c-2 .71-4.42.77-5.86 2.86a3.75 3.75 0 01-1.66.69c-5.36 1.15-10.15 3.66-15 6.08-1.42.72-2.91.09-4.39.38-2 2.47-5 3.27-7.83 3.86-3.84.78-6.9 2.8-10.74 5-3.39-.75-6.94 1.42-10.68 2.51-2.58.75-5 1.95-7.68 1.54a7.43 7.43 0 01-3.45 2.52c-.45 1.1.69 1.42.85 2.45-2.59.46-4.9-1.79-6.82-1l-6.34 3.26c-1.43.5-1.87-1.65-3.17-1.12-.76.28-.46 1.07-.68 1.52-5.18 2.33-11 2.43-16 5a15.46 15.46 0 01-4.93 1.23c-3.82.51-7.19 2.12-10.6 3.51-1.93.78-4 .65-5.86 1.55a14.39 14.39 0 00-5 3.13 15.66 15.66 0 00-8.56 1.56c-1.87 1-4 .57-6 1.21s-3.69 2.58-6.1 2.24c-2.14-.31-3.91 1-5.87 1.51-2.12.52-4.08 1.76-6.39 1.47-1.75 2-4.11.33-6.06 1.14-1.21.52-1.5 1.84-2.16 2.88-.81-.16-1.68.3-2.35-.47a2.25 2.25 0 00-2.69-.36c-2.75 1-5.43 2.19-8.2 3.13-2.93 1-5.88 2.19-8.91 2.54a43.27 43.27 0 00-5.93 1.53 6.73 6.73 0 01-2.72.56c-1.44-.26-2.45.53-3.59 1.05-3.43 1.56-7.19 1.93-10.77 2.95-4.79 1.36-9.7 2.24-14.45 3.77-2.26.73-4.6-.06-7.26.48-2.18 1.85-5.42 1.94-8.39 2.76a39.72 39.72 0 01-6.56 1.2c-2 .22-4 1-6.1.82-1.37-.15-2.06 1.43-3.6 1.09-1.71-.38-3.12 1.52-5.08 1-1.76-.48-3.4.59-5.09.86s-2.63 1.71-4.17 2.09h-6.61c-4.61 2.81-9.8 3.29-15.05 3-3.21 2-6.57 3.5-10.33 3s-7.31 1.53-10.89 1a12.55 12.55 0 01-8.45 2.83c-3.91-.21-7.19 1.35-10.63 2.37a11 11 0 01-3.64.81 27.12 27.12 0 00-10.27 1.75c-1.64.56-3.59.31-5.4.25-2.48-.09-4.6.85-6.81 1.81-1-1.33-2.55-.66-4-.79l-1.76 1.77a3.36 3.36 0 01-.91.22 30.48 30.48 0 00-12.22 1.87 3.89 3.89 0 01-1.95.12c-4.45-.73-8.82.52-13 1.27-3.94.69-8.15.22-12 2.37-1.78 1-4.52.41-6.82.35s-4.47.23-6.26 1.94c-2.13.39-4.43-.43-6.55 1-.87.6-2.18-.05-2.76-1.29l-1.8 1.27-1.07-.91a3.14 3.14 0 00-1 .16c-3 1.9-6.22 3.3-9.81 2.78-2.4-.35-4.26 1.27-6.6 1.16-2.18-.09-4.61-.92-6.59.9-.09.08-.33 0-.49 0-4.12-.75-8 1.52-12.08.95-3.18-.45-6.16.53-9 1.26a13.39 13.39 0 01-5.13.71c-2.55-.38-4.56 1.49-7.1 1.15s-5.36-.85-7.41.11c-3.06 1.44-6.23.49-9.34 1.59-2.95 1-6.59.37-9.91.19-3.12-.18-5.91 1.51-9.1 1.12-2.95-.37-6 0-9-.12-1.51-.06-2.47 1.2-4.09 1.15-2.68-.1-5.27 1.36-8.08.9s-5.24 1.41-8.09 1.06-5.8-.63-8.46.05c-5.21 1.32-10.49.18-15.6 1a100.32 100.32 0 01-13.6.9c-1.89.05-3.55 1.29-5.6 1-1.71-.22-3.57-.42-5.1.92-.18.16-.64 0-1 0-6.57-.54-13 1.68-19.59 1.05-1.36-.14-3-.64-4.11.92-.11.16-.64.05-1 0-1.92-.15-3.5-1.84-5.86-.39-1.47.9-3.84.34-5.81.38-2.16 0-4.34.11-6.5 0s-4.21.68-6.13-.91a2.54 2.54 0 00-2.41 0c-2.59 1.85-5.44.78-8.13.86a25.35 25.35 0 01-7.64-.71c-3.26-.88-6.95-.12-10.44-.25-1.72-.06-3.51.65-5.17-.87a3.59 3.59 0 00-3.36 0c-1.83 1.17-3.75.68-5.61 1-.41.07-.73.61-1.06.92-2.9-.88-5.67-2.07-8.73-2-2.83 0-5.67-.07-8.5 0s-5.22-1.48-8.1-1.1-6 .9-8.41-.11c-3.73-1.55-7.79.54-11.22-1.74-2.09 2.43-4-.83-6.24-.21a6.89 6.89 0 01-6.08-.81c-.43-.32-1.3 0-2-.06-2.08-.24-4.3.66-6.24-.61-1.68-1.1-3.63 0-5.56-1.18-1.63-1-4.43.21-6.46-1.2-3.14.68-6.08-.74-9.05-1.2a52.94 52.94 0 00-9.62-.75c-1.12 0-1.39-1.59-3-.72l-1 .74a35.29 35.29 0 00-9.88-3.26 32.92 32.92 0 00-7.11-.76c-2.27.14-4-.91-6-2.06-2.63.56-5.27-.9-8.05-1.46-.54-.11-1.12-.44-1.76-.56-3.19-.56-5.75 1.61-8.73 1.9l-2.54-1.42c.4-.93 2.57.28 1.63-2.15-6.44-1.27-13.33-2.47-20-6.27.19 0-.3-.12-.67.37a4.09 4.09 0 01-.81.65c-4.85-2.2-9.85-4.2-14.74-6.43s-10.28-2.51-15.32-4.06c.1-1.21 1.53-.16 1.83-1.13l-1.36-1.42h-6.74c-2.67-1.46-5.17-2.88-6.15-5.88-1.35-.74-3-.87-4.16-2.16h-5.72c-3.18-2.35-6.88-3.49-9.74-6a21.81 21.81 0 00-9.42-5.05l1.38-1.68c-3.68-.85-6.15-3.9-9.89-4.69-2-3-2-3-2.37-6.31-.63.23-.07-.38-.3-.17-2.83 2.64-4.52-1.11-6.84-1.12a15.28 15.28 0 00-5.46-5.95 11 11 0 01-4.25-4.35c-1.1-2.11-3.09-3.63-4.55-5.57-2.23-3-4-6.4-7.39-8.32.75-2.93-3-4-2.13-6.62l-1.75-.46c-.06-.73-.13-1.52-.2-2.31l-1.4-1.41-1 1c-.53-.34-.48-.84-.47-1.3.28-.83 1.05-.58 1.6-.77 1.18-1.18.26-2.78-2.48-4.2l-.23-2.37-1.69-.62c-.61-.95 0-1.5.67-2.07-1.45-1.51-.31-4.78-3.78-4.78v-10.32c-.79-.69-1.42-1.24-1.14-2.12-1.2-1-2.64-.17-4.66-.85 2.46-.85 3.4-1.85 3.9-4 .46-2 1.32-3.47-.18-5.2 1.48-1.22.73-3.37 2.19-4.55l-2.38-2.69c.43-2.52 2.71-4.91-.11-7.1 1.22-2.41 4.25-2.3 5.22-5.19v-4c1.93-3.31 5.06-5.63 5-9.59-.38-.15-.55-.27-.6-.23-.26.21-.48.46-.74.71-1 0-.68-1.27-.63-1.29a3.4 3.4 0 002.43-2.47c.4-1.24 2-.82 2.74-1.77.57-.77 1.59-1.19 1.85-2.47-.36-1.4-2.68-.78-2.94-2.63h3.68l2.14-1.69c.22-1.11-.43-1.46-.93-2 1.69-1.86 4.07-2.72 6-4.23.31-1.6-1.33-1-1.92-1.71l2.56-1.42.73.72c.21-.14.53-.24.61-.44s-.08-.8.09-.95c3.26-2.78 5.64-6.35 8.48-9.5 1.88-2.08 4.56-3.38 5.93-6 .53-1 1.69-.82 2.51-1.46l-2-2.08c1-1 2.22-.26 3.51-.52 1.72-1.57 3.65-3.24 5.4-5 1.91-1.92 4.48-1.7 7.16-3.82.75-1.06.86-4 3.89-4.68.45-.1.86-.79 1.1-1.5.46-1.39 1.69-2.18 2.93-3a73.42 73.42 0 0012.08-9.51 2.72 2.72 0 001-2.05c2.3-1.08 4.78-1.85 5.83-4 .25-1.23-.68-1.38-.89-2.21h5.16c3.51-3.06 7.42-5.07 10.47-8.24h2c2-2.31 4.64-4 6-6.87l.67.67a15.82 15.82 0 008.92-5.62c1.13-1.56 2.71-.73 3.88-1.67a123.76 123.76 0 0116.49-10.8 21.53 21.53 0 005.77-4.36 4.64 4.64 0 014.37.63l1.34-2.9c.2-1.67-2-.21-1.95-1.14-.09-1 0-1.48.48-1.82 1.21-.65 1.47 1.25 2.93.92 1.95-2.38 5.24-3.29 8.11-4.8a70.79 70.79 0 0011.49-7.36 23.12 23.12 0 018.45-4.54c1.34-.37 2.54-1.37 4-1.23.66-1 .77-2.65 2.18-2.94 3.78-.79 6.72-3.09 10-4.92a96.84 96.84 0 0114-6.07c5.62-2.08 5.68-1.92 8.91-5 2.76.12 4.92-1.9 7.67-2.08 2.53-.16 4.29-2.35 6.58-3.36A76.64 76.64 0 01244 54c2.66-.74 5.2-2 7.91-2.59 2.46-.5 4.66-2.39 7-1.19 1.22-.94-.08-.92-.19-.74.5-2.93 3.7-2 3.94-4.41h5.1c4.52 0 7.41-1 12-3.55a26.54 26.54 0 015.53-2.25c1.46-.4 2.86-1.21 4.52-1.33 1.4-.1 2.73-1.35 4.26-2.19 1.81 1.51 3.91 1.4 6 1.29 1.46-.65 1.31-2.51 2.84-3.73 2.17-.46 4.61-1.72 7.15-1.22l2-2h7c1.12-1.19 3-1.28 3.82-2.91h7c1.93-1.74 3.86-3.27 6.73-3.14s5.27-1.75 8.13-2.18a35.14 35.14 0 015.62-.74c3.23.05 6.41 0 9.34-1.62.27-.15.58-.42.83-.39 3.78.51 7.27-1.65 11.1-1.09a6.05 6.05 0 004.66-.81c1.45-1 3.35.33 4.84 1 1.41-.76 2.9-.92 4-2.24 3.19 1 6-1.4 9.18-.89.2-.79.32-1.25.54-2.08 2.08.34 4.23-.26 6.47-.19 2.13-1.37 4.88-1.56 7.23-2.77 1.39.56 2.7 2 4.3.3.26-.28.9-.28 1.36-.28 3.86.06 7.5-.92 11.2-1.91 2.15-.57 4.59-.1 6.95-.1l.34-1.64a4.48 4.48 0 014.85.64c3.79-2.05 7.81-.41 11.61-1.05.54 1.37 2.27.71 2.83 1.92.22-.12.63-.22.65-.36.4-3.45 3.8-2.13 5.51-3.48 4.11.64 8-1.46 12.08-1 2.13.24 3.86-1.33 6.1-1.1 2 .2 4.23.79 6.12-.85a2 2 0 011.85.16c2.78 2.1 4.71-.06 7-1.09.11.11.31.52.57.56 5.15.81 10.29 1.58 15.29 2.34.84-.9.31-1.78.54-2.55 1.66-1.48 2.91.5 4.49.61.81.62.57 2.07 1.69 2.63.89.67 5.74.24 8.74-1 .15.31.46.9.73 1.52s.42 1.15.58 1.6c2.17.93 3.07-.73 4.24-1.78 1.39 1.85 3.42.54 5.18 1.14l16.23 9.82v3.58l2.06 1.47v3.44c-3.25 4-8.35 4.48-11.93 1.07-1.21-1.14-2.36-2.35-3.5-3.48-2.05-.15-4.22-.46-5.46-2s-3.33-1.47-4.59-3.11c-3 .54-5.67-1.49-8.52-1.77s-5.56-2-8.4-1.11L507.12 11c-2.3.43-4.78 1.64-7.3 1-7.31-1.84-14.73-.53-22.09-1-3.43-.21-6.61 1.77-10.09 1-1.85-.4-4 .83-5.58-1-2.13.5-4.29.88-6.36 1.56a5.78 5.78 0 01-1.81.44c-7.88-.09-15.67 2-23.68.74L428.59 16c-3 0-5.61-.53-7.91.15a64.07 64.07 0 01-6.74 1.85c-2.36.41-4.82.1-6.77 2.13h-6.38a11.37 11.37 0 00-5.16.83c-.86.42-2 1.32-3 1.11-3-.62-5.68 1.58-8.59 1-2.25-.46-3.94 1.28-6.1 1.09a17.83 17.83 0 00-6 .06c-2.34.62-4.86 1.14-6.88 2.89h-7.86a6.48 6.48 0 01-5.68 2c-1.55-.22-2.74.87-4.09 1-5.7.45-11.18 2-16.74 3.14a37.24 37.24 0 00-7.55 2.22c-3.92 1.75-7.81 1.63-11.8 1.7a23.65 23.65 0 01-7.81 4.1c-6.21 2.16-12.87 2.34-19 4.82a21.21 21.21 0 00-7.37 5.09h-5c-1 1.15-2.5 1.26-3.64 2l-1.62-1a1.35 1.35 0 00-1.28.54 6.89 6.89 0 01-6.39 2.4l-2 1.95h-4.08l-2.26 3.14c-3.21-.26-5.34.78-7.52 1.69-2.58 1.09-5.11 2.48-8.06 2.25a4.76 4.76 0 00-3.31 1.3c-2.76 2.52-6.35 2.49-10.17 4.1l-1.71 2.21c-6.3.65-10.25 4.33-15.18 6.06l-.75-.75c-.6.78-1.64 1.15-1.49 2.49-3.08 1.81-6.72 2.42-9.79 4-3.27 1.73-6.49 3.71-9.62 5.69-2.88 1.82-7.08 1.65-9.2 5.52-5 1.09-7.89 5.68-11.5 8.83-6 2-11.79 3.93-16.37 8.34a14.41 14.41 0 01-7.42 3.39c-2.23 4.39-6.46 6.11-10.21 8.15s-7.66 4-10.12 7.55h-2.35c-1.68 2.64-5.15 3.31-6.73 6h-2.19c-1.78 1.83-3.51 3.77-6.21 4.24-.71 3.15-3.71 3.55-5.91 4.87-4.25 2.55-7.93 5.86-11.86 8.82-1.27.95-1.29 2.59-2.45 3.51-.58.89-1.48.48-2 .55l-3.89 4c-1 .36-1.89-.17-2.73.07-1.94 2.31-4.64 4-6 7a4.78 4.78 0 01-2.15 2c-2.74 1.4-4.8 3.76-7.3 5.36-3.44 2.21-5.29 6.17-9.21 7.67-2.25 3.84-6.31 6.12-8.65 9.79-1.18 1.85-3.28 2.92-4 4.82-.78 2.1-2.24 2.95-4 3.79-.42.21-1 .65-1 1.05-.55 3.28-3.32 5-5 7-.22 1.17.47 1.49.87 2-2.14 1.21-2.25 1.34-4 4.83l.81 1-2.87 2.6c.87 3.14-2 4-3.12 6 1.43 2 1.74 4 .14 6.06a5.93 5.93 0 00-1 4.51l-1.83 1.83a5.78 5.78 0 00-.19.92 29 29 0 010 3.49c-.7 5.26 1.55 10 2.33 15.06.06.4.74.57.71 1.2-.05 1.5 0 3 0 4.42 3.08 3.92 1.76 9.79 6.06 13.09a5.62 5.62 0 001 4.58c1.77 2.22 3 4.89 4.73 7 3.71 4.42 6.69 9.54 10.69 13.5 4.39 4.35 8.88 8.7 13.53 12.8 1.74 1.53 4.25 2 5.87 3.92s3.51 3.56 5.13 5.18c.82.94 1.72.35 2.51.56a26.85 26.85 0 007.27 5.28 54.62 54.62 0 015.52 3.5 12.14 12.14 0 002 1.25C87.63 339 93.78 343 100.35 346c3.76 1.76 7.74 3.1 11.6 4.56s7.57 3.47 11.44 5c3.7 1.46 7.51 2.79 11.17 4.43a7.38 7.38 0 011.64 1.08 10.35 10.35 0 016.37 1.31c3 1.88 6.61 1.66 9.9 2.63 4.77 1.4 9.64 2.44 14.46 3.69a34.87 34.87 0 008 1.22c4.38.1 8.3 2 12.54 2.48.48.05 1 .77 1.71.65 4-.65 7.75.69 11.56 1.2 3.55.47 7.12.35 10.59.92a62.7 62.7 0 019.05 2.26 11 11 0 003.73.58c2.33 0 4.08 1.48 6.26 1.76a11.12 11.12 0 017.52.42 15.94 15.94 0 005.14.87c1.4.15 2.84-.45 4.21.84.58.55 2.18.44 3.26-.15a6.36 6.36 0 016.42 0 1.52 1.52 0 00.87.28c4.27-.51 8.34 1.79 12.58 1 2.27-.44 3.93 1.23 6.1 1.15 1.85-.07 3.88-.81 5.68.73.59.51 1.72 0 2.68-.32 3.15-.95 6.44-.67 9.67-.17.41.07.59.83 1.27.65 2.87-2.28 5.26-.4 7.71 1 3.39-1.81 7.05-.69 10.58-1 1.61 1.74 3.71.77 5.59 1 3 .35 6.1-.52 9.14.88 1.2.56 3.28.76 4.4-.71 6.24 1.66 12.52.72 18.71.77a137.59 137.59 0 0018.12-.7c6-.76 12.2-.49 18.14-2.23l1.07 1c2.73-1.31 2.73-1.31 9 .11l1.53-2.29c2.65.8 4.69-.45 6.87-.8s4.6.86 6.62-1a1.58 1.58 0 011.45 0c2.89 1.85 6.19 1.3 9.08.82a83.66 83.66 0 0116.11-.77c1.45 0 2.11-1.59 3.59-1.1 1.18.38 2.12 1.57 3.58 1 1.64-.62 3.24-1.33 5.09-1 1.62.26 3.15-.72 4.59-.8 2-.12 3.53-1.53 5.59-1.24a41.25 41.25 0 006 .05c1.43 0 3 .35 4.14-1.09a8.34 8.34 0 006.92.81c.53-.13.95-.74 1.69-.73 3 .05 6.33.84 8.92-.19 3.18-1.26 6.14-.46 9.17-.73s6 0 9-.1a3 3 0 012.08 1c1-1.61 3.26-1.86 3.84-4 1.95 0 3.94.08 5.92 0 1.4-.08 2.8.42 4.18-.83 1-.92 2.37.29 3.49.9a18.43 18.43 0 019.18-2.11c2.19.07 4.61.88 6.81-1.15 1.44 1.63 3.44 1.18 5.75 1.23l2.42-3h9.94c.94 0 2 .43 2.82-.41 1.65-1.72 2.91.24 4.59.48.86-1 1.8-2.18 2.53-3.05a68.07 68.07 0 007.48-.05c5.4-.62 10.87-.73 16.17-2a24.94 24.94 0 004.38-2c.63-.12.88.67 1.43 1l1-.94c1-.37 1.39.67 1.71.82l22.64-4.21c.18-.19.75-.79 1.29-1.34a4.08 4.08 0 011-.26h4c2.72-.1 5.39.15 8.13-.87 2.32-.86 5.2.64 7.54-1.12 3.15.76 6.1-.66 9.06-1.16 6.17-1 12.56-1.16 18.44-3.66 5 .05 9.45-2.54 14.61-2.41 3.84.1 7.93-1.33 11.94-3.78 2.29-.06 5.34.54 7.74-2.12h5.2c.15-1.63-1.51-.26-1.72-1.54a4.12 4.12 0 014.73.79c3.12-2.42 7.1-.27 10.6-2 3.06-1.54 6.79-1 10.66-1.56l.53.48c2.16-.89 4.69-1 5.83-2.92a1.45 1.45 0 011.68.51c8.07-1.65 16.36-2.16 25.1-5.35-.09.08.62-.6 1.4-1.33 3.37.46 6.69-.2 10.45-1.63.22-.27 1.6-.69.89-2.14 1.53-.14 2.76-.68 3.33.74 2.65-1.85 5.54-.41 8.41-1.05 6-3.81 6-3.81 10.9-3.86l1.57-2h7.84c2.85-1.14 4.81-3.14 7.75-3.07a6.85 6.85 0 003-1.19 24.78 24.78 0 018.19-2.28 10 10 0 005.57-2.45c2.35-.09 4.71-.47 7.06-.78s4.51-2 6.91-1.2l1.88-1.88c2.3.68 7.93-1.37 11.21-4.18a11.31 11.31 0 008.41-2 6.42 6.42 0 014.09-1 10 10 0 006.57-2.18 3.08 3.08 0 012.19-.81 5.94 5.94 0 004.73-2 15.82 15.82 0 008.36-1.37c.09-.46.19-.91.32-1.48h4.89c1.48-1.42 4.42-1.08 3.93-4.36 1.94.49 3.43 1.94 4.91 1.16a38.2 38.2 0 014-1.31 52.38 52.38 0 0111.06-2.91l2-2.54c5.9-1.27 11.49-1.5 16.14-4.83 1.24-.89 3 .44 4.07-1.05 3.55.11 6.47-2.55 10.31-2.26 2.39-3.4 6.29-4.94 10.31-7h3.41a34 34 0 0110.48-5.24c3.62-1.22 6.76-3.89 10.82-3.88 1.14-.63 1.33-1.81 1.83-2.86h2.85c1-.73 2-1.37 1.91-2.7a4.48 4.48 0 01.85-.35c.94-.21 2 .45 2.84-.37 1.91-2 4.48-2 6.88-2.74 3.39-1 7-1.84 9.78-4.91a15.4 15.4 0 0011.68-3.63c1-.82 2.23-.2 3.07-.33 2.41-1.41 2.8-4.28 4.89-5.6a58.71 58.71 0 015.8-2.84c.05-.82.1-1.61.16-2.56h6.37l4-4c2.44.78 4.42-1.91 6.72-1.83 2.78.11 3.91-3 6.48-2.31.74-1.21-.53-3.07 1.48-3.74h4.31c.53-1.48 2.37-.62 2.68-2 .94 0 1.21 1.22 2.41.71.49-1 1.06-2.27 2-4.37-.15.27.4.51.87.48 2.36-.15 4-1.87 5.68-3.1 2.3-1.68 4.69-3.17 7-4.76 1.86-1.26 4.85-1.63 4.3-4.78a19.66 19.66 0 0011.67-6c1.8-1.86 4.05-3.33 5.81-5.1 4.75-4.76 9.48-9.67 12.83-15.61a39.41 39.41 0 017.34-9.28c-2.36-3.05-.83-6.16.24-9.25a40 40 0 002.62-12.92 29.86 29.86 0 01.75-6.13 13.54 13.54 0 00-1.24-7.84c-1.42-3.08-1.56-6.36-2.38-9.5-.93-3.54-2.25-6.55-5.1-9.12v-4.26c-2.87-1.7-5.39-3.56-6.9-6.58-.44-.89-1.65-1.39-2.6-2s-2.81-.31-3.21-2a8.46 8.46 0 00-6-7.67 12.69 12.69 0 01-5.72-4.19 23.26 23.26 0 00-6.08-4.77c-2.3-1.38-4.9-3.17-7.83-2.12-1.94-1.42-1.81-4.18-4.27-4.89-1.55-.26-3.44.32-4.8-1.56-1-.33-.12-2.21-1.84-2.41a3.46 3.46 0 00-.92-.2c-2.78.17-5.15-1.1-7.7-1.92-4.11-1.33-7.93-3.58-12.31-4.09-2.46-2.35-5.67-2.43-8.74-3.08a6.49 6.49 0 01-4.36-2.91h-7.19c-.89-1-2.13-1.51-1.53-2.9-.87-.09-1.35-.26-1.75.17-1.38 1.47-3.14.42-4.7.72-1.54-2.28-4.62.23-6.17-2h-6.47c-3.22-1.78-6.49-3.13-10.29-3.06-2.87 0-5.74.44-8.64-.81-1.65-.71-3.86-.13-5.86-.13-.23 2.51 1.38 3 3.57 3.29-2.17 1.13-3.78.44-5.14.75-.81-.88.15-.9.25-1.6-1.19-.59-.58-2-1-3.38-5.21-1.14-10.42-3.5-16.17-1a9.5 9.5 0 00-6.42-3.23c-.17-.61-.28-1.07-.43-1.62-1 .16-1.37 1.17-2.09 1.68-2.6.54-5-.43-7.54-.74-3.44-.44-7-.1-10.48-.11a18 18 0 01-6.12-.91c-4.64-1.66-5.65-1.39-12.15-.15a9.12 9.12 0 01-4.33-.32 34.52 34.52 0 00-11.83-1.7c-1 0-1.23 1-2.21 1.06a5.8 5.8 0 00-4-1c-1.5.09-3.53.63-4.39-.11-1.76-1.5-2.76.92-4.33.22-1.17-.52-2.81.21-4-.93-1.14 1.6-2.71.45-4 .94-.22-1.29 1.19-1.69.8-2.77 1-.8 2.78.33 3.44-1.33 1.5.37 1.83-2 3.54-1.24-1.45-1.12-2.94-.59-4.32-.77a12.13 12.13 0 00-5.18 4c-1.91.2-3.66-.35-5.34.92-.75.57-2.37.41-3.41.05-5.31-1.82-10.76-.45-16.34-1.1l-3.4-1.88c-2.55 1.82-5.42.75-8.12 1-2.39-2.52-4.78.67-7.18 0-2.75 2.2-5 .46-7.74-1-1.19-.4-3 .74-4.69-.86-.6-.58-2.47-.5-3.37 0-3.3 1.79-6.78.36-10.64 1.2l-2.86 1.5c-1.11-1.82-3.42-.11-5.11-1.59-1.1-1-3.38-.25-4.9 1.22-.33-1-.54-1.55-.76-2.21-1.75-.45-3.44-.41-4.74 1.08l-1.4-1.11c-2.28 1-4.12 2.93-7.26 1-2.12-1.29-5.43.71-8-1-.48.29-.31.82-.37 1.55-1.84-.72-3.52.78-5.36.3s-3.78-1.9-5.7 0a1.07 1.07 0 01-1 0c-3.46-2.22-6.75-.69-9.93.61a9.27 9.27 0 01-2.84.4c-2.37.24-4.91-.66-7.09 1a.59.59 0 01-.49 0 12.87 12.87 0 00-8.73-.18c-2.89.9-6.28.18-9.44.19-.65-.07-1.37-.04-1.34-1.04z"/>
    <path d="M531.67 61.34c-2.83 1.32-5.67 2.32-8.84 1.47.61-1.87 2.18-2 3.83-1.68-.06-.89-.1-1.34-.13-1.82l-6.65 2.13c0 1.22 2.06 1.41 1.78 2.94-.34 1.14-1.34.74-2 .67-5.23-.55-10 1.52-15 2.51-4.31.87-8.41 2.88-12.95 2.51-1.06-.09-1.76.58-2.62.92-3.39 1.35-3.64 1.23-7.16.08-2.06.58-3.74 2-6.14 2.14-2.07.08-3.9 1.6-6.13 2.08s-4.15-1.16-6.21-.1c-2 1.4-4.78 1.68-6.32 4-4.2-.91-8.07 2-12.82 1-1.42 1.41-4.35 1.32-6 3.93-2.79-1.5-5.53 2.82-8.41-.1C426.66 85.57 423 86 420 88c-1.68-.08-.57-3.49-3.05-2.78-.32 1 1.13 1.2.7 2.11-3.39 3.2-5.71 3.63-9.78 1.78-1.21.16-2.08 1.14-3.55 1.1-5.1-.13-9.91 1.43-14.57 3.35a8.56 8.56 0 01-6.66-.13c-1.24.69-3 1-3.8 2.71-3.09-.44-5.72 1.91-9.18.67-.43.78-.9 1.67-1.34 2.49-4.71-1-8.68 1.24-13 .92-1.39-.1-2.88 1-4.3 1.56-1 .41-2 1.37-2.93 1.24-2.08-.29-3.57 1.63-5.61 1.11-1.33-.34-2.43.48-3.39 1.23l-1.26-1c-1.93.93-3.76 2.21-5.79 2.7s-4 .1-6 .1a34.82 34.82 0 01-9.23 3.14c-5.75 1.16-11.84 1.25-17 4.64-1.39.9-3.63-.56-4.66 1.55l-1.52-1.35-1.58 1.84c-4.22.07-7.9 2.6-12.41 2.15-1 2.19-3.51 2.48-5.51 2.92-5.78 1.27-11.37 3.29-17.1 4.52-5.2 1.12-10 3.76-15.15 3.72-1.81.88-3.18 2.28-5.05 1.82-1.4-.35-1.81 1.52-3.1 1.05-2.66 3.35-7 3.36-10.48 4.86a21.28 21.28 0 00-5 2.47 14.41 14.41 0 01-4.9 2.57c-1.34.36-1.56 1.68-3.75 2.09h-3.94c-.87 1.64-3.44 1.6-3.79 3.81-3 .77-6.89 0-8.18 4.18l-1.14-1.2c-2.23 1.57-4.73 1.17-7.39 1 .26-2.41 1.53-3 3.75-2.84l2.46-3.05h4.4c1.71-1.35 1.86-3.89 4.2-4.87 3.76-.15 6.92-2.05 10.43-5h2.95c4.23-3.31 8.69-5.48 14.42-5.06 1.26-2.11 3.89-2.89 5.95-5 2.88-.13 6-.27 8.6-2.58 1.3-1.16 3.54 0 4.86-1.5 3.28.52 6.25-1.94 9.44-.91a1.31 1.31 0 00.6-1.45c3.09-2.19 7.09-.9 10.41-2.51l2.63-3.13h3.58c1.58-2.43 4.5-2 6.79-2.69 3.71-1.18 7.47-2.74 11.55-2.32a6.18 6.18 0 002.26-.54c2.4-.7 4.68-2.27 7.15-1.31 1.66-1.66 3.44-1.93 5.41-2.24 3.52-.54 6.93-1.77 10.42-2.5a12.59 12.59 0 013.67.32l.33-1.63c1.72.58 2.94-1.2 4.77-1.11 2.44.12 4.53-.92 6.71-1.9s4.79-2.09 7.12-1.93c3.87.28 7.2-1.35 10.62-2.33a63.84 63.84 0 017.75-1.66 74.84 74.84 0 009.16-1.87c3.34-.94 7 .51 10.84-2.1-.78 2.22-1.69 3.23-.93 4.73l4.7-2.34c.1-.49-.19-1.05.68-1.56h4c.35-1.27.71-2.64 1.81-2.88 3.5-.77 6.69-2.42 10.21-3.16 3.95-.83 8.06-1 11.81-2.85.81-.39 2 0 2.95-.1 1.42-.1 2.83.36 4.17-.9.66-.62 2.17-.2 3 .85.52-1.25 2.23-.61 2.83-1.92 1.66 1.05 1.92 3.57 4 3.72l9.6-3.26c-.07-.53.17-1.1-.73-1.46-2.82.78-5.75 2.72-9.15 1.81-.06-.53-.1-.85-.18-1.52 2.32 0 4.17-2 6.64-1.23 1.39-1.46 2.65-2.77 3.82-4 2.3 1.68 5 1.25 7.13.66 1.82-.5 3.11-1 4.86.06.87.51 2.2.24 3.39.33l.31 1.47c.24.12.5.37.78.39 3 .2 5.84.11 8-2.38-1.37-1.54-3.45.25-4.86-1v-1.13c5.36-1.69 10.7-3.42 16.48-3.56a9 9 0 005.41-2.06l1.76 1 1.82-1.82h5.12l2.17 2.53c3.32 1.23 5.68-.49 8.31-1.15-2.53-.46-5.17-.53-7.2-3.23 4.51.46 8-2.61 12.38-2.24 1.7.14 3.19-1.58 5.08-1 1.49-1.83 3.83-.3 5.44-1.32 1.86-1.2 3.88-.82 5.71-.57 2.25.3 3.93-1.54 6.07-1.06 1.54.84 1.39 2.92 2.91 3.87l1-.84c.56.21.71 1.14 1.53 1.23zM740.1 34l-.47-.48-2.38 2.39H724.9c-.15-.6-.27-1-.37-1.42l-1.22 1.72c-3.08-.36-5.3.39-7.33-1-1.51 1.9-4.4-.57-5.27 2.25l-1.56-1.42c-1.4 1.54-2.79 1.37-4.15-.11-1.28.7-2.76.85-3.83 2.1-1.61-.3-3.53.76-5-1.05l-1.59 1.8c-2.36.5-4.54.44-6.25-1-1.58.88-3.07 1-4.16 2.31-2.74-.47-5.68.72-8.49-1a2.82 2.82 0 00-3.19.56c-1.66 1.56-3.82 1.47-5.93 1.35a21.48 21.48 0 00-10.24 1.83 4.72 4.72 0 01-1.93.16c-3.85 0-7.49.89-11.22 1.82-3 .73-6.47.92-9.42-1.24v-3c.58-1.41 2.28-1.48 3.51-2.48a5.42 5.42 0 01.75-.09 26.55 26.55 0 014 0c1.41.18 2.15-1.51 3.6-1.06.78.24 1.37-1 1.54-.9 2 1.28 3.76-.44 5.72-.18a30 30 0 008.47 0c3.9-.59 7.92-.51 11.9-1.91 1 1.16 0 4.18 3 4 1.56-1.65-.42-2.9-.54-4.62 4.83-1.33 10 1 14.61-1.52 1.52 3.19-2.56 2.42-2.67 4.65 3.36 1.92 6.44-1.83 9.57-.21.69-2.55 2.6-3.69 3.65-4.89 5.94-2 11.69-1.31 17.38-1.41 1 .66 0 2.61 1 2.56 1.87.55 3 .79 3.82-.43 1 1.48 3.2.15 4.1 1.83 2-1 2-1 6.06-1 .45-1.07 1.74-.72 2.42-1.42l-.65-.79c-.5-.94 1.52-1.24.83-2.22 2.52-3 5.15-.38 8.09-.53-1.76 2.21-1.7 4.81-3.81 6.05z"/>
    <path d="M531 61.35l1.65-1.8c-.73-1-2 0-2.85-.84 0-.35-.19-1 0-1.22a4.51 4.51 0 012.37-1.5c5.28-1.33 10.74-1.86 15.91-3.74 1.46-.53 3.28-.08 5.2-.08.85.29-.07 1.94 1.2 2.23l-.94 1.85c4.6-1.08 8.94-1.37 12.88-3.44.67-.78-.32-2 .64-2.66 2.1-.93.95 2.34 3.28 1.77.74-.39.42-2.46 2-2.8 1.61-1.16 2.42 1.73 4 .79.68-.86-1-.74-.28-1.68 5.12 0 10.16-2.49 15.7-2.23a19 19 0 017.84 1.64 4.07 4.07 0 002.77.25c0-1.74-1.89-1.48-2.7-2.66 5-.73 9.83-1.36 14.66-2.2a6.17 6.17 0 003.83-2c2.09.28 4.43-.62 6.43 1 1.22 0 1.33-1.4 2.29-1.79h6c-1.73 1.5-4.08 1.42-5.09 3.4 1.1 1 2.59-.16 3.7.7-.36.8-.72 1.6-1.09 2.44a2.61 2.61 0 01-.82.24c-2.72-.15-5.47.47-8.11-.93-1.73-.92-3.37.69-5 1.09-2.39.58-4.58 1.9-7.2 1.88s-4.91 1.5-7.59 1c-1-.18-2.25-.43-3.23.63-.49.54-1.26-1.14-2.15.1-.57.79-1.43-.07-2.17-.89-.57.8-1.14 1.58-1.51 2.09-4.43.12-8.32-.07-12.26 1.62-3 1.3-6.67.38-10.68.3a3.17 3.17 0 01-1.54 2.1 35.69 35.69 0 01-3.86 0c-1.38-.15-2.13 1.35-3.6 1.09-.82-.14-1.74 1.27-2.68 0-.12-.16-.68-.12-1 0a20.66 20.66 0 01-10.67 2c-2.18 2.19-5.17 0-7.43 1.34s-4.9.14-7.9.91z"/>
</svg>
