<svg xmlns="http://www.w3.org/2000/svg" viewBox="0 0 88.49 74.11" fill="var(--color-gray--300)"><path class="cls-1" d="M18.6,52.08a16.22,16.22,0,0,0-7.65,0c-3.48.83-7.29,2.47-8.32,7.47L0,72.32a61.58,61.58,0,0,0,29.5,0L26.87,59.54C25.84,54.56,22.06,52.92,18.6,52.08Z"/><path class="cls-1" d="M14.75,49.77c4.07,0,7.37-2.73,7.37-6.11V37.45c0-3.37-3.3-6.11-7.37-6.11s-7.38,2.74-7.38,6.11v6.21C7.37,47,10.68,49.77,14.75,49.77Z"/><path class="cls-1" d="M85.86,59.54c-1-5-4.8-6.62-8.27-7.46a16.18,16.18,0,0,0-7.64,0c-3.48.83-7.3,2.47-8.33,7.47L59,72.32a61.58,61.58,0,0,0,29.5,0Z"/><path class="cls-1" d="M73.74,49.77c4.07,0,7.37-2.73,7.37-6.11V37.45c0-3.37-3.3-6.11-7.37-6.11s-7.37,2.74-7.37,6.11v6.21C66.37,47,69.67,49.77,73.74,49.77Z"/><path class="cls-1" d="M44.24,16.41c3.57,0,6.46-2.44,6.46-5.44V5.44c0-3-2.89-5.44-6.46-5.44s-6.45,2.44-6.45,5.44V11C37.79,14,40.68,16.41,44.24,16.41Z"/><path class="cls-1" d="M63.57,43.37s.64-7-6.54-8.64C57,34.57,54.85,24.2,54.85,24.2c-.9-4.33-4.2-5.76-7.24-6.49a14.27,14.27,0,0,0-6.69,0c-3,.72-6.38,2.15-7.28,6.5,0,0-2.13,10.35-2.18,10.53a8.07,8.07,0,0,0-6.54,8.64c4.76-3.11,12-4.67,19.32-4.67S58.81,40.26,63.57,43.37Z"/><path class="cls-1" d="M30.89,60.45l.46,2.28a6.16,6.16,0,0,0,5,4.83,44.63,44.63,0,0,0,8.89.74,35.84,35.84,0,0,0,7.53-.54,5.13,5.13,0,0,0,4.3-4.05l.54-2.62a45.37,45.37,0,0,1-12.37,1.65A43.52,43.52,0,0,1,30.89,60.45Z"/><path class="cls-1" d="M34.57,54.38H53.92l-2.67-12h-14Zm5.62-8.29H48.3l1,4.61H39.17Z"/></svg>