<svg xmlns="http://www.w3.org/2000/svg" fill="var(--color-gray--300)" viewBox="0 0 59 39"><path d="M44.9401 5.78052L30.8864 35.3293C30.8864 35.3293 37.855 38.9878 44.9401 38.9878C52.0253 38.9878 59 35.3293 59 35.3293L44.9401 5.78052ZM44.9401 35.5427C41.6391 35.5568 38.3666 34.9356 35.3031 33.7134L44.9401 13.4147V35.5427Z"/><path d="M41.6153 5.21346L27.6536 0.0915129C27.3189 -0.0301788 26.9516 -0.0301788 26.6169 0.0915129L13.0662 5.06102C12.7742 5.1648 12.5232 5.35864 12.35 5.61424C12.1767 5.86984 12.0902 6.17381 12.1031 6.48176V15.5549H11.8025C3.58862 15.5427 -2.69294 23.9208 1.16556 32.5305C2.20928 34.8649 4.07425 36.7404 6.41041 37.8049C14.612 41.5 22.605 36.1525 23.5129 28.6586L26.6169 29.7988C26.9516 29.9205 27.3189 29.9205 27.6536 29.7988L30.4079 28.7866L41.6153 5.21346ZM15.3359 20.2379C12.6769 20.2395 10.1274 21.2905 8.24781 23.16C6.36821 25.0295 5.31236 27.5643 5.31236 30.2074C5.31462 30.7965 5.37005 31.3842 5.47799 31.9635C3.40459 29.5244 2.74208 25.8659 4.76028 22.2074C5.34509 21.1495 6.222 20.28 7.28762 19.7013C10.9682 17.7013 14.6488 18.3598 17.1025 20.4208C16.5203 20.3074 15.9291 20.2462 15.3359 20.2379ZM15.0475 16.0061V8.53663L25.6599 12.433V26.3415L23.4516 25.5305C23.1138 23.3112 22.1433 21.2347 20.6549 19.5467C19.1666 17.8587 17.2228 16.63 15.0537 16.0061H15.0475ZM27.1199 9.872L17.7896 6.45127L27.1199 3.04883L36.438 6.45127L27.1199 9.872Z"/></svg>