<svg viewBox="0 0 33 41" fill="none" xmlns="http://www.w3.org/2000/svg">
<path d="M32.5 5V39C32.5 39.8284 31.8284 40.5 31 40.5H5C4.17157 40.5 3.5 39.8284 3.5 39V10C3.5 9.72386 3.72386 9.5 4 9.5H9.75C10.1642 9.5 10.5 9.16421 10.5 8.75V4C10.5 3.72386 10.7239 3.5 11 3.5H31C31.8284 3.5 32.5 4.17157 32.5 5Z" stroke="black"/>
<path d="M29.5 2V36C29.5 36.8284 28.8284 37.5 28 37.5H2C1.17157 37.5 0.5 36.8284 0.5 36V6.45502C0.5 6.31048 0.562552 6.17301 0.671529 6.07805L4.00445 3.17394L7.04282 0.617414C7.13295 0.541581 7.24695 0.5 7.36474 0.5H28C28.8284 0.5 29.5 1.17157 29.5 2Z" stroke="black"/>
<path d="M29.5 2V36C29.5 36.8284 28.8284 37.5 28 37.5H2C1.17157 37.5 0.5 36.8284 0.5 36V7C0.5 6.72386 0.723858 6.5 1 6.5H6.75C7.16421 6.5 7.5 6.16421 7.5 5.75V1C7.5 0.723858 7.72386 0.5 8 0.5H28C28.8284 0.5 29.5 1.17157 29.5 2Z" fill="white" stroke="black"/>
<path fill-rule="evenodd" clip-rule="evenodd" d="M18.5036 20.6526L24.7704 15.551L23.5078 14L17.2001 19.1348L18.4869 10.2879L16.5078 10L15.1622 19.2511L8.6999 11.5543L7.16819 12.8403L12.9413 19.7163L5.33199 18.4355L5 20.4077L13.814 21.8914L6.85448 27.5568L8.11712 29.1079L14.4821 23.9264L13.4168 31.2501L15.396 31.538L16.4992 23.9538L20.9761 29.286L22.5078 28L17.9658 22.5903L26.1758 23.9723L26.5078 22L18.5036 20.6526Z" fill="#5551FF"/>
</svg>
