<svg xmlns="http://www.w3.org/2000/svg" viewBox="0 0 89.07 88.58" fill='white'>
  <path class="cls-1" d="M17.68 34.15l2.2 7 2.2-7c2.63-8.33 2.63-8.33 11.47-11.42l6.21-2.17-6.21-2.18C24.71 15.29 24.71 15.29 22.08 7l-2.2-7-2.2 7c-2.63 8.33-2.63 8.33-11.47 11.42L0 20.56l6.21 2.17c8.84 3.09 8.84 3.09 11.47 11.42zm2.2-19.58c1.37 3.06 2.92 4.49 6.35 6-3.43 1.5-5 2.92-6.35 6-1.37-3.07-2.92-4.49-6.36-6 3.48-1.51 4.99-2.94 6.36-6zM82.86 66.77c-8.13-2.84-8.13-2.84-10.55-10.5l-2.2-7-2.19 7c-2.42 7.66-2.42 7.66-10.55 10.5L51.16 69l6.21 2.17C65.5 74 65.5 74 67.92 81.62l2.19 7 2.2-7C74.73 74 74.73 74 82.86 71.12L89.07 69zm-12.75 7.34c-1.2-2.57-2.6-3.86-5.49-5.16 2.89-1.3 4.29-2.59 5.49-5.16 1.21 2.57 2.61 3.86 5.5 5.16-2.89 1.3-4.29 2.59-5.5 5.16z"/>
  <circle class="cls-1" cx="8.36" cy="47.75" r="7.37"/>
  <path class="cls-1" d="M38.1 31.64l1.24-.87a22.58 22.58 0 006.82-7.47A33.52 33.52 0 0159.73 9.89l2.78-1.5 2.13 2.13-.14.15-47.67 47.67 3 3-1.11 1.11-4.14 1a7.91 7.91 0 00-5.81 5.52L3.42 87.73l18.79-5.37a7.86 7.86 0 005.52-5.81l1-4.13 1.11-1.11 3 3L84.4 22.75l.59-.59a11.79 11.79 0 003.54-7.61 11.25 11.25 0 00-3.7-9A11.55 11.55 0 0069 6.17l-.73.73-4.84-4.83-6.13 3.3C38.78 17.33 38.1 31.64 38.1 31.64zm-5.28 34.87l-2.46-2.46 43.76-43.76 2.46 2.46zM73.16 9.83A5.78 5.78 0 0181.33 18l-.84.84-8.17-8.17zm-4.75 4.75L70.86 17c-7.71 7.72-36 36.06-43.76 43.76l-2.45-2.45zM23.66 69.63l-1.31 5.68a2.4 2.4 0 01-1.66 1.74l-9.22 2.63 2.64-9.22a2.35 2.35 0 011.74-1.65l5.68-1.31 2.23-2.23 2.13 2.13z"/>
</svg>