<svg viewBox="0 0 34 44" xmlns="http://www.w3.org/2000/svg">
<path fill-rule="evenodd" clip-rule="evenodd" d="M34 3V41C34 42.6569 32.6569 44 31 44H3C1.34315 44 0 42.6569 0 41V10.8549C0 10.0246 0.34406 9.2315 0.950308 8.66426L9.34519 0.809392C9.901 0.289337 10.6337 0 11.3949 0H31C32.6569 0 34 1.34315 34 3ZM11 4.55201V8.70052C11 9.19427 11 9.44115 10.9009 9.62974C10.8137 9.79563 10.6745 9.9305 10.5034 10.015C10.3088 10.1111 10.0541 10.1111 9.54472 10.1111H4.74879C3.86585 10.1111 3.42438 10.1111 3.23101 9.94585C3.06343 9.80262 2.97882 9.58893 3.00454 9.3738C3.03421 9.12558 3.36235 8.83932 4.01864 8.26681L9.17839 3.76565C9.75548 3.26222 10.044 3.01051 10.2894 3.00058C10.5025 2.99195 10.7075 3.08045 10.8435 3.23978C11 3.42319 11 3.79946 11 4.55201ZM22 20.5C22 19.6716 22.6716 19 23.5 19H32V23H23.5C22.6716 23 22 22.3284 22 21.5V20.5ZM17.5 25C16.6716 25 16 25.6716 16 26.5V27.5C16 28.3284 16.6716 29 17.5 29H32V25H17.5ZM9 32.5C9 31.6716 9.67157 31 10.5 31H32V35H10.5C9.67157 35 9 34.3284 9 33.5V32.5ZM2 38C2 37.4477 2.44772 37 3 37H32V40C32 41.1046 31.1046 42 30 42H4C2.89543 42 2 41.1046 2 40V38Z" fill="currentColor"/>
</svg>
