<?xml version="1.0" encoding="utf-8"?><svg version="1.1" id="Layer_1" xmlns="http://www.w3.org/2000/svg" xmlns:xlink="http://www.w3.org/1999/xlink" 
	 viewBox="0 0 87.5 92.3" fill='white'>
<g>
	<g>
		<path d="M16.4,12.5v33.7h54.8V12.5H16.4z M20.2,42.3l12.4-22.1l7.9,16.4l8.5-6.7l9.6,12.5H20.2z M59.6,26c-2.7,0-4.8-2.2-4.8-4.8
			c0-2.7,2.2-4.8,4.8-4.8c2.7,0,4.8,2.2,4.8,4.8C64.4,23.8,62.3,26,59.6,26z"/>
		<g>
			<rect x="17.3" y="50" width="53.9" height="3.8"/>
			<rect x="17.3" y="57.7" width="26.9" height="3.8"/>
			<rect x="17.3" y="65.4" width="26.9" height="3.8"/>
			<rect x="17.3" y="73.1" width="26.9" height="3.8"/>
			<path d="M48.1,57.7V77h23.1V57.7H48.1z M56.7,71.2v-7.7l7.7,3.8L56.7,71.2z"/>
		</g>
	</g>
	<path d="M87.5,46.2c0-3-2-5.6-4.8-6.4V13.2c2.8-0.8,4.8-3.4,4.8-6.4c0-3.7-3-6.7-6.7-6.7c-3,0-5.6,2-6.4,4.8H13.2
		C12.3,2,9.8,0,6.7,0C3,0,0,3,0,6.7c0,3,2,5.6,4.8,6.4v26.6C2,40.6,0,43.1,0,46.2s2,5.6,4.8,6.4v26.6C2,80,0,82.6,0,85.6
		c0,3.7,3,6.7,6.7,6.7c3,0,5.6-2,6.4-4.8h61.2c0.8,2.8,3.4,4.8,6.4,4.8c3.7,0,6.7-3,6.7-6.7c0-3-2-5.6-4.8-6.4V52.6
		C85.5,51.8,87.5,49.2,87.5,46.2z M80.8,3.8c1.6,0,2.9,1.3,2.9,2.9s-1.3,2.9-2.9,2.9s-2.9-1.3-2.9-2.9S79.2,3.8,80.8,3.8z
		 M78.9,13.2v26.6c-2.8,0.8-4.8,3.4-4.8,6.4s2,5.6,4.8,6.4v26.6c-2.2,0.7-3.9,2.3-4.5,4.5H13.2c-0.6-2.2-2.3-3.8-4.5-4.5V52.6
		c2.8-0.8,4.8-3.4,4.8-6.4s-2-5.6-4.8-6.4V13.2c2.2-0.6,3.8-2.3,4.5-4.5h61.2C75,10.8,76.7,12.5,78.9,13.2z M3.8,6.7
		c0-1.6,1.3-2.9,2.9-2.9s2.9,1.3,2.9,2.9S8.3,9.6,6.7,9.6S3.8,8.3,3.8,6.7z M3.8,46.2c0-1.6,1.3-2.9,2.9-2.9s2.9,1.3,2.9,2.9
		s-1.3,2.9-2.9,2.9S3.8,47.8,3.8,46.2z M6.7,88.5c-1.6,0-2.9-1.3-2.9-2.9c0-1.6,1.3-2.9,2.9-2.9s2.9,1.3,2.9,2.9
		C9.6,87.2,8.3,88.5,6.7,88.5z M83.7,85.6c0,1.6-1.3,2.9-2.9,2.9s-2.9-1.3-2.9-2.9c0-1.6,1.3-2.9,2.9-2.9S83.7,84,83.7,85.6z
		 M80.8,49.1c-1.6,0-2.9-1.3-2.9-2.9s1.3-2.9,2.9-2.9s2.9,1.3,2.9,2.9S82.4,49.1,80.8,49.1z"/>
</g>
</svg>
