<svg viewBox="0 0 59 43" fill="white" xmlns="http://www.w3.org/2000/svg">
<path d="M6.08933 22.6044C6.85689 22.6044 6.08933 22.6044 6.08933 22.6044C6.08933 22.6044 8.23851 22.6044 9.05724 22.6044C9.8248 22.6044 10.0295 21.988 10.0295 21.6283V15.9258H15.1466L7.57329 2.5686L0 15.9258H5.11709V21.6283C5.11709 21.988 5.32177 22.6044 6.08933 22.6044Z" />
<path d="M58.2836 6.42169L43.0859 0.102696C42.7788 -5.22121e-05 42.4718 -5.22121e-05 42.1648 0.102696C42.1648 0.102696 26.967 6.37032 26.967 6.42169C26.353 6.67856 26.2507 7.24368 26.1995 7.55192V16.3369L25.9436 16.2341C25.6878 16.1314 25.4319 16.1314 25.1761 16.2341L15.0954 20.344C14.6349 20.4982 14.4302 20.9091 14.4302 21.3201V28.7694L13.1509 28.2556C12.9462 28.1529 12.7415 28.1529 12.5369 28.2556L5.78231 30.9784C5.47528 31.0812 5.2706 31.3894 5.2706 31.7491C5.2706 32.0573 5.2706 39.5579 5.2706 39.5579C5.2706 39.8661 5.47528 40.1744 5.78231 40.3285L12.5369 43.0513C12.7927 43.1541 12.9974 43.1027 13.1509 43.0513C13.2021 43.0513 19.9055 40.3285 19.9055 40.3285C20.2125 40.2258 20.4172 39.9175 20.4172 39.5579V36.1672C20.4172 36.1672 25.1761 38.1194 25.2272 38.1708C25.4831 38.2735 25.6878 38.2735 25.9436 38.1708L36.1266 33.9581C36.4848 33.804 36.7407 33.4444 36.7407 33.0334V30.2592C36.7407 30.2592 42.1648 32.5197 42.216 32.5197C42.5742 32.6738 42.83 32.6224 43.0859 32.5197L58.2324 26.2007C58.693 25.9952 59 25.5842 59 25.0704V7.50055C59 7.14093 58.7953 6.62719 58.2836 6.42169ZM8.18734 31.6463L12.8439 29.7455L17.5004 31.6463L12.8439 33.5985L8.18734 31.6463ZM25.5854 18.1863L33.0564 21.2174L25.5854 24.2998L18.1145 21.2174L25.5854 18.1863ZM42.6253 2.51727L54.5993 7.50055L42.6253 12.4324L30.6002 7.50055L42.6253 2.51727ZM6.90807 32.8279L9.82481 34.0609L12.0252 34.9856V40.9964L6.8569 38.89V32.8279H6.90807ZM20.4172 31.6463C20.4172 31.4408 20.3148 31.0298 19.9055 30.8757C19.8543 30.8757 16.4258 29.4372 16.4258 29.4372V22.7586L20.8265 24.6081L24.562 26.1493V35.6535L20.4172 33.9068C20.4172 33.9068 20.4172 31.7491 20.4172 31.6463ZM36.7407 21.2174C36.7407 21.1146 36.7407 21.0633 36.6895 21.0119V20.9605C36.6895 20.9091 36.6383 20.8064 36.6383 20.755C36.6383 20.755 36.6383 20.755 36.6383 20.7037C36.5872 20.6523 36.5872 20.6009 36.536 20.5495C36.4848 20.4982 36.4337 20.4468 36.3825 20.3954C36.3313 20.344 36.2801 20.344 36.229 20.2927L28.6557 17.2616V9.29863L41.4484 14.5388V29.4886L36.7407 27.5364V21.2174Z" />
</svg>
