<svg fill="none" viewBox="0 0 323 27" xmlns="http://www.w3.org/2000/svg"><path d="m130.353.238854c-.135.168757-2.6.303762-5.471.303762-4.965.033751-5.201.067503-5.303.776284l-.101.70878-.844-.74253c-.642-.607528-1.216-.742534-2.702-.708783-3.546.067503-4.762.067503-7.16-.033751-1.317-.067503-2.364.033751-2.364.202508 0 .135006-.237.202509-.507.101255-.27-.101255-.608-.033752-.743.202511-.169.27001-.405.27001-.777-.067506-.607-.506271-2.904-.405017-3.58.135006-.303.27001-.439.23626-.439-.0675 0-.472523-2.0935-.135009-2.6677.43876-.2364.27002-.1351.30377.304.13501.5066-.16876.6079-.10125.439.33751-.1013.30377-.2026.60753-.2026.67503s-.304.03375-.6755-.0675c-.439-.10125-.6079-.37127-.5066-.77628.1014-.40502-.0675-.74253-.439-.877539-.4391-.168757-.5404-.101254-.3377.405019.1688.50627.1351.54002-.2027.16875-.6417-.60752-1.2158-.540017-.6754.10126.3715.43877.3377.50627-.1351.50627-.304 0-.5742.16876-.5742.37127 0 .57377-.9794.40501-1.2158-.23626-.1689-.43877-.1013-.47252.2364-.20251.3715.30376.4728.23626.5404-.30377.0337-.64127-.1351-.70877-1.6212-.60752-1.4522.10125-1.6548.23626-1.6211.91129 0 .60752-.1688.77628-.8105.77628-.5066 0-.8106-.20251-.8106-.50627s.1689-.54002.3715-.54002c.2027 0 .2364.16875.1013.40501-.1351.27001-.1013.30377.1689.16876.4728-.30376.2026-.94504-.3715-.94504-.2026 0-.6079.30376-.8443.64128-.4391.57377-.4391.57377-.4053-.10126.0675-.67502-.1351-.70878-3.4787-.64127-11.1451.135-27.0523.77628-27.5589 1.08004-.1689.0675-1.4523.20251-2.837.30376-1.4185.06751-3.6813.20251-5.066.33752-4.6269.37126-6.0116.47252-9.7267.67503-2.0602.135-4.4918.30376-5.3699.40501-.9119.10126-2.4317.23626-3.3774.33752-2.3641.16875-5.2348.50627-7.5652.84378-1.0807.16876-3.1409.33751-4.5931.37127-1.4523.03375-2.7695.135-2.9045.23626-.1689.0675-1.6887.23625-3.4111.30376-4.69453.23626-7.70035.57377-7.83545.94504-.23641.60752-1.18206 1.3838-1.72243 1.35005-.27019 0-.40528-.135-.30396-.33751.13509-.20251.3715-.27001.57414-.16876.16887.10126.20264-.03375.10132-.33751-.16886-.47252-.33773-.43877-.91188.23626-.40527.43877-.94565.74253-1.21583.70878-.270189-.06751-.472829.0675-.472829.27001-.033773.27001.743009.33751 2.195259.20251 1.21584-.06751 2.43168-.16876 2.66809-.16876.23641-.03375.40528-.16876.40528-.30376-.10132-.60753.06755-1.14755.33773-1.14755.16887 0 .30396.27001.27019.60752-.03377.33752.20264.64128.5066.64128.33773 0 .47282-.27001.40528-.84378-.06755-.54003 0-.74253.27018-.60753.20264.13501.37151.47252.37151.74253 0 .30376.16887.50627.33773.50627.20264 0 .27019-.20251.16887-.47252s-.03377-.60752.20264-.74253c.23641-.16875.47282.03375.60792.47252.13509.57378.47282.74253 1.35094.74253 1.8913 0 4.7958-.70878 4.5594-1.11379-.1351-.23626.3377-.30377 1.4185-.20251.9118.10125 1.7562.03375 1.8575-.13501.1013-.16875.5404-.47252.9456-.70878.4391-.20251.6755-.27001.5066-.135-.1351.16875-.0675.50627.1351.77628.3378.37126.2027.47252-.5066.47252-.5403 0-.9456.135-.9456.33751s.439.20251 1.0807 0c.5742-.135 1.047-.23626 1.047-.135 0 .0675.304-.13501.6417-.50627.743-.70878 3.5124-.77629 3.3435-.06751-.1013.47252.5066.47252.8106 0 .1351-.2025 0-.64127-.2364-.97879-.4391-.54002-.4053-.54002.0675-.16875.3378.23626.6755.37126.7768.27001.3715-.37127 1.6887-.47252 1.8913-.13501.1013.16876.0676.30376-.1013.27001-.1351-.03375-.5404.06751-.9119.20251-.743.33752-.4053 1.01254.4053.77628.5404-.16875 2.5668-.30376 11.4154-.74253 2.0264-.10125 4.5931-.27001 5.6739-.40501 2.6343-.33752 3.2422-.37127 9.7267-.64128 3.1409-.10125 6.4169-.30376 7.295-.43877.8443-.135 3.0058-.27001 4.762-.30376 7.3288-.16876 17.5621-.54002 19.8587-.74253 1.3847-.10126 3.5124-.20251 4.7958-.16876 5.1673.03375 9.5237 0 19.1497-.135 9.963-.16876 11.415-.16876 14.488-.06751.912 0 1.622-.16875 1.79-.43876.237-.37127.338-.37127.473 0 .102.33751 1.115.43876 3.85.43876 6.62-.03375 9.525-.16875 9.727-.50627.135-.16875.405-.30376.642-.30376.27 0 .236.10125-.068.30376-.371.23626-.236.37127.507.50627 1.52.27001 5.741.10126 6.079-.27001.135-.16875.101-.20251-.135-.0675-.203.10125-.473 0-.574-.27001-.237-.60753.034-.94504.777-.91129.506 0 .506.03375.033.33752-.304.2025-.371.33751-.101.33751.203 0 .473.30376.507.64128.101.47251.473.57377 1.891.47251 2.128-.135 2.465-.30376 1.925-.94503-.338-.40502-.203-.50627.676-.50627.878 0 1.047.135.878.57377s-.271.47252-.507.0675c-.236-.37126-.304-.33751-.304.10126 0 .70877 1.385 1.01254 4.492 1.01254 1.993 0 2.263-.06751 2.263-.67503 0-.47252.169-.64128.506-.50627.304.10125.473.33751.372.47252-.101.16876.067.40501.338.50627.304.10125.54.03375.54-.13501 0-.16875.236-.23626.54-.135.271.10125.439.33751.338.54002-.135.16876.236.30376.743.30376 1.351 0 .946.30377-.642.50627-.709.06751-1.452.23626-1.621.33752-.202.10125-1.114.30376-2.06.40501-.946.13501-1.79.33752-1.891.47252-.102.13501-.608.27001-1.081.30377-1.081.0675-2.972.33751-4.424.64127-.608.10126-1.554.27001-2.128.30376-.608.06751-1.385.20251-1.79.33752-.642.16876-3.31.54002-5.573.74253-.506.03375-1.182.27001-1.452.50627s-.945.30376-1.553.20251c-.642-.13501-1.182-.0675-1.318.16876-.135.23625-.405.30376-.574.2025-.169-.10125-1.384.06751-2.702.33751-1.35.3038-3.613.6075-5.032.7425-1.452.1013-2.735.27-2.904.3713s-.845.2363-1.486.3038c-4.425.54-6.822 1.0125-7.565 1.485-.44.3038-1.014.4388-1.216.3038-.507-.3038-4.29.2025-4.087.54.101.135-.101.2363-.439.2363-.338-.0338-.574.135-.507.4387.068.3376-.101.4051-.709.2025-.844-.3037-3.073-.3037-4.357-.0337-.405.1013-.911.1688-1.182.2025-.27 0-.371.1688-.236.3713.135.2362-.101.2362-.675.0337-.473-.2025-.98-.2362-1.081-.1012-.473.4725-3.0398 1.0463-3.2425.7425-.1013-.1688-.743-.0675-1.4184.2025-.6755.27-1.4523.4388-1.7225.3375-.2702-.1012-.5741-.0337-.7092.135-.1013.2025-.6079.2363-1.1483.1013-.5741-.135-1.5536-.0675-2.3979.2362-.8106.27-1.9588.5063-2.6005.5401-.6417.0337-1.1483.1687-1.1483.3375 0 .1687-.3378.2025-.7093.1012-.9118-.3037-4.1541.5063-4.6945 1.1476-.2701.3375-.2701.7088.1014 1.35.3715.6751.3715.9788.0337 1.2826-.2026.2362-.4052.54-.4052.7088 0 .6412 2.1952 1.2825 5.2348 1.4513 2.8032.1687 3.3098.135 3.6475-.405.2702-.4051.4391-.4726.5742-.135.2364.6075 1.182.5737 1.182-.0676 0-.4725.7768-.945 1.5198-.8775.2364 0 .0338.1688-.439.3713l-.9119.3375.9119.5063c1.0132.5737 2.3979.6412 3.1409.2025.304-.2025 1.0807-.135 2.0264.135.8439.27 1.6549.3375 1.7559.1687.102-.1687 2.196-.2362 4.695-.1687 2.702.1012 4.964.0337 5.674-.2025.776-.27 1.283-.27 1.587-.0338.473.405 5.877.54 7.228.2025.607-.1687.844-.4725.844-1.1138 0-.5062.067-.81.202-.675.136.1013.541.0675.879-.135.54-.27.675-.2363.675.1688 0 .3037-.27.54-.574.54-.439 0-.473.135-.169.5062.236.2701 1.013.5063 1.722.5063.743-.0337 1.959 0 2.736.0675.777.0338 2.634-.0337 4.087-.1687 2.533-.2363 12.8-.5063 21.277-.5738 3.073-.0338 3.546-.1013 3.546-.54 0-.3713.27-.3713 1.351.0337.811.27 1.587.3375 1.858.1688.27-.1688 1.587-.2363 2.938-.135 1.317.0675 2.6.0337 2.837-.1013.236-.135.844-.2025 1.351-.1687.54.0675 1.317-.0675 1.722-.3038.608-.3038 1.013-.27 1.959.1688.946.4725 1.385.5062 1.959.2025.54-.3038.878-.3038 1.249.0337.372.3038 1.689.3375 4.796.1688 2.364-.1013 4.458-.3038 4.627-.405.169-.1013.135-.5063-.067-.8776-.271-.54-.237-.7088.168-.7088.271 0 .608.1688.71.3376.101.1687.506.2362.878.135.473-.1013.675 0 .608.4387-.034.54.439.6413 4.12.7426 3.141.1012 4.458.0337 5.438-.3713 1.148-.5063 1.35-.4725 1.823 0 .574.5738 2.331.405 3.276-.3375.372-.3038.439-.3038.271 0-.338.5737.641.675 6.315.6075 6.181-.1013 5.674-.1013 9.963.1013 2.803.135 3.884.0675 4.931-.3713 1.013-.4388 1.419-.4725 1.621-.1688.304.5063 4.526.7763 5.1.3713.642-.5063 1.655-.7763 1.418-.405-.27.4387-.743.405 6.654.54 3.512.0338 6.383-.0337 6.484-.2363.135-.1687.473-.0675.743.2363.304.3038.743.405.946.27.642-.405 1.351-.4388 1.114-.0675-.101.1688.304.3038.879.3038.911 0 1.114-.135 1.114-.8101 0-.5062.203-.8437.507-.8437s.506.2362.439.54c-.102.6413 1.182 1.485 1.418.9113.068-.2363.574-.3375 1.149-.27 1.013.1687 1.283 0 2.33-1.4514.473-.7087.473-.7087.304.0338-.237.945.169 1.215 2.195 1.4176 1.115.135 2.026 0 2.871-.4051 1.148-.54 1.283-.54 1.891 0 .54.5063.912.5401 2.533.2025 2.499-.54 4.289-.4725 4.762.1688.237.27.507.405.608.3038.338-.3375 2.398-.4388 2.398-.135 0 .1687.979.27 2.195.27s2.297.0337 2.398.0675c.642.2362 1.824.2025 1.993-.0338.101-.1687.405-.3037.709-.3037s.439.1687.304.3375c-.101.2025.034.3712.338.3712.27 0 .608-.1687.743-.3712s.54-.27.945-.135c.406.135.845.0337.98-.1688.169-.3038.54-.3038 1.182-.0675.574.2363.979.2363.979.0338 0-.3713 1.453-.135 1.723.3037.135.1688.878.405 1.688.54 1.284.1688 1.52.1013 1.723-.54.236-.675.236-.675.709-.0675.27.3713.507.54.507.405 0-.1687.439-.1012.979.1013 1.216.4725 4.053.675 3.783.27-.102-.1688.067-.2025.337-.1013.304.1013.608.0338.743-.135.203-.3375 1.453-.2025 2.162.2701.608.405 4.357.4387 4.593.0337.135-.2025.372-.3038.54-.2025.136.1013.372-.0675.473-.3375.27-.7088.946-.7088.946 0s1.013.675 1.824-.0675c.405-.3375.675-.405.675-.1688 0 .2363-.169.405-.371.405-.203 0-.338.2363-.338.5401 0 .3712.338.54 1.148.54.608 0 2.871.0675 4.999.1687 2.431.1013 4.12 0 4.559-.2362.608-.3375.709-.3038.507.2025-.102.3038-.034.54.168.54.203 0 .237.3375.102.7763-.135.4725-.102.675.135.54.203-.135.912 0 1.587.27 1.115.4725 1.284.4725 1.756-.0675.271-.3375.608-.9113.743-1.2488.136-.3712.372-.5738.541-.4725.473.3038 0-2.0588-.541-2.6326-.303-.27-.844-1.0463-1.215-1.6538-.372-.6413-.845-1.1813-1.047-1.1813-.203 0-.304.1687-.169.3375.202.3713-1.047.27-1.993-.135-.675-.27-2.904 0-3.782.5063-.372.2025-.879.1687-1.25-.0338-.338-.2025-.844-.27-1.115-.1688-.236.1013-.776-.0675-1.182-.3375-.878-.6075-6.079-1.0463-6.079-.5062 0 .2025-.27.3375-.54.3375-.304 0-.541-.135-.541-.3375s-.405-.3713-.878-.3713c-.506 0-.878.2025-.878.405 0 .3038-.135.3038-.506 0-.237-.2025-.575-.27-.676-.1687-.135.135-.439.0675-.675-.135-.676-.5063-2.432-.4388-2.668.135-.102.27-.304.405-.439.3037-.169-.1012-.406.0675-.507.3713-.135.3037-.372.4725-.574.3375-.203-.1013-.27-.3713-.169-.54.574-.9113-3.648-1.2826-5.606-.5063-.338.135-.608.1013-.608-.1012 0-.4726-1.824-.9113-2.094-.5063-.406.5738-1.756.7088-2.196.2025-.472-.5738-1.587-.6413-1.925-.1013-.135.2363-.641.3038-1.182.1688-3.174-.7763-4.086-.81-5.235-.1688-.743.4051-1.654.6076-2.499.5063-.743-.0675-1.486-.1687-1.655-.1687s-.236-.2363-.101-.5401c.135-.405 0-.4387-.709-.1687-.642.2362-.912.2025-1.047-.1688-.237-.5738-1.047-.405-1.959.405-.642.5063-1.722.27-2.195-.5062-.203-.3038-.71-.4051-1.588-.2701-.743.1351-1.587.2701-1.925.3038-.304.0338-.81.27-1.114.5063-.642.54-2.229.2025-2.499-.5063-.237-.6075-4.83-.7088-4.83-.1012 0 .2362-.304.3375-.709.2025-.406-.1013-.71-.0338-.71.135 0 .1687-.439.1687-.945-.0338-.574-.2362-1.013-.2362-1.148-.0337-.338.5062-3.851.405-4.053-.135-.169-.4388-2.195-.4726-13.881-.1688-.203 0-2.026-.0675-4.087-.135-7.43-.3038-13.576-.27-13.779 0-.338.4388-1.148.5738-1.79.27-.304-.135-1.317-.27-2.263-.3038-1.452-.0675-1.655.0338-1.655.6076 0 .5737-.169.6413-.81.4387-1.182-.3712-2.466-.3037-2.77.2026-.169.3037-.304.3037-.506.0337-.135-.2363-.135-.54-.034-.7425.371-.5738-5.336-.9113-6.518-.3713-.102.0338-.304.0675-.473.0338-.135 0-1.284-.135-2.567-.2363-1.857-.1688-2.297-.135-2.297.3038 0 .405-.304.4387-1.688.1687-2.398-.4388-3.681-.405-3.985.1013-.169.2362-.473.3037-.743.135-.777-.4725-9.525-.5738-9.525-.1013 0 .2363-.101.3375-.236.2025s-.54-.0675-.946.1688c-.574.27-.776.2362-1.013-.2025-.27-.4725-.979-.5063-4.661-.3713-8.814.3375-11.955.6075-12.597.9788-.236.1688-.405.1013-.405-.135 0-.3038-1.115-.3375-4.188-.1688-2.297.135-5.438.3038-6.991.3713-1.554.0675-2.871.27-2.938.4388-.237.7425-1.115 1.6538-1.351 1.4175-.135-.135.033-.5062.337-.81s.575-.6413.575-.675c0-.1688-8.613.0337-13.172.3375-3.344.2025-16.785.6075-19.791.6075-3.344-.0337-5.674-.2362-5.674-.5063 0-.2025-.169-.2362-.372-.1012-.202.1012-.337.0337-.337-.1688s.506-.3712 1.148-.3375c1.418 0 2.432-.1687 3.006-.5063.236-.1687.439-.1012.439.1013 0 .2363.169.3038.371.2025.203-.135.845-.3038 1.486-.3713.608-.1012 1.182-.27 1.317-.4387.102-.1688 1.318-.3375 2.669-.405 1.351-.0338 2.668-.2701 2.938-.4726.236-.2025 1.081-.3375 1.857-.3375.777 0 1.419-.1012 1.419-.2362s.27-.27.608-.3038c.338-.0337 1.621-.27 2.837-.54s2.263-.3713 2.296-.2363c.068.1688.845.1013 1.723-.1012.844-.2025 1.79-.3713 2.026-.3713.237-.0337.439-.135.439-.2363 0-.1012.541-.2025 1.216-.1687 1.993.0337 5.877-.7088 6.214-1.2151.203-.3375.372-.3712.541-.1012.27.4725 1.823.5063 2.127.0337.102-.1687.439-.2362.71-.135.304.1013 1.215-.0337 2.026-.3712.844-.3038 2.567-.6413 3.85-.7426 3.58-.27 5.775-.6075 6.383-.8775.271-.1688 1.79-.3713 3.31-.4725 1.554-.135 2.905-.3375 3.04-.5063.202-.27001 1.148-.40501 2.938-.47251.54 0 .979-.13501.979-.30377 0-.16875.372-.30376.811-.30376s1.587-.20251 2.567-.43877c1.655-.37126 2.87-.57377 5.167-.84378.507-.03375 1.115-.23626 1.419-.40502.27-.16876.709-.33751.945-.37126 1.013-.16876 1.486-.91129 1.317-1.99134-.304-1.78882-1.452-3.03762-2.938-3.27388-.709-.13501-1.621-.27001-1.959-.37127-.371-.0675-1.047.27001-1.553.74253-.845.84379-.912.87754-1.757.33752-.472-.33752-1.047-.50627-1.283-.43877s-.608-.10125-.844-.40502c-.338-.472516-.473-.472516-.98-.0675-.304.23626-.54.30376-.54.10125 0-.506266-2.026-1.282548-2.533-.945034-.236.135006-1.081.270011-1.891.337514-.777.033751-1.723.16876-2.061.33751-.337.13501-.607.10126-.607-.0675 0-.168756-.777-.371264-1.689-.405016-.946-.067502-2.229-.135005-2.871-.168757-.642-.067502-1.249.033752-1.351.202509-.101.135005-.473.101254-.81-.067503-.541-.270011-.71-.202508-.845.337517-.101.40501-.371.70878-.608.70878-.202 0-.27-.16876-.168-.40502.27-.405017-.406-1.012542-1.183-1.012542-.303 0-.405.202508-.27.540022.169.43877.034.50627-.608.33751-.439-.135-.844-.405013-.911-.57377-.203-.540022-2.804-.337514-3.378.270011-.473.438769-.574.472519-.574.033752 0-.405017-.574-.540022-2.533-.573774-1.418 0-2.634-.101254-2.736-.202508-.067-.1012543-.337-.033752-.574.168757-.27.202508-.844.202508-1.587 0-.912-.23626-1.351-.202509-2.06.270011-.878.573771-.912.573771-.709 0 .27-.6750279.202-.776282-.237-.371265zm-15.975 1.147546c.102.20251-.033.27001-.337.16876-.608-.23626-.743-.50627-.237-.50627.203 0 .439.16875.574.33751zm12.26.16876c.169-.10126.338.0675.338.40501 0 .47252-.102.50628-.541.13501-.304-.23626-.54-.60753-.506-.81003 0-.27001.101-.23626.202.03375.102.23626.338.33751.507.23626zm2.094-.37127c0 .33752-1.047.50627-1.25.20251-.101-.16876.102-.33751.507-.33751s.743.0675.743.135zm-22.122.74253c.473.47252.44.54003-.303.47252-.473-.03375-.845-.27001-.845-.54002 0-.60752.507-.57377 1.148.0675zm4.56-.16875c.135.2025.067.33751-.135.33751-.203 0-.372-.13501-.372-.33751 0-.20251.068-.37127.135-.37127.102 0 .271.16876.372.37127zm-23.2024.33751c0 .20251-.2026.37127-.4052.37127-.2027 0-.2702-.16876-.1351-.37127.1013-.16876.2701-.33751.3715-.33751.0675 0 .1688.16875.1688.33751zm-1.5873.57377c-.3715.27001-.8781.50627-1.0808.50627-.2026-.03375.0338-.23626.5404-.54002 1.1483-.64127 1.4185-.64127.5404.03375zm63.0887-.2025c.135.2025-.034.33751-.338.33751s-.54-.13501-.54-.33751c0-.20251.135-.37127.337-.37127.169 0 .439.16876.541.37127zm25.195 3.17263c.101.2025.033.37126-.169.37126-.203 0-.372-.16876-.372-.37126 0-.16876.068-.33752.169-.33752.068 0 .237.16876.372.33752zm-163.6656 1.95758c.3715.47252.3715.50627-.1351.33751-.304-.13501-.5742-.37127-.5742-.54002 0-.47252.2027-.40502.7093.20251zm1.7899.16875c0 .20251-.1688.37127-.3715.37127-.2026 0-.3377-.16876-.3377-.37127 0-.16875.1351-.33751.3377-.33751.2027 0 .3715.16876.3715.33751zm140.4297 1.78883c0 .2025-.169.33751-.372.33751s-.338-.13501-.338-.33751c0-.20251.135-.37127.338-.37127s.372.16876.372.37127zm-6.755 1.21506c0 .1012-.169.27-.338.3713-.202.135-.371.0675-.371-.1351 0-.2025.169-.405.371-.405.169 0 .338.1013.338.1688zm-32.963 5.1639c0 .2026-.169.3376-.371.3376-.203 0-.338-.135-.338-.3376 0-.2025.135-.3712.338-.3712.202 0 .371.1687.371.3712zm-2.127.9113c0 .1013-.271.135-.541.135-.304 0-.54-.135-.54-.3375 0-.1687.236-.2362.54-.135.27.135.541.27.541.3375zm-9.93 1.5526c0 .2025-.101.3713-.169.3713-.101 0-.27-.1688-.371-.3713-.135-.1688-.068-.3375.135-.3375s.405.1687.405.3375zm-.912.3375c.102.1688-.033.5063-.337.7088-.3719.3375-.4733.3038-.3719-.2025.0675-.3713.135-.675.1688-.7425.0341-.2026.3381-.0675.5401.2362zm122.969 1.9238c.236-.135.27-.0675.135.2026-.304.4725-.946.1687-.912-.4388.034-.3038.101-.3038.203.0337.101.2363.371.3375.574.2025zm19.69.4388c-.102.1013-.304-.1012-.439-.4388-.169-.5062-.136-.5737.202-.2025.237.2363.372.5063.237.6413zm-69.404-.2025c0 .1688-.271.2363-.541.135-.304-.135-.54-.27-.54-.3375 0-.1013.236-.1688.54-.1688.27 0 .541.1688.541.3713zm-74.8421 1.0463c-.2026.405-.6416.7088-.9794.675-.5403-.0337-.5403-.0337-.0338-.2025.3378-.0675.6755-.4725.7768-.9113.1351-.405.304-.6412.4391-.54.1013.135.0338.5738-.2027.9788zm190.2451-.7088c.135.2025.067.3713-.135.3713-.203 0-.372-.1688-.372-.3713 0-.1687.068-.3375.135-.3375.102 0 .27.1688.372.3375zm-146.981.1688c0 .0675-.237.2025-.541.3375-.27.1012-.506.0337-.506-.135 0-.2025.236-.3713.506-.3713.304 0 .541.0675.541.1688zm153.026.2025c.102.2025-.034.27-.338.135-.607-.2363-.743-.5063-.236-.5063.203 0 .439.1688.574.3713zm-160.828.3037c0 .1688-.237.2701-.507.2701-.304 0-.439-.1013-.337-.2701.101-.1687.337-.3037.506-.3037.203 0 .338.135.338.3037zm1.249.0338c-.135.2025-.371.3713-.574.3713-.202 0-.27-.1688-.135-.3713.102-.1688.372-.3375.574-.3375.203 0 .237.1687.135.3375zm-47.0794.5738c-.1351.135-.4391.135-.6755.0337-.304-.1012-.2027-.2025.2026-.2025.3715-.0337.5742.0675.4729.1688zm31.3074-.0675c0 .0675-.27.2362-.54.3375-.304.135-.54.0675-.54-.135 0-.1688.236-.3375.54-.3375.27 0 .54.0675.54.135z" fill="#000"/></svg>