<svg fill="none" viewBox="0 0 149 18" xmlns="http://www.w3.org/2000/svg"><path d="m127.588 1.47148c-1.039.31781-2.104.61693-2.408.65432-.709.11217-4.916 1.68255-4.916 1.8508 0 .07478-.709.42998-1.596.80388s-1.546.78519-1.47.91605c.051.11217-.177.44868-.507.72911-.506.44868-.633.48607-.912.24303-.279-.24303-.253-.33651.152-.50476.254-.11217.33-.20565.152-.20565-.507-.01869-4.992 1.62646-4.662 1.70124.152.03739.684-.07478 1.14-.24303 1.115-.42999 1.571-.03739.71.59824-.33.22434-.634.39259-.685.3552-.05-.01869-.354.07478-.633.22434-.304.14956-.684.22434-.887.16825-.177-.05608-.558 0-.836.09348-.532.22434-.989.09347-1.166-.31781-.076-.14956-.405-.03739-.988.3552-.482.31781-1.039.57954-1.242.57954s-.405.09348-.456.18695c-.051.11217-.405.24304-.811.31782-.583.11212-.735.07482-.735-.18695 0-.16826-.152-.31782-.329-.31782-1.115-.05608-1.85-.20564-2.382-.46737-.912-.46737-1.191-.3739-.482.18695.355.26173.507.48607.38.48607-.126 0-.076.09347.153.18695.329.16829.329.20559-.077.20559-.253 0-.532-.13081-.633-.29907-.076-.14956-.329-.29912-.532-.29912s-.304-.09347-.203-.20564c.076-.11217 0-.29912-.228-.42999-.38-.24303-2.2552-2.05644-3.7249-3.6642-.4308-.42999-.8616-.7478-1.0136-.69172-.1267.07478-.2534.0187-.2788-.09347-.0253-.11217-.0507-.28043-.0507-.39259-.0253-.09348-.3294-.3739-.6841-.61694l-.6336-.44868.1774.56085c.1774.50477.1521.54216-.228.31782-.5068-.33651-.5068-.69172 0-1.00953.3547-.22434.3547-.28042-.0254-.59824-.6842-.56085-2.686-1.06561-3.1422-.78519-.2027.11217-.5574.16826-.7855.11217-.2281-.07478-.6335.05609-.9629.28043-.3041.22434-.8109.41129-1.1403.41129-.3295 0-.8869 0-1.267.01869-.3548 0-.7096.05609-.7856.13087s-.3801.24303-.6842.3552c-.2787.13086-.5321.39259-.5321.57954 0 .28043-.2281.3926-.9883.44868-1.2923.09348-1.2923-.24303.0254-.7291.5574-.20565 1.1656-.54215 1.3937-.7478.3547-.33651.3294-.33651-.1521-.03739-.3041.18695-1.0389.52346-1.6724.7478-.6842.26173-1.0643.50476-.9629.65432.1267.13087.0506.14956-.1267.05609-.2028-.07478-.7856.07478-1.3684.37389-.5828.28043-1.2163.50477-1.4191.50477-.2027 0-.6588.22434-1.0389.48607-.7349.54215-2.4327 1.14039-2.7114.93474-.076-.05608-.3294.03739-.5068.24304-.2027.20564-.5068.29912-.6589.22434-.2027-.09348-.304 0-.304.26173 0 .39259-.7349.78518-1.4698.78518-.228 0-.9882.42999-1.7231.93475-2.7874 2.00031-3.2435 2.24341-3.6236 2.00031-.2788-.1682-.6082-.1495-1.3177.1122-.5068.1683-.8616.3926-.7856.4861.1774.2243-.5828.7852-1.0643.7852-.1773 0-.4814-.1309-.6588-.2805-.3041-.2617-.4054-.2617-.8869-.0186-.3041.1682-.8362.243-1.2163.1869-.9883-.1496-2.2046.2243-2.0019.5982.1014.187 0 .2992-.2281.2992-.228 0-.5575.1495-.7348.3178-.2028.1495-.4055.243-.4815.1869s.076-.243.3801-.4113c.4815-.2804.4561-.2991-.4308-.2056-.5068.0561-1.8498.1682-2.9901.243-1.7738.1122-2.2046.0748-3.2689-.2991-.6588-.2243-1.343-.3739-1.4697-.2991-.1267.0561-.3801-.1309-.5575-.3926-.2027-.3178-.3801-.43-.5068-.2991-.1267.1495-.3041.1121-.5575-.0935-.6842-.5608-.9122-.8039-.9629-.9908-.0254-.1122-.2027-.3365-.4055-.50479-.8869-.82258-1.3177-1.8508-.4561-1.08431.1774.16825.4561.29912.6335.29912.2027 0 .2027-.03739.0254-.14956-.1521-.07478-.5575-.44868-.9123-.82258s-1.0389-.97214-1.5457-1.34603c-.8363-.57955-.9123-.71041-.7856-1.43951.076-.42999.0254-.99084-.1267-1.23387-.2534-.42998-.8869-.54215-3.3449-.54215-.3294 0-.5828-.05609-.5828-.13087s-.3801-.11217-.8109-.05608c-.4308.03739-.7855.18695-.7855.33651 0 .13086-.1774.48606-.3801.76649-.3041.44868-.4055.46737-.6842.20564-.2027-.14956-.5828-.29912-.8869-.29912-.5575 0-2.7874 1.40212-3.2436 2.03775-.152.20565-.7602.52346-1.343.69171-1.3684.3926-2.5594 1.17779-2.4073 1.58907.1267.29912-.8616.78519-1.6218.78519-.1774 0-.5575.22434-.8362.50477-.2788.26172-.6082.48602-.7349.48602-.1013 0-.5068.2431-.8869.5609-.7095.5608-4.0797 2.2808-5.6255 2.879-.6335.243-.7602.3739-.5068.4861.2027.0935-.076.1308-.6588.0935-.8616-.0561-.9883-.0187-.8616.2991.1014.2991-.0253.3552-.6335.3552-.4055-.0187-.9376.1308-1.191.2991-.5321.4113-1.1656.43-1.343.0374-.1014-.1496-.3041-.2244-.4815-.187-.1774.0561-.7855.1122-1.343.1496-1.0896.0748-3.21822-.5422-2.96482-.8413.07602-.0935-.07602-.1308-.35476-.0748-.32942.0748-.60816-.0373-.81089-.3178-.15204-.2243-.53214-.4113-.81088-.4113-.60816 0-.93759-.3178-.45612-.4486.22806-.0748.15204-.2057-.22806-.4674-.58283-.3739-2.10324-2.0191-2.91412-3.19684-.43079-.57955-.50681-.61694-.60817-.29912-.22806.82256-.5068.69166-.3801-.16826.1267-.84127.07602-.91605-.58282-1.103-.93759-.26173-2.052555-.26173-1.49507 0 .60816.28042.17738.42999-.608166.20565-.532143-.14956-.709524-.13087-.709524.03739.0253402.50476 1.29235 1.27125 1.92585 1.15908.2534-.03739 1.08963.9161 1.16565 1.3273.05068.1683-.05068.3552-.20272.43-.17738.0748-.20272.2431-.10136.3739.15204.187.2534.187.40544 0 .1267-.1682.22806-.1308.35476.0935.10136.1869.05068.2617-.10136.2056-.1267-.0747-.2534.0187-.2534.2057 0 .2056.15204.2804.40544.2056.2534-.0747.53215.0935.78555.4674.27874.3926.30408.5795.10136.6356s-.15204.2431.15204.5796c.53214.6169 1.19099.8412 1.57109.5608.35476-.2617.70952-.2617.70952 0 0 .1122-.10136.1683-.22806.0935-.1267-.0561-.3801.0374-.58282.1869-.32942.2992-.20272.3739.60816.3179.43078-.0374.58283.1682.50681.6917-.02534.1308.15204.2804.40544.3552.35476.0935.3801.0748.10136-.187-.20272-.1495-.22806-.2991-.07602-.2991s.40544.1496.58282.2991c.20272.1683.5068.2991.70953.2991.68418 0 2.22992.6544 2.38202 1.0096.152.3739 1.1909.5234 1.1909.1682 0-.1121.4055-.2056.9123-.2056.5828 0 .9376.1122.9376.2617 0 .1683.0507.1683.2027.0187.1014-.1309.5828-.2056 1.0389-.1496.4815.0374.9376-.0186 1.039-.1308.1013-.1309.2787-.1496.4814-.0187.3295.2056.887.2056 1.3684 0 .1521-.0748.6335-.187 1.115-.2617.4561-.0748 1.1656-.3552 1.5964-.6544.4055-.2804.9376-.486 1.1657-.4673.228.0187.5574-.1683.7602-.43.1773-.2617.4814-.4487.6588-.3926s.4815-.0374.6842-.2057c.1774-.1682.4815-.3178.6335-.3178.1774 0 .5068-.1495.7349-.3365.228-.1869.6335-.4487.9122-.5608.4561-.2057.4561-.2805.1774-.6544-.4815-.5982-.1267-.916.4561-.4112.5828.486 1.3937.3365 2.306-.4113.7348-.617 2.3819-1.6639 2.8127-1.7947.2027-.0561 1.039-.5048 1.8499-.99087.8362-.50477 1.6471-.91605 1.7738-.91605.4561 0 .9882-.63563.8869-1.10301-.1014-.61693.4814-1.40212.7855-1.04691.1267.16825.0507.41129-.2027.61693-.5321.42998-.3801.44868.6082.05608.4307-.14955.9629-.28042 1.1909-.28042.2028 0 .5322-.11217.7096-.24303.2534-.18695.3294-.18695.3294 0 0 .13086.2027.22434.4308.22434.3801 0 .3801-.03739.076-.29912-.3041-.28043-.2787-.31782.1267-.26173.4561.07478 1.6724 1.73863 1.2417 1.73863-.1267 0-.3041-.20565-.3801-.48607-.1774-.46738-.6842-.69171-.6842-.29912 0 .46737.6588 1.17778 1.0643 1.17778.2534 0 .5321.14956.6335.33651.152.28042.1013.28042-.3041.03739-.4308-.24303-.4308-.24303-.1267.07478.2027.18695.5828.3739.8362.44868.4308.09347.4561.18695.2027.67302-.4814.91609.7856 2.74819 1.9005 2.74819.2534 0 .1521-.2057-.3547-.6731-.3801-.3739-.6082-.6917-.4815-.6917.3548.0187 1.1657.9535 1.2924 1.4956.076.2804 0 .617-.1521.7478-.2534.2431.1014.5983 1.039.9909.2787.1308.2534.0373-.0507-.2992-.7095-.7291-.5322-.8412.4561-.3926 1.2924.5796 5.6762 1.963 5.8536 1.8321.076-.056.3294 0 .5321.1309.3295.2057.5322.1683 1.1657-.1682l.7602-.3926.3294.4486c.1774.2431.5322.4487.7856.4674.6588.0187 1.6471-.3739 1.4443-.5982-.076-.1122.1774-.1496.6589-.1122.4561.0561.7602.0187.7095-.0561-.076-.0935.1521-.1682.5322-.1682s.6841.0934.6841.1869c0 .1122-.2027.1496-.4561.0748-.4054-.0935-.4054-.0748-.076.1122.5068.2617 1.4951.2804 2.1539.0187.4055-.1683.4561-.2805.2281-.5983-.1521-.2056-.2281-.3926-.2028-.3926.0507-.0187.2535-.0561.4815-.0934.2281-.0187.6335-.1122.9376-.2057l.5321-.1309-.5321.3366c-.3041.1682-.3801.2804-.2027.2056s.3294-.0187.3294.1309c.0253.1495.2281.056.5321-.187.2788-.2617.6589-.4487.8616-.43 1.115.1122 1.8498-.0747 2.7367-.6917.5575-.3739 1.0643-.6543 1.1657-.5982.3801.1682 1.343-.617 1.419-1.1591.0761-.3178.2788-.6169.4562-.673.2534-.0561.304.0374.2027.3365-.1014.2804-.0254.4113.228.4113.2028 0 .3801-.1309.3801-.2991 0-.1683.1014-.2618.2028-.2057.1267.0561.5068-.1495.8615-.4674.5322-.486.7096-.5234 1.2417-.3365.4561.1496.7095.1496.9376-.0187.1774-.1308.6335-.243 1.0136-.243.9376 0 2.8634-1.27126 2.2299-1.43951-.2534-.07478-.3547-.18695-.2787-.26173.1013-.07478.3294-.01869.5068.11217.5068.3739.9376.26173 1.4444-.3552.3547-.44868.5575-.54216.8869-.3926.2534.09348.6842.11217.9629.05609.6082-.11217 1.4191-1.02823 1.2417-1.38343-.076-.14956.1013-.26173.4054-.26173.2788 0 .6842-.16825.8869-.39259.2534-.29912.7096-.42999 1.5711-.46737.6589-.03739 1.3684-.11217 1.5964-.16826.2028-.05608.8363-.16825 1.3938-.22434.5321-.07478.9882-.24303.9882-.3739 0-.13086.2534-.3552.5828-.50476.5068-.24303.6336-.18695 1.4698.50476.4814.41129 1.0643 1.04692 1.267 1.40212.228.35521.5068.59824.6588.52346.1521-.05608.2788.0187.2788.16826 0 .16825.1013.31781.2027.3552.3801.13086 1.0643 1.4769.8616 1.71993-.1267.18695-.4308.03739-.963-.46737-1.5204-1.4582-1.7738-1.62646-1.1403-.78519.5322.72911 2.5087 2.2434 2.8888 2.2434.1014 0 .4561.18699.7855.42999.3295.2243.9123.4113 1.2924.43.4054.0187.9883.2243 1.343.4673.3548.2431 1.1909.5609 1.8749.7291 1.343.3366 4.283.3366 4.308.0187 0-.1121.076-.1121.203.0187.304.3552 1.875.5422 2.331.2618.203-.1309.608-.2618.862-.2805 1.14-.0747 2.458-.3552 2.458-.5234 0-.0935.177-.1683.38-.1683.228 0 .405-.1495.405-.3178 0-.2617.203-.2991 1.166-.2056.659.0561 1.343.1495 1.546.1682.202.0374.354-.1121.354-.3365 0-.5421 1.876-1.25254 3.497-1.32732l1.318-.03739-.279-.59824c-.152-.31781-.38-.63563-.507-.71041-.354-.18695 2.053-.95344 2.813-.91605.71.05608.71.05608.178.41129-.304.20564-.482.41129-.406.46737.203.14956 3.092-.97213 4.815-1.88819 1.191-.61693 1.774-.80388 2.28-.7291.71.11217 2.382-.48607 2.382-.82258 0-.11217.228-.14956.507-.09347.304.05608.735-.05609 1.064-.29912l.558-.41129.152.50476c.152.3926.304.48607.811.41129.405-.05608.633 0 .633.16826 0 .20564.152.22434.71.07478.532-.14956.811-.13087 1.166.11217.253.18695.633.33651.836.3552.177.0187.684.28042 1.064.57954.406.29912.963.52346 1.267.52346s.634.13087.71.28043.684.39259 1.393.52345c.685.13087 1.343.29912 1.495.3739s.862.29912 1.571.48607c1.191.33651 1.318.33651 1.724.03739.228-.18695.43-.57954.43-.85997 0-.29911.102-.54215.228-.54215.279 0 .963-.89736.963-1.28995 0-.18695-.177-.42998-.405-.57954-.329-.20565-.456-.18695-.735.11217-.507.50476-1.47.28042-4.181-.99083-3.016-1.40212-6.563-2.5986-8.16-2.72947-.886-.07477-1.115-.05608-.734.07478.43.14956.329.16826-.533.16826-.582 0-1.672.11217-2.407.22434-.735.13086-1.622.24303-1.976.24303-.761 0-1.419.31782-1.191.57955.076.09347-.152.07478-.507-.0187-.507-.14956-.76-.11217-1.014.13087-.203.16825-.329.3365-.304.37389.203.20565.025.46738-.228.35521-.203-.09348-.177-.18695.076-.31782.253-.13086.177-.14956-.228-.05608-.329.05608-.735.05608-.912-.0187-.178-.09347.709-.52345 2.179-1.0843 2.838-1.065614 2.889-1.215173.127-.33651zm11.048 2.31817c.203.11217.279.18695.127.18695s-.456-.07478-.659-.18695c-.228-.11217-.304-.18695-.152-.18695s.456.07478.684.18695zm-17.029.67302c0 .14956-.405.33651-.886.41129-.457.07478-.938.24303-1.039.3552-.152.16826-.203.16826-.203 0 0-.16825 1.495-.91605 2.052-1.02822.026-.0187.076.11217.076.26173zm-41.0253.3552c-.2281.31782-.3548.35521-.4308.16826-.076-.13087.0254-.33651.2281-.42999.5321-.24303.5575-.22434.2027.26173zm14.6973-.09347c.3294.31781.3294.31781-.1014.07478-.4307-.26173-.5828-.42999-.3547-.42999.0507 0 .2534.16826.4561.35521zm46.296-.0187c.33.29912.33.29912-.228.09348-.608-.24304-.76-.42999-.354-.42999.126 0 .38.14956.582.33651zm1.572.7665c0 .05608-.229 0-.533-.11217s-.532-.26173-.532-.29912c0-.05609.228-.0187.532.09347.304.13087.533.26173.533.31782zm-46.7024.63562c-.152.13087-.9122-.56085-.9122-.84127 0-.11217.2534.0187.5321.26173.3041.26173.4562.52346.3801.57954zm-16.091-.20564c0 .24303-.076.24303-.4054.03739-.2027-.13087-.3801-.26173-.3801-.28043 0-.01869.1774-.03739.3801-.03739.2281 0 .4054.13087.4054.28043zm-1.9258.09347c-.1267.26173-1.3177.7665-1.4951.63563-.1267-.09347 1.0643-.85997 1.3937-.87866.1014 0 .1521.11217.1014.24303zm67.5062.16826c0 .16825-.329.29912-.786.33651l-.81.07478.532-.3926c.583-.44868 1.064-.44868 1.064-.01869zm-112.5103 1.30864c-.3041.20565-.5068-.13086-.2788-.48607.1774-.3365.2027-.3365.3041 0 .076.20565.0507.41129-.0253.48607zm-30.28152 1.71994c-.07602.05608-.22806-.05609-.32942-.24304-.15204-.28042-.1267-.29912.15204-.11217.17738.13087.2534.29912.17738.35521zm114.33482-.29912c.076.11217.025.18695-.127.18695s-.278-.07478-.278-.18695.05-.20565.126-.20565c.051 0 .178.09348.279.20565zm-17.9409.54215c.3295.31782.3295.31782-.1013.07478-.4308-.26173-.5828-.42998-.3548-.42998.0507 0 .2534.16825.4561.3552zm-1.8751.24304c0 .24303-.3295.35524-.7096.26173-.5321-.14956-.4561-.3739.1774-.3739.2788 0 .5322.05608.5322.11217zm-53.2397 1.08434c0 .1121-.1774.0187-.4054-.187-.2028-.2056-.3801-.4674-.3801-.57953 0-.11217.1773-.01869.3801.18693.228.2057.4054.4674.4054.5796z" fill="#000"/></svg>