<svg viewBox="0 0 139 139" fill="none" xmlns="http://www.w3.org/2000/svg">
<path fill-rule="evenodd" clip-rule="evenodd" d="M139 69.5C139 107.884 107.884 139 69.5 139C31.1162 139 0 107.884 0 69.5C0 31.1162 31.1162 0 69.5 0C107.884 0 139 31.1162 139 69.5ZM69.5023 23.1664C63.8158 23.1664 59.206 27.548 59.206 32.953C59.206 38.358 69.5023 54.0553 69.5023 54.0553C69.5023 54.0553 79.7986 38.358 79.7986 32.953C79.7986 27.548 75.1888 23.1664 69.5023 23.1664ZM79.7951 106.046C79.7951 111.451 75.1853 115.833 69.4988 115.833C63.8123 115.833 59.2025 111.451 59.2025 106.046C59.2025 100.641 69.4988 84.9442 69.4988 84.9442C69.4988 84.9442 79.7951 100.641 79.7951 106.046ZM29.3788 46.3249C26.5356 51.2495 28.0252 57.4326 32.7061 60.135C37.3869 62.8375 56.1294 61.7693 56.1294 61.7693C56.1294 61.7693 47.6832 45.0038 43.0024 42.3013C38.3215 39.5988 32.222 41.4003 29.3788 46.3249ZM106.298 78.8562C110.979 81.5586 112.469 87.7417 109.625 92.6663C106.782 97.591 100.683 99.3924 96.0018 96.6899C91.321 93.9874 82.8748 77.2219 82.8748 77.2219C82.8748 77.2219 101.617 76.1537 106.298 78.8562ZM29.373 92.6662C32.2163 97.5909 38.3158 99.3923 42.9966 96.6898C47.6775 93.9873 56.1236 77.2218 56.1236 77.2218C56.1236 77.2218 37.3812 76.1536 32.7003 78.8561C28.0195 81.5586 26.5298 87.7416 29.373 92.6662ZM96.0026 42.3097C100.683 39.6073 106.783 41.4087 109.626 46.3333C112.469 51.258 110.98 57.441 106.299 60.1435C101.618 62.846 82.8756 61.7778 82.8756 61.7778C82.8756 61.7778 91.3217 45.0122 96.0026 42.3097Z" fill="#2BB656"/>
</svg>
