<svg xmlns="http://www.w3.org/2000/svg" xmlns:xlink="http://www.w3.org/1999/xlink" aria-hidden="true" overflow="hidden" version="1.1" style="position:absolute;width:0;height:0"><defs><symbol id="icon-app" viewBox="0 0 22 22"><title>app</title><path fill="var(--color1, #1fb6ff)" d="M16.813 19.031c-0.668 0.668-1.5 0.969-2.929 0.969h-6.986c-1.429-0-2.261-0.301-2.929-0.969s-0.968-1.502-0.968-2.932v-6.98c0-1.43 0.3-2.264 0.968-2.932s1.501-0.969 2.931-0.969c0 0 5.301-0.001 5.71-0.001s0.739 0.331 0.739 0.739c0 2.041 1.655 3.696 3.696 3.696 0.408 0 0.739 0.331 0.739 0.739s-0.001 5.708-0.001 5.708c-0 1.43-0.301 2.264-0.968 2.932zM17.043 8.913c-1.633-0-2.956-1.324-2.956-2.957s1.324-2.956 2.957-2.956c1.633 0 2.956 1.324 2.956 2.957 0 0.784-0.312 1.536-0.866 2.091s-1.307 0.866-2.091 0.866z"/></symbol><symbol id="icon-blog" viewBox="0 0 22 22"><title>blog</title><path fill="var(--color2, #5856d6)" d="M4.408 19.608c-1.325 0-2.4-1.075-2.4-2.4v-14.8c0-0.221 0.358-0.4 0.8-0.4s0.8 0.179 0.8 0.4c0 0.221 0.358 0.4 0.8 0.4s0.8-0.179 0.8-0.4c0-0.221 0.358-0.4 0.8-0.4s0.8 0.179 0.8 0.4c0 0.221 0.358 0.4 0.8 0.4s0.8-0.179 0.8-0.4c0-0.221 0.358-0.4 0.8-0.4s0.8 0.179 0.8 0.4c0 0.221 0.358 0.4 0.8 0.4s0.8-0.179 0.8-0.4c0-0.221 0.358-0.4 0.8-0.4s0.8 0.179 0.8 0.4c0 0.221 0.358 0.4 0.8 0.4s0.8-0.179 0.8-0.4c0-0.221 0.358-0.4 0.8-0.4s0.8 0.179 0.8 0.4c0 0.221 0.358 0.4 0.8 0.4s0.8-0.179 0.8-0.4c0-0.221 0.358-0.4 0.8-0.4s0.8 0.179 0.8 0.4v14.8c0 1.325-1.075 2.4-2.4 2.4h-12.8zM4.808 10.808c-0.221 0-0.4 0.179-0.4 0.4v4.8c0 0.221 0.179 0.4 0.4 0.4h4c0.221 0 0.4-0.179 0.4-0.4v-4.8c0-0.221-0.179-0.4-0.4-0.4h-4zM15.608 6.408c0-0.221-0.179-0.4-0.4-0.4h-8.8c-0.221 0-0.4 0.179-0.4 0.4v0.8c0 0.221 0.179 0.4 0.4 0.4h8.8c0.221 0 0.4-0.179 0.4-0.4v-0.8zM16.808 10.808h-5.6c-0.221 0-0.4 0.179-0.4 0.4s0.179 0.4 0.4 0.4h5.6c0.221 0 0.4-0.179 0.4-0.4s-0.179-0.4-0.4-0.4zM16.808 13.208h-5.6c-0.221 0-0.4 0.179-0.4 0.4s0.179 0.4 0.4 0.4h5.6c0.221 0 0.4-0.179 0.4-0.4s-0.179-0.4-0.4-0.4zM16.808 15.608h-5.6c-0.221 0-0.4 0.179-0.4 0.4s0.179 0.4 0.4 0.4h5.6c0.221 0 0.4-0.179 0.4-0.4s-0.179-0.4-0.4-0.4z"/></symbol><symbol id="icon-book" viewBox="0 0 22 22"><title>book</title><path fill="var(--color1, #1fb6ff)" d="M18.2 20h-11.806c-0.636 0-1.247-0.247-1.697-0.688l-1.228-1.202c-0.3-0.294-0.469-0.692-0.469-1.107v-14.221c0-0.432 0.358-0.783 0.8-0.783h12c0.442 0 0.8 0.35 0.8 0.783v14.087c0 0.432-0.358 0.783-0.8 0.783h-10.067c-0.081 0-0.154 0.048-0.185 0.121s-0.014 0.157 0.043 0.213l0.224 0.219c0.15 0.147 0.354 0.229 0.566 0.229h10.819c0.11 0 0.2-0.088 0.2-0.196v-13.696c0-0.108 0.090-0.196 0.2-0.196h0.6c0.442 0 0.8 0.35 0.8 0.783v14.087c0 0.432-0.358 0.783-0.8 0.783z"/></symbol><symbol id="icon-bookmark" viewBox="0 0 22 22"><title>bookmark</title><path fill="var(--color3, #6d95a8)" d="M6 19.25v-16.124c0-0.622 0.492-1.125 1.1-1.125h8.8c0.608 0 1.1 0.504 1.1 1.125v16.124c0 0.268-0.14 0.515-0.366 0.649s-0.506 0.134-0.733 0.001l-4.218-2.482c-0.113-0.067-0.252-0.067-0.366 0l-4.218 2.482c-0.227 0.134-0.506 0.133-0.733-0.001s-0.366-0.382-0.366-0.649z"/></symbol><symbol id="icon-brain" viewBox="0 0 22 22"><title>brain</title><path fill="var(--color4, #009eeb)" d="M11.002 11.509c0-3.409 4.332-2.193 4.332-4.755 0-1-1.284-3.057-3.667-3.057-2.208 0.003-3.997 1.826-4 4.075-0.041 1.102 0.68 2.082 1.729 2.352 0.158 0.028 0.274 0.168 0.274 0.331v9.203c0 0.188-0.149 0.34-0.333 0.34h-3.339c-0.365 0.001-0.663-0.298-0.667-0.67-0.007-2.473 3.001-4.194 3.001-6.121v-0.001c0-1.925-2.001-3.004-2.001-5.434 0-1.441 0.562-2.824 1.563-3.843s2.357-1.591 3.772-1.591c2.661-0.071 4.886 2.045 5 4.755v0.002c0 0.282-0.333 0.425-0.333 0.679-0.005 0.063 0.009 0.127 0.040 0.182l1.55 2.407c0.1 0.163 0.105 0.368 0.014 0.536s-0.265 0.272-0.453 0.272h-0.315c-0.092 0-0.167 0.076-0.167 0.17v2.539c-0 0.184-0.073 0.36-0.202 0.489s-0.303 0.2-0.484 0.198c-0.482-0.042-0.959-0.125-1.427-0.25l-0.395-0.080c-0.378-0.075-0.752 0.147-0.874 0.519l-0.256 0.781c-0.072 0.219-0.029 0.461 0.113 0.641 0.624 0.793 1.543 2.122 1.523 3.182-0.020 0.36-0.313 0.641-0.667 0.641h-2.997c-0.184 0-0.333-0.152-0.333-0.34v-8.151z"/></symbol><symbol id="icon-chicago" viewBox="0 0 22 22"><title>chicago</title><path fill="var(--color1, #1fb6ff)" d="M11 2l2.038 6.17 5.962-1.42-3.925 4.75 3.925 4.75-5.962-1.42-2.038 6.17-2.038-6.17-5.962 1.42 3.925-4.75-3.925-4.75 5.962 1.42z"/></symbol><symbol id="icon-heart" viewBox="0 0 22 22"><title>heart</title><path fill="var(--color5, #f76054)" d="M6.705 3.001c1.849-0.005 3.529 1.090 4.295 2.799 0.915-2.037 3.098-3.157 5.255-2.697s3.713 2.377 3.745 4.616c0 6.063-7.49 11.282-9 11.282s-9-5.219-9-11.282c0.017-2.622 2.123-4.735 4.705-4.718z"/></symbol><symbol id="icon-home" viewBox="0 0 22 22"><title>home</title><path fill="var(--color6, #59cb59)" d="M17.667 2.79c0.46 0 0.834 0.35 0.834 0.782v3.335c-0 0.119-0.076 0.225-0.193 0.271s-0.251 0.020-0.34-0.063l-2.557-2.4c-0.156-0.147-0.244-0.346-0.244-0.553v-0.589c0-0.432 0.373-0.782 0.834-0.782h1.667zM17.667 20h-3.751c-0.46 0-0.834-0.35-0.834-0.782v-4.694c0-0.432-0.373-0.782-0.834-0.782h-2.501c-0.46 0-0.834 0.35-0.834 0.782v4.694c0 0.432-0.373 0.782-0.834 0.782h-3.751c-0.46 0-0.834-0.35-0.834-0.782v-7.045h-1.663c-0.337-0-0.641-0.191-0.77-0.483s-0.058-0.629 0.181-0.853l9.167-8.607c0.156-0.147 0.368-0.229 0.589-0.229s0.433 0.082 0.589 0.229l9.167 8.607c0.238 0.224 0.31 0.56 0.181 0.853s-0.433 0.483-0.77 0.483h-1.666v7.045c0 0.432-0.373 0.782-0.834 0.782v0z"/></symbol><symbol id="icon-image" viewBox="0 0 22 22"><title>image</title><path fill="var(--color2, #5856d6)" d="M18.167 17.648h-14.694c-0.812 0-1.469-0.643-1.469-1.436v-10.769c0-0.793 0.658-1.436 1.469-1.436h14.694c0.812 0 1.469 0.643 1.469 1.436v10.769c0 0.793-0.658 1.436-1.469 1.436zM18.165 15.67l0.002-9.868c0-0.198-0.164-0.359-0.367-0.359h-13.959c-0.203 0-0.367 0.161-0.367 0.359v9.885c0 0.072 0.048 0.136 0.118 0.157s0.147-0.004 0.189-0.062l1.622-2.252c0.086-0.119 0.226-0.19 0.376-0.19h0.496l1.929-2.681c0.086-0.119 0.226-0.191 0.376-0.191h0.533c0.149 0 0.29 0.071 0.376 0.19l3.916 5.437c0.052 0.073 0.137 0.116 0.228 0.116h0.213c0.105-0 0.201-0.057 0.249-0.148s0.041-0.2-0.020-0.284l-0.958-1.33c-0.119-0.165-0.115-0.386 0.011-0.547l0.861-1.105c0.087-0.111 0.222-0.177 0.365-0.177h0.785c0.143 0 0.278 0.065 0.365 0.177l2.325 2.982c0.049 0.063 0.133 0.088 0.209 0.063s0.128-0.095 0.127-0.174zM14.126 10.469c-1.014 0-1.837-0.804-1.837-1.795s0.822-1.795 1.837-1.795c1.014 0 1.837 0.804 1.837 1.795s-0.822 1.795-1.837 1.795z"/></symbol><symbol id="icon-movie" viewBox="0 0 22 22"><title>movie</title><path fill="var(--color1, #1fb6ff)" d="M2 18v-14.4c0-0.884 0.716-1.6 1.6-1.6h14.4c0.884 0 1.6 0.716 1.6 1.6v14.4c0 0.884-0.716 1.6-1.6 1.6h-14.4c-0.884 0-1.6-0.716-1.6-1.6zM5.2 4c0-0.221-0.179-0.4-0.4-0.4h-1.2c-0.221 0-0.4 0.179-0.4 0.4v0.8c0 0.221 0.179 0.4 0.4 0.4h1.2c0.221 0 0.4-0.179 0.4-0.4v-0.8zM5.2 7.2c0-0.221-0.179-0.4-0.4-0.4h-1.2c-0.221 0-0.4 0.179-0.4 0.4v0.8c0 0.221 0.179 0.4 0.4 0.4h1.2c0.221 0 0.4-0.179 0.4-0.4v-0.8zM5.2 10.4c0-0.221-0.179-0.4-0.4-0.4h-1.2c-0.221 0-0.4 0.179-0.4 0.4v0.8c0 0.221 0.179 0.4 0.4 0.4h1.2c0.221 0 0.4-0.179 0.4-0.4v-0.8zM5.2 13.6c0-0.221-0.179-0.4-0.4-0.4h-1.2c-0.221 0-0.4 0.179-0.4 0.4v0.8c0 0.221 0.179 0.4 0.4 0.4h1.2c0.221 0 0.4-0.179 0.4-0.4v-0.8zM16.4 17.6c0 0.221 0.179 0.4 0.4 0.4h1.2c0.221 0 0.4-0.179 0.4-0.4v-0.8c0-0.221-0.179-0.4-0.4-0.4h-1.2c-0.221 0-0.4 0.179-0.4 0.4v0.8zM16.4 14.4c0 0.221 0.179 0.4 0.4 0.4h1.2c0.221 0 0.4-0.179 0.4-0.4v-0.8c0-0.221-0.179-0.4-0.4-0.4h-1.2c-0.221 0-0.4 0.179-0.4 0.4v0.8zM16.4 11.2c0 0.221 0.179 0.4 0.4 0.4h1.2c0.221 0 0.4-0.179 0.4-0.4v-0.8c0-0.221-0.179-0.4-0.4-0.4h-1.2c-0.221 0-0.4 0.179-0.4 0.4v0.8zM16.4 8c0 0.221 0.179 0.4 0.4 0.4h1.2c0.221 0 0.4-0.179 0.4-0.4v-0.8c0-0.221-0.179-0.4-0.4-0.4h-1.2c-0.221 0-0.4 0.179-0.4 0.4v0.8zM16.4 4.8c0 0.221 0.179 0.4 0.4 0.4h1.2c0.221 0 0.4-0.179 0.4-0.4v-0.8c0-0.221-0.179-0.4-0.4-0.4h-1.2c-0.221 0-0.4 0.179-0.4 0.4v0.8zM6.4 17.6c0 0.221 0.179 0.4 0.4 0.4h8c0.221 0 0.4-0.179 0.4-0.4v-5.6c0-0.221-0.179-0.4-0.4-0.4h-8c-0.221 0-0.4 0.179-0.4 0.4v5.6zM6.4 9.6c0 0.221 0.179 0.4 0.4 0.4h8c0.221 0 0.4-0.179 0.4-0.4v-5.6c0-0.221-0.179-0.4-0.4-0.4h-8c-0.221 0-0.4 0.179-0.4 0.4v5.6zM5.2 17.6v-0.8c0-0.221-0.179-0.4-0.4-0.4h-1.2c-0.221 0-0.4 0.179-0.4 0.4v0.8c0 0.221 0.179 0.4 0.4 0.4h1.2c0.221 0 0.4-0.179 0.4-0.4z"/></symbol><symbol id="icon-music" viewBox="0 0 22 22"><title>music</title><path fill="var(--color1, #1fb6ff)" d="M9.199 4.947l7.739-1.922c0.255-0.063 0.526-0.006 0.734 0.155s0.329 0.408 0.329 0.67v11.578c0 1.286-1.162 2.193-2.737 2.193-0.539 0.011-1.061-0.194-1.447-0.569s-0.604-0.888-0.606-1.424c0-0.908 0.622-1.699 1.508-1.919l1.394-0.346c0.305-0.076 0.518-0.348 0.518-0.659v-4.95c-0-0.105-0.049-0.203-0.132-0.268s-0.191-0.087-0.293-0.062l-6.028 1.497c-0.229 0.057-0.389 0.261-0.389 0.495v8.392c0 1.286-1.162 2.193-2.737 2.193-0.539 0.011-1.061-0.194-1.447-0.569s-0.604-0.887-0.606-1.424c-0-0.908 0.622-1.699 1.508-1.919l1.394-0.346c0.305-0.076 0.518-0.347 0.518-0.659v-9.146c0-0.468 0.321-0.876 0.778-0.989z"/></symbol><symbol id="icon-open" viewBox="0 0 22 22"><title>open</title><path fill="var(--color3, #6d95a8)" d="M18.259 9.289c-0.196 0-0.385-0.078-0.524-0.217s-0.217-0.327-0.217-0.524v-3.016l-6.152 6.142c-0.187 0.186-0.458 0.257-0.712 0.189s-0.452-0.268-0.519-0.523c-0.067-0.255 0.006-0.526 0.193-0.711l6.159-6.148h-3.046c-0.408 0-0.739-0.331-0.739-0.74s0.331-0.74 0.739-0.74h4.818c0.196-0 0.385 0.078 0.524 0.216s0.217 0.327 0.217 0.524v4.809c-0 0.197-0.078 0.385-0.217 0.524s-0.327 0.217-0.524 0.217zM9.667 7.148h-4.444c-0.409 0-0.74 0.332-0.741 0.741v8.889c0 0.409 0.332 0.74 0.741 0.741h8.889c0.409-0.001 0.74-0.332 0.741-0.741v-4.443c0-0.409 0.332-0.741 0.741-0.741s0.741 0.332 0.741 0.741v4.443c-0.001 1.227-0.995 2.221-2.222 2.222h-8.889c-1.227-0.002-2.221-0.996-2.222-2.222v-8.889c0.001-1.227 0.995-2.221 2.222-2.222h4.444c0.407 0.003 0.736 0.334 0.736 0.741s-0.329 0.738-0.736 0.741z"/></symbol><symbol id="icon-person" viewBox="0 0 22 22"><title>person</title><path fill="var(--color3, #6d95a8)" d="M5.517 16.463c2.416-0.729 2.997-1.446 3.029-3.407-0.238-0.173-0.455-0.37-0.644-0.588-0.516-0.658-0.832-1.43-0.915-2.238-0.037 0.009-0.075 0.013-0.114 0.013-0.443 0-0.779-0.998-0.779-1.7s0.228-0.915 0.445-0.915c0.057 0 0.115 0.004 0.172 0.011-0.13-0.497-0.2-1.005-0.208-1.515 0-1.802 0.519-3.049 2.101-3.271 0.876-0.592 2.201-0.854 3.893-0.854 1.083 0 0.181 0.722 1.198 0.933 0.63 0.13 1.802 0.566 1.802 3.192-0.009 0.511-0.078 1.019-0.208 1.515 0.057-0.007 0.114-0.011 0.172-0.011 0.217 0 0.445 0.213 0.445 0.915s-0.336 1.7-0.779 1.7c-0.038-0-0.077-0.005-0.114-0.013-0.083 0.807-0.398 1.58-0.915 2.238-0.19 0.218-0.406 0.415-0.644 0.588 0.032 1.961 0.613 2.677 3.029 3.407 2.26 0.682 3.326 1.159 3.514 2.914 0.017 0.159-0.040 0.317-0.156 0.436s-0.283 0.186-0.457 0.187h-16.767c-0.174-0-0.34-0.068-0.457-0.187s-0.174-0.277-0.156-0.436c0.188-1.755 1.254-2.232 3.514-2.914z"/></symbol><symbol id="icon-portfolio" viewBox="0 0 22 22"><title>portfolio</title><path fill="var(--color7, #ffa017)" d="M18.5 19h-15c-0.828 0-1.5-0.651-1.5-1.455v-5.259c-0.001-0.206 0.116-0.395 0.304-0.492s0.415-0.085 0.591 0.030c0.62 0.412 1.354 0.631 2.106 0.63h4.5v0.758c0 0.314 0.599 0.697 1.5 0.697s1.5-0.383 1.5-0.697v-0.758h4.5c0.751 0.001 1.486-0.219 2.106-0.63 0.176-0.115 0.403-0.127 0.591-0.030s0.304 0.286 0.304 0.492v5.259c0 0.803-0.672 1.455-1.5 1.455zM17 11.727h-4.5v-0.727c0-0.201-0.168-0.364-0.375-0.364h-2.25c-0.207 0-0.375 0.163-0.375 0.364v0.727h-4.5c-1.657 0-3-1.302-3-2.909v-1.455c0-0.803 0.672-1.455 1.5-1.455h3.375v-1.091c0-1.004 0.839-1.818 1.875-1.818h4.5c1.036 0 1.875 0.814 1.875 1.818v1.091h3.375c0.828 0 1.5 0.651 1.5 1.455v1.455c0 1.607-1.343 2.909-3 2.909zM13.625 4.818c0-0.201-0.168-0.364-0.375-0.364h-4.5c-0.207 0-0.375 0.163-0.375 0.364v1.091h5.25v-1.091z"/></symbol><symbol id="icon-quote" viewBox="0 0 22 22"><title>quote</title><path fill="var(--color1, #1fb6ff)" d="M11 17.669c-0.525-0.007-1.048-0.063-1.563-0.166-0.243-0.042-0.492 0.023-0.685 0.177-0.984 0.723-2.14 1.177-3.353 1.318-0.141 0.015-0.277-0.053-0.35-0.175s-0.068-0.274 0.011-0.391c0.469-0.584 0.805-1.263 0.986-1.989 0.037-0.198-0.041-0.401-0.201-0.524-1.769-1.315-2.822-3.381-2.846-5.585 0-4.046 3.582-7.334 8-7.334s8 3.289 8 7.334c0 4.046-3.582 7.334-8 7.334z"/></symbol><symbol id="icon-sidebar-close" viewBox="0 0 22 22"><title>sidebar-close</title><path fill="var(--color8, #9ea3a8)" d="M18.5 19h-15c-0.828 0-1.5-0.672-1.5-1.5v-12c0-0.828 0.672-1.5 1.5-1.5h15c0.828 0 1.5 0.672 1.5 1.5v12c0 0.828-0.672 1.5-1.5 1.5zM10.254 8.882c-0.002-0.143-0.083-0.272-0.211-0.337s-0.28-0.053-0.396 0.030l-3.731 2.621c-0.101 0.070-0.161 0.185-0.161 0.307s0.060 0.237 0.161 0.307l3.731 2.621c0.116 0.083 0.269 0.094 0.396 0.030s0.208-0.194 0.211-0.337v-5.242zM18.5 5.875c0-0.207-0.168-0.375-0.375-0.375h-3c-0.207 0-0.375 0.168-0.375 0.375v11.25c0 0.207 0.168 0.375 0.375 0.375h3c0.207 0 0.375-0.168 0.375-0.375v-11.25z"/></symbol><symbol id="icon-sidebar-open" viewBox="0 0 22 22"><title>sidebar-open</title><path fill="var(--color8, #9ea3a8)" d="M18.5 19h-15c-0.828 0-1.5-0.672-1.5-1.5v-12c0-0.828 0.672-1.5 1.5-1.5h15c0.828 0 1.5 0.672 1.5 1.5v12c0 0.828-0.672 1.5-1.5 1.5zM7.25 5.875c0-0.207-0.168-0.375-0.375-0.375h-3c-0.207 0-0.375 0.168-0.375 0.375v11.25c0 0.207 0.168 0.375 0.375 0.375h3c0.207 0 0.375-0.168 0.375-0.375v-11.25zM16.095 11.19l-3.74-2.621c-0.117-0.083-0.269-0.094-0.397-0.030s-0.209 0.194-0.212 0.337v5.242c0.003 0.143 0.084 0.273 0.212 0.337s0.28 0.053 0.397-0.030l3.74-2.621c0.101-0.070 0.161-0.185 0.161-0.307s-0.060-0.237-0.161-0.307h0z"/></symbol><symbol id="icon-tag" viewBox="0 0 22 22"><title>tag</title><path fill="var(--color3, #6d95a8)" d="M17.362 3l-4.939 0.002c-0.579 0-1.134 0.23-1.544 0.64l-7.558 7.558c-0.427 0.427-0.427 1.119 0 1.547l5.933 5.934c0.205 0.205 0.483 0.32 0.773 0.32s0.568-0.115 0.773-0.32l7.559-7.559c0.409-0.409 0.639-0.964 0.639-1.542l0.002-4.942c0-0.434-0.172-0.851-0.48-1.158s-0.724-0.479-1.159-0.479zM15.716 7.378c-0.443 0-0.842-0.266-1.012-0.674s-0.076-0.879 0.237-1.192c0.313-0.313 0.784-0.407 1.193-0.237s0.676 0.568 0.676 1.010c0 0.29-0.115 0.568-0.32 0.773s-0.483 0.32-0.773 0.32l0 0z"/></symbol><symbol id="icon-thought" viewBox="0 0 22 22"><title>thought</title><path fill="var(--color2, #5856d6)" d="M11.33 18.273c-0.547-0.007-1.091-0.065-1.627-0.173-0.253-0.043-0.513 0.024-0.713 0.185-1.024 0.752-2.227 1.225-3.489 1.371-0.146 0.015-0.288-0.056-0.364-0.182s-0.071-0.285 0.012-0.407c0.488-0.608 0.838-1.314 1.027-2.070 0.038-0.206-0.043-0.417-0.209-0.545-1.841-1.368-2.938-3.518-2.963-5.812 0-4.21 3.728-7.633 8.327-7.633s8.327 3.422 8.327 7.633c0 4.21-3.728 7.633-8.327 7.633zM7.859 9.599c-0.421 0-0.8 0.254-0.962 0.643s-0.072 0.837 0.226 1.134c0.298 0.298 0.745 0.387 1.134 0.226s0.643-0.541 0.643-0.962c-0-0.575-0.466-1.041-1.041-1.041l-0-0zM11.328 9.599c-0.575 0-1.041 0.466-1.041 1.041s0.466 1.041 1.041 1.041c0.575 0 1.041-0.466 1.041-1.041s-0.466-1.041-1.041-1.041l-0-0zM14.797 9.599c-0.575 0-1.041 0.466-1.041 1.041s0.466 1.041 1.041 1.041c0.575 0 1.041-0.466 1.041-1.041s-0.466-1.041-1.041-1.041l-0-0z"/></symbol><symbol id="icon-code" viewBox="0 0 22 22"><title>code</title><path fill="#1FB6FF" d="M9.84766355 17.9863281 L8.13738318 17.5023438 C7.95794393 17.453125 7.85700935 17.2699219 7.90747664 17.0949219 L11.7345794 4.23789063 C11.7850467 4.06289062 11.9728972 3.96445312 12.1523364 4.01367188 L13.8626168 4.49765625 C14.0420561 4.546875 14.1429907 4.73007813 14.0925234 4.90507813 L10.2654206 17.7621094 C10.2121495 17.9371094 10.0271028 18.0382812 9.84766355 17.9863281 Z M5.65140187 14.9183594 L6.87102804 13.6496094 C7 13.515625 6.99158879 13.3023438 6.84859813 13.1792969 L4.30841121 11 L6.84859813 8.82070313 C6.99158879 8.69765625 7.00280374 8.484375 6.87102804 8.35039063 L5.65140187 7.08164063 C5.52523364 6.95039063 5.31214953 6.9421875 5.17476636 7.06796875 L1.13457944 10.759375 C0.991588785 10.8878906 0.991588785 11.109375 1.13457944 11.2378906 L5.17476636 14.9320313 C5.31214953 15.0578125 5.52523364 15.0523438 5.65140187 14.9183594 Z M16.8252336 14.9347656 L20.8654206 11.240625 C21.0084112 11.1121094 21.0084112 10.890625 20.8654206 10.7621094 L16.8252336 7.06523438 C16.6906542 6.9421875 16.4775701 6.94765625 16.3485981 7.07890625 L15.128972 8.34765625 C15 8.48164063 15.0084112 8.69492188 15.1514019 8.81796875 L17.6915888 11 L15.1514019 13.1792969 C15.0084112 13.3023438 14.9971963 13.515625 15.128972 13.6496094 L16.3485981 14.9183594 C16.4747664 15.0523437 16.6878505 15.0578125 16.8252336 14.9347656 Z"/></symbol><symbol id="icon-art" viewBox="0 0 22 22"><title>art</title><path fill="#EF588B" d="M19.625,14.2727272 C19.625,15.4727272 20,16.3454545 20,17.5454545 C20,18.3487782 19.3284275,19 18.5,19 C17.1249875,19 16.1250125,18.6363636 14.75,18.6363636 C13.3749875,18.6363636 12.3750125,19 11,19 C9.62498754,19 8.62501254,18.6363636 7.25000005,18.6363636 C5.87498755,18.6363636 4.87501256,19 3.50000006,19 C2.6715725,19 2,18.3487782 2,17.5454545 C2,17.5454545 2,17.5454545 2,17.5454545 C2,16.3454545 2.375,15.4727272 2.375,14.2727272 C2.375,13.0727272 2,12.1999999 2,10.9999999 C2,9.79999987 2.375,8.92727259 2.375,7.72727257 C2.375,6.52727256 2,5.65454527 2,4.45454525 L2,4.45454547 C1.99999987,3.65122183 2.6715725,3 3.49999999,3 C4.87501249,3 5.87498749,3.36363637 7.24999998,3.36363637 C8.62501248,3.36363637 9.62498747,3 11,3 C12.3750125,3 13.3749875,3.36363637 14.75,3.36363637 C16.1250124,3.36363637 17.1249874,3 18.4999999,3 C19.3284274,2.99999996 19.9999999,3.65122183 19.9999999,4.45454547 C19.9999999,5.65454549 19.6249999,6.52727278 19.6249999,7.72727279 C19.6249999,8.92727281 19.9999999,9.80000009 19.9999999,11.0000001 C19.9999999,12.2000001 19.6250002,13.0727274 19.6250002,14.2727274 L19.625,14.2727272 Z M17.75,5.54545436 C17.75,5.34462345 17.5821069,5.18181799 17.375,5.18181799 L4.62500006,5.18181799 C4.41789317,5.181818 4.25000004,5.34462345 4.25000004,5.54545436 C4.25000004,5.54545436 4.25000004,5.54545436 4.25000004,5.54545436 L4.25000004,16.4545454 C4.25000007,16.6553764 4.41789317,16.8181818 4.62500004,16.8181818 L17.375,16.8181818 C17.5821069,16.8181819 17.75,16.6553764 17.75,16.4545455 L17.75,5.54545436 Z M16.8125,16.0909091 L5.18750005,16.0909091 C5.0839468,16.090909 5.00000005,16.0095061 5.00000005,15.9090909 C5.00000005,15.9090909 5.00000005,15.9090909 5.00000005,15.9090909 L5.00000005,6.09090891 C5.00000003,5.99049367 5.0839468,5.90909076 5.18750005,5.90909076 L16.8125,5.90909076 C16.9160532,5.90909075 17,5.99049367 17,6.09090894 L17,15.9090909 C17,16.0095062 16.9160532,16.0909091 16.8125,16.0909091 Z"/></symbol><symbol id="icon-open-tab" viewBox="0 0 22 22"><title>open-tab</title><path fill="currentColor" d="M19.420904,22 L2.57909605,22 C1.14971751,22 0,20.8502825 0,19.420904 L0,2.57909605 C0,1.14971751 1.14971751,0 2.57909605,0 L19.420904,0 C20.8502825,0 22,1.14971751 22,2.57909605 L22,19.420904 C22,20.8502825 20.819209,22 19.420904,22 Z M16.0504787,5.34285714 L8.74017618,5.34285714 C8.43684412,5.34285714 8.10317886,5.6461892 8.10317886,5.91918805 L8.10317886,7.04151666 C8.10317886,7.34484872 8.40651092,7.67851398 8.74017618,7.67851398 L11.7734967,7.67851398 C12.1374952,7.67851398 12.2891612,8.04251245 12.0768288,8.3155113 L5.52485638,14.8978169 C5.28219073,15.0798162 5.28219073,15.4741478 5.52485638,15.7168135 L6.34385293,16.4751436 C6.52585216,16.7178093 6.92018384,16.7178093 7.10218307,16.4751436 L13.6844887,9.89283799 C13.9271543,9.65017235 14.6357717,9.83217158 14.6357717,10.19617 L14.6357717,13.2294906 C14.6357717,13.6238223 14.9997702,13.8664879 15.3334355,13.8664879 L16.1414784,13.8664879 C16.4448104,13.8664879 16.6571429,13.5631559 16.6571429,13.2294906 L16.6571429,5.85852164 C16.6268097,5.55518958 16.4448104,5.34285714 16.0504787,5.34285714 Z"/></symbol><symbol id="icon-escape" viewBox="0 0 22 22"><title>escape</title><path fill="currentColor" fill-rule="evenodd" d="M11.5559846,10.4749035 L10.4851995,11.5559846 L4.96653797,6.03732304 L3,8.003861 L3,3 L8.003861,3 L6.03732304,4.95624196 L11.5559846,10.4749035 Z M11,3 C13.2102213,3 15.0960883,3.78077297 16.6576577,5.34234234 C18.219227,6.90391171 19,8.78977874 19,11 C19,13.2033572 18.219227,15.0875083 16.6576577,16.6525097 C15.0960883,18.217511 13.2102213,19 11,19 C8.79664278,19 6.91249174,18.217511 5.34749035,16.6525097 C3.78248896,15.0875083 3,13.2033572 3,11 L4.52380952,11 C4.52380952,12.7777867 5.15872381,14.301581 6.42857143,15.5714286 C7.69841905,16.8412762 9.22221333,17.4761905 11,17.4761905 C12.7846507,17.4761905 14.310161,16.8412762 15.5765766,15.5714286 C16.8429922,14.301581 17.4761905,12.7777867 17.4761905,11 C17.4761905,9.21534929 16.8429922,7.68983902 15.5765766,6.42342342 C14.310161,5.15700782 12.7846507,4.52380952 11,4.52380952 L11,3 Z"/></symbol><symbol id="icon-broken" viewBox="0 0 22 22"><title>broken</title><path fill="currentColor" fill-rule="evenodd" d="M5,6 C3.34314575,6 2,4.65685425 2,3 C2,1.34314575 3.34314575,0 5,0 C6.65685425,0 8,1.34314575 8,3 C8,4.65685425 6.65685425,6 5,6 Z M12.5,8 L17.5,8 C17.7761424,8 18,8.22385763 18,8.5 L18,13.5 C18,13.7761424 17.7761424,14 17.5,14 L12.5,14 C12.2238576,14 12,13.7761424 12,13.5 L12,8.5 C12,8.22385763 12.2238576,8 12.5,8 Z M0.426776695,11.4267767 L7.5732233,18.5732233 C7.67085438,18.6708544 7.67085438,18.8291456 7.5732233,18.9267767 C7.52633921,18.9736608 7.46275073,19 7.39644661,19 L0.25,19 C0.111928813,19 1.69088438e-17,18.8880712 0,18.75 L0,11.6035534 C-1.69088438e-17,11.4654822 0.111928813,11.3535534 0.25,11.3535534 C0.316304122,11.3535534 0.379892601,11.3798926 0.426776695,11.4267767 Z"/></symbol></defs></svg>